M48
; DRILL file {KiCad (5.1.6)-1} date 01/18/21 21:57:36
; FORMAT={-:-/ absolute / inch / decimal}
; #@! TF.CreationDate,2021-01-18T21:57:36+00:00
; #@! TF.GenerationSoftware,Kicad,Pcbnew,(5.1.6)-1
; #@! TF.FileFunction,Plated,1,2,PTH
FMAT,2
INCH
T1C0.0157
T2C0.0236
T3C0.0276
T4C0.0315
T5C0.0354
T6C0.0394
T7C0.0433
T8C0.0472
%
G90
G05
T1
X5.2583Y-3.0827
X5.3583Y-3.0827
X6.0083Y-4.4076
X6.5983Y-4.2027
X6.8583Y-4.1327
X7.3045Y-4.0864
T2
X6.3295Y-3.9827
X6.4083Y-3.9827
T3
X5.8083Y-4.6327
X6.0083Y-4.6327
X4.2083Y-3.9827
X4.4083Y-3.9827
X4.2083Y-3.5327
X4.4083Y-3.5327
X7.2583Y-3.4827
X7.2583Y-3.6827
X7.2583Y-2.9327
X7.2583Y-3.1327
X5.8083Y-4.7827
X6.0083Y-4.7827
X4.2083Y-3.6827
X4.4083Y-3.6827
X4.2083Y-4.1827
X4.4083Y-4.1827
X6.4583Y-3.4827
X6.4583Y-3.6827
X4.2083Y-3.8327
X4.4083Y-3.8327
X5.8083Y-4.9327
X6.0083Y-4.9327
X6.6583Y-3.4827
X6.6583Y-3.6827
X5.8583Y-2.9327
X5.8583Y-3.1327
X4.2083Y-3.2327
X4.4083Y-3.2327
X6.2583Y-2.9327
X6.2583Y-3.1327
X4.2083Y-4.6827
X4.4083Y-4.6827
X6.6583Y-2.9327
X6.6583Y-3.1327
X4.2083Y-4.3327
X4.4083Y-4.3327
X6.0583Y-3.4827
X6.0583Y-3.6827
X6.0583Y-2.9327
X6.0583Y-3.1327
X6.8583Y-2.9327
X6.8583Y-3.1327
X5.8083Y-4.4827
X6.0083Y-4.4827
X4.2083Y-4.5327
X4.4083Y-4.5327
X7.0583Y-2.9327
X7.0583Y-3.1327
X6.8583Y-3.4827
X6.8583Y-3.6827
X6.4583Y-2.9327
X6.4583Y-3.1327
X4.2083Y-5.0327
X4.4083Y-5.0327
X5.8583Y-3.4827
X5.8583Y-3.6827
X6.2583Y-3.4827
X6.2583Y-3.6827
X7.0583Y-3.4827
X7.0583Y-3.6827
X4.2083Y-4.8827
X4.4083Y-4.8827
T4
X6.8583Y-4.3327
X6.8583Y-4.4327
X6.8583Y-4.5327
X6.8583Y-4.6327
X6.8583Y-4.7327
X6.8583Y-4.8327
X6.8583Y-4.9327
X6.8583Y-5.0327
X6.8583Y-5.1327
X6.8583Y-5.2327
X7.1583Y-4.3327
X7.1583Y-4.4327
X7.1583Y-4.5327
X7.1583Y-4.6327
X7.1583Y-4.7327
X7.1583Y-4.8327
X7.1583Y-4.9327
X7.1583Y-5.0327
X7.1583Y-5.1327
X7.1583Y-5.2327
T5
X4.5583Y-3.1827
X4.5583Y-3.2827
X6.8583Y-2.6827
X6.8583Y-2.7827
X7.2583Y-3.2827
X7.2583Y-3.3827
X7.0583Y-3.2827
X7.0583Y-3.3827
X6.0583Y-2.6827
X6.0583Y-2.7827
X6.6583Y-3.2827
X6.6583Y-3.3827
X6.8583Y-3.2827
X6.8583Y-3.3827
X6.2583Y-3.2827
X6.2583Y-3.3827
X6.4583Y-2.6827
X6.4583Y-2.7827
X6.0583Y-3.2827
X6.0583Y-3.3827
X5.8583Y-3.2827
X5.8583Y-3.3827
X7.0583Y-2.6827
X7.0583Y-2.7827
X6.2583Y-2.6827
X6.2583Y-2.7827
X6.6583Y-2.6827
X6.6583Y-2.7827
X6.4583Y-3.2827
X6.4583Y-3.3827
X7.2583Y-2.6827
X7.2583Y-2.7827
X5.8583Y-2.6827
X5.8583Y-2.7827
T6
X4.8583Y-3.0827
X4.8583Y-3.1827
X4.8583Y-3.2827
X4.8583Y-3.3827
X4.8583Y-3.4827
X4.8583Y-3.5827
X4.8583Y-3.6827
X4.8583Y-3.7827
X4.8583Y-3.8827
X4.8583Y-3.9827
X4.8583Y-4.0827
X4.8583Y-4.1827
X4.8583Y-4.2827
X4.8583Y-4.3827
X4.8583Y-4.4827
X4.8583Y-4.5827
X4.8583Y-4.6827
X4.8583Y-4.7827
X4.8583Y-4.8827
X4.8583Y-4.9827
X5.4583Y-3.0827
X5.4583Y-3.1827
X5.4583Y-3.2827
X5.4583Y-3.3827
X5.4583Y-3.4827
X5.4583Y-3.5827
X5.4583Y-3.6827
X5.4583Y-3.7827
X5.4583Y-3.8827
X5.4583Y-3.9827
X5.4583Y-4.0827
X5.4583Y-4.1827
X5.4583Y-4.2827
X5.4583Y-4.3827
X5.4583Y-4.4827
X5.4583Y-4.5827
X5.4583Y-4.6827
X5.4583Y-4.7827
X5.4583Y-4.8827
X5.4583Y-4.9827
X6.7583Y-3.9827
X6.8583Y-3.9827
X6.9583Y-3.9827
X7.0583Y-3.9827
X7.1583Y-3.9827
X7.2583Y-3.9827
T7
X5.8583Y-5.1827
X5.9583Y-5.1827
X6.0583Y-5.1827
X5.8024Y-4.1055
X5.8024Y-4.2827
X6.0583Y-4.1055
X6.0583Y-4.2827
T8
X6.2583Y-4.3327
X6.6583Y-4.3327
T6
G00X6.2811Y-5.0787
M15
G01X6.2811Y-5.1378
M16
G05
G00X6.4189Y-4.8327
M15
G01X6.4976Y-4.8327
M16
G05
G00X6.4327Y-5.0689
M15
G01X6.4839Y-5.0689
M16
G05
G00X6.6354Y-5.0787
M15
G01X6.6354Y-5.1378
M16
G05
T0
M30
