%FSLAX45Y45*%
G04 Gerber Fmt 4.5, Leading zero omitted, Abs format (unit mm)*
G04 Created by KiCad (PCBNEW (5.1.6)-1) date 2021-01-18 21:57:29*
%MOMM*%
%LPD*%
G01*
G04 APERTURE LIST*
%TA.AperFunction,Profile*%
%ADD10C,0.050000*%
%TD*%
%ADD11C,0.200000*%
%ADD12C,0.300000*%
G04 APERTURE END LIST*
D10*
X16565000Y-5245000D02*
X18910000Y-5245000D01*
X9810000Y-5245000D02*
X9810000Y-6229800D01*
X16565000Y-5245000D02*
X9810000Y-5245000D01*
X18910000Y-5745000D02*
X18910000Y-5245000D01*
X18910000Y-5745000D02*
X18910000Y-13745000D01*
X9810000Y-6229800D02*
X9810000Y-13730000D01*
X9810000Y-13730000D02*
X18910000Y-13745000D01*
D11*
X13336000Y-7810000D02*
X13376000Y-7850000D01*
X13376000Y-7810000D02*
X13336000Y-7850000D01*
X13590000Y-7810000D02*
X13630000Y-7850000D01*
X13630000Y-7810000D02*
X13590000Y-7850000D01*
X15241000Y-11175359D02*
X15281000Y-11215359D01*
X15281000Y-11175359D02*
X15241000Y-11215359D01*
X16739600Y-10654800D02*
X16779600Y-10694800D01*
X16779600Y-10654800D02*
X16739600Y-10694800D01*
X17400000Y-10477000D02*
X17440000Y-10517000D01*
X17440000Y-10477000D02*
X17400000Y-10517000D01*
X18533500Y-10359500D02*
X18573500Y-10399500D01*
X18573500Y-10359500D02*
X18533500Y-10399500D01*
X16107000Y-10116000D02*
G75*
G03*
X16107000Y-10116000I-30000J0D01*
G01*
X16307000Y-10116000D02*
G75*
G03*
X16307000Y-10116000I-30000J0D01*
G01*
X14753000Y-11732000D02*
X14753000Y-11802000D01*
X14718000Y-11767000D02*
X14788000Y-11767000D01*
X15261000Y-11732000D02*
X15261000Y-11802000D01*
X15226000Y-11767000D02*
X15296000Y-11767000D01*
X10689000Y-10081000D02*
X10689000Y-10151000D01*
X10654000Y-10116000D02*
X10724000Y-10116000D01*
X11197000Y-10081000D02*
X11197000Y-10151000D01*
X11162000Y-10116000D02*
X11232000Y-10116000D01*
X10689000Y-8938000D02*
X10689000Y-9008000D01*
X10654000Y-8973000D02*
X10724000Y-8973000D01*
X11197000Y-8938000D02*
X11197000Y-9008000D01*
X11162000Y-8973000D02*
X11232000Y-8973000D01*
X18436000Y-8811000D02*
X18436000Y-8881000D01*
X18401000Y-8846000D02*
X18471000Y-8846000D01*
X18436000Y-9319000D02*
X18436000Y-9389000D01*
X18401000Y-9354000D02*
X18471000Y-9354000D01*
X18436000Y-7414000D02*
X18436000Y-7484000D01*
X18401000Y-7449000D02*
X18471000Y-7449000D01*
X18436000Y-7922000D02*
X18436000Y-7992000D01*
X18401000Y-7957000D02*
X18471000Y-7957000D01*
X14753000Y-12113000D02*
X14753000Y-12183000D01*
X14718000Y-12148000D02*
X14788000Y-12148000D01*
X15261000Y-12113000D02*
X15261000Y-12183000D01*
X15226000Y-12148000D02*
X15296000Y-12148000D01*
X10689000Y-9319000D02*
X10689000Y-9389000D01*
X10654000Y-9354000D02*
X10724000Y-9354000D01*
X11197000Y-9319000D02*
X11197000Y-9389000D01*
X11162000Y-9354000D02*
X11232000Y-9354000D01*
X10689000Y-10589000D02*
X10689000Y-10659000D01*
X10654000Y-10624000D02*
X10724000Y-10624000D01*
X11197000Y-10589000D02*
X11197000Y-10659000D01*
X11162000Y-10624000D02*
X11232000Y-10624000D01*
X16404000Y-8811000D02*
X16404000Y-8881000D01*
X16369000Y-8846000D02*
X16439000Y-8846000D01*
X16404000Y-9319000D02*
X16404000Y-9389000D01*
X16369000Y-9354000D02*
X16439000Y-9354000D01*
X10689000Y-9700000D02*
X10689000Y-9770000D01*
X10654000Y-9735000D02*
X10724000Y-9735000D01*
X11197000Y-9700000D02*
X11197000Y-9770000D01*
X11162000Y-9735000D02*
X11232000Y-9735000D01*
X14753000Y-12494000D02*
X14753000Y-12564000D01*
X14718000Y-12529000D02*
X14788000Y-12529000D01*
X15261000Y-12494000D02*
X15261000Y-12564000D01*
X15226000Y-12529000D02*
X15296000Y-12529000D01*
X16912000Y-8811000D02*
X16912000Y-8881000D01*
X16877000Y-8846000D02*
X16947000Y-8846000D01*
X16912000Y-9319000D02*
X16912000Y-9389000D01*
X16877000Y-9354000D02*
X16947000Y-9354000D01*
X14880000Y-7414000D02*
X14880000Y-7484000D01*
X14845000Y-7449000D02*
X14915000Y-7449000D01*
X14880000Y-7922000D02*
X14880000Y-7992000D01*
X14845000Y-7957000D02*
X14915000Y-7957000D01*
X10689000Y-8176000D02*
X10689000Y-8246000D01*
X10654000Y-8211000D02*
X10724000Y-8211000D01*
X11197000Y-8176000D02*
X11197000Y-8246000D01*
X11162000Y-8211000D02*
X11232000Y-8211000D01*
X15896000Y-7414000D02*
X15896000Y-7484000D01*
X15861000Y-7449000D02*
X15931000Y-7449000D01*
X15896000Y-7922000D02*
X15896000Y-7992000D01*
X15861000Y-7957000D02*
X15931000Y-7957000D01*
X10689000Y-11859000D02*
X10689000Y-11929000D01*
X10654000Y-11894000D02*
X10724000Y-11894000D01*
X11197000Y-11859000D02*
X11197000Y-11929000D01*
X11162000Y-11894000D02*
X11232000Y-11894000D01*
X16912000Y-7414000D02*
X16912000Y-7484000D01*
X16877000Y-7449000D02*
X16947000Y-7449000D01*
X16912000Y-7922000D02*
X16912000Y-7992000D01*
X16877000Y-7957000D02*
X16947000Y-7957000D01*
X10689000Y-10970000D02*
X10689000Y-11040000D01*
X10654000Y-11005000D02*
X10724000Y-11005000D01*
X11197000Y-10970000D02*
X11197000Y-11040000D01*
X11162000Y-11005000D02*
X11232000Y-11005000D01*
X15388000Y-8811000D02*
X15388000Y-8881000D01*
X15353000Y-8846000D02*
X15423000Y-8846000D01*
X15388000Y-9319000D02*
X15388000Y-9389000D01*
X15353000Y-9354000D02*
X15423000Y-9354000D01*
X15388000Y-7414000D02*
X15388000Y-7484000D01*
X15353000Y-7449000D02*
X15423000Y-7449000D01*
X15388000Y-7922000D02*
X15388000Y-7992000D01*
X15353000Y-7957000D02*
X15423000Y-7957000D01*
X17420000Y-7414000D02*
X17420000Y-7484000D01*
X17385000Y-7449000D02*
X17455000Y-7449000D01*
X17420000Y-7922000D02*
X17420000Y-7992000D01*
X17385000Y-7957000D02*
X17455000Y-7957000D01*
X14753000Y-11351000D02*
X14753000Y-11421000D01*
X14718000Y-11386000D02*
X14788000Y-11386000D01*
X15261000Y-11351000D02*
X15261000Y-11421000D01*
X15226000Y-11386000D02*
X15296000Y-11386000D01*
X10689000Y-11478000D02*
X10689000Y-11548000D01*
X10654000Y-11513000D02*
X10724000Y-11513000D01*
X11197000Y-11478000D02*
X11197000Y-11548000D01*
X11162000Y-11513000D02*
X11232000Y-11513000D01*
X17928000Y-7414000D02*
X17928000Y-7484000D01*
X17893000Y-7449000D02*
X17963000Y-7449000D01*
X17928000Y-7922000D02*
X17928000Y-7992000D01*
X17893000Y-7957000D02*
X17963000Y-7957000D01*
X17420000Y-8811000D02*
X17420000Y-8881000D01*
X17385000Y-8846000D02*
X17455000Y-8846000D01*
X17420000Y-9319000D02*
X17420000Y-9389000D01*
X17385000Y-9354000D02*
X17455000Y-9354000D01*
X16404000Y-7414000D02*
X16404000Y-7484000D01*
X16369000Y-7449000D02*
X16439000Y-7449000D01*
X16404000Y-7922000D02*
X16404000Y-7992000D01*
X16369000Y-7957000D02*
X16439000Y-7957000D01*
X10689000Y-12748000D02*
X10689000Y-12818000D01*
X10654000Y-12783000D02*
X10724000Y-12783000D01*
X11197000Y-12748000D02*
X11197000Y-12818000D01*
X11162000Y-12783000D02*
X11232000Y-12783000D01*
X14880000Y-8811000D02*
X14880000Y-8881000D01*
X14845000Y-8846000D02*
X14915000Y-8846000D01*
X14880000Y-9319000D02*
X14880000Y-9389000D01*
X14845000Y-9354000D02*
X14915000Y-9354000D01*
X15896000Y-8811000D02*
X15896000Y-8881000D01*
X15861000Y-8846000D02*
X15931000Y-8846000D01*
X15896000Y-9319000D02*
X15896000Y-9389000D01*
X15861000Y-9354000D02*
X15931000Y-9354000D01*
X17928000Y-8811000D02*
X17928000Y-8881000D01*
X17893000Y-8846000D02*
X17963000Y-8846000D01*
X17928000Y-9319000D02*
X17928000Y-9389000D01*
X17893000Y-9354000D02*
X17963000Y-9354000D01*
X10689000Y-12367000D02*
X10689000Y-12437000D01*
X10654000Y-12402000D02*
X10724000Y-12402000D01*
X11197000Y-12367000D02*
X11197000Y-12437000D01*
X11162000Y-12402000D02*
X11232000Y-12402000D01*
X17448285Y-11033285D02*
X17448285Y-10976716D01*
X17391716Y-10976716D01*
X17391716Y-11033285D01*
X17448285Y-11033285D01*
X17448285Y-11287284D02*
X17448285Y-11230715D01*
X17391716Y-11230715D01*
X17391716Y-11287284D01*
X17448285Y-11287284D01*
X17448285Y-11541284D02*
X17448285Y-11484715D01*
X17391716Y-11484715D01*
X17391716Y-11541284D01*
X17448285Y-11541284D01*
X17448285Y-11795284D02*
X17448285Y-11738715D01*
X17391716Y-11738715D01*
X17391716Y-11795284D01*
X17448285Y-11795284D01*
X17448285Y-12049284D02*
X17448285Y-11992715D01*
X17391716Y-11992715D01*
X17391716Y-12049284D01*
X17448285Y-12049284D01*
X17448285Y-12303284D02*
X17448285Y-12246715D01*
X17391716Y-12246715D01*
X17391716Y-12303284D01*
X17448285Y-12303284D01*
X17448285Y-12557284D02*
X17448285Y-12500715D01*
X17391716Y-12500715D01*
X17391716Y-12557284D01*
X17448285Y-12557284D01*
X17448285Y-12811284D02*
X17448285Y-12754715D01*
X17391716Y-12754715D01*
X17391716Y-12811284D01*
X17448285Y-12811284D01*
X17448285Y-13065284D02*
X17448285Y-13008715D01*
X17391716Y-13008715D01*
X17391716Y-13065284D01*
X17448285Y-13065284D01*
X17448285Y-13319284D02*
X17448285Y-13262715D01*
X17391716Y-13262715D01*
X17391716Y-13319284D01*
X17448285Y-13319284D01*
X18210285Y-11033285D02*
X18210285Y-10976716D01*
X18153716Y-10976716D01*
X18153716Y-11033285D01*
X18210285Y-11033285D01*
X18210285Y-11287284D02*
X18210285Y-11230715D01*
X18153716Y-11230715D01*
X18153716Y-11287284D01*
X18210285Y-11287284D01*
X18210285Y-11541284D02*
X18210285Y-11484715D01*
X18153716Y-11484715D01*
X18153716Y-11541284D01*
X18210285Y-11541284D01*
X18210285Y-11795284D02*
X18210285Y-11738715D01*
X18153716Y-11738715D01*
X18153716Y-11795284D01*
X18210285Y-11795284D01*
X18210285Y-12049284D02*
X18210285Y-11992715D01*
X18153716Y-11992715D01*
X18153716Y-12049284D01*
X18210285Y-12049284D01*
X18210285Y-12303284D02*
X18210285Y-12246715D01*
X18153716Y-12246715D01*
X18153716Y-12303284D01*
X18210285Y-12303284D01*
X18210285Y-12557284D02*
X18210285Y-12500715D01*
X18153716Y-12500715D01*
X18153716Y-12557284D01*
X18210285Y-12557284D01*
X18210285Y-12811284D02*
X18210285Y-12754715D01*
X18153716Y-12754715D01*
X18153716Y-12811284D01*
X18210285Y-12811284D01*
X18210285Y-13065284D02*
X18210285Y-13008715D01*
X18153716Y-13008715D01*
X18153716Y-13065284D01*
X18210285Y-13065284D01*
X18210285Y-13319284D02*
X18210285Y-13262715D01*
X18153716Y-13262715D01*
X18153716Y-13319284D01*
X18210285Y-13319284D01*
X11578000Y-8129000D02*
X11623000Y-8084000D01*
X11578000Y-8039000D01*
X11533000Y-8084000D01*
X11578000Y-8129000D01*
X11578000Y-8383000D02*
X11623000Y-8338000D01*
X11578000Y-8293000D01*
X11533000Y-8338000D01*
X11578000Y-8383000D01*
X17420000Y-6859000D02*
X17465000Y-6814000D01*
X17420000Y-6769000D01*
X17375000Y-6814000D01*
X17420000Y-6859000D01*
X17420000Y-7113000D02*
X17465000Y-7068000D01*
X17420000Y-7023000D01*
X17375000Y-7068000D01*
X17420000Y-7113000D01*
X18436000Y-8383000D02*
X18481000Y-8338000D01*
X18436000Y-8293000D01*
X18391000Y-8338000D01*
X18436000Y-8383000D01*
X18436000Y-8637000D02*
X18481000Y-8592000D01*
X18436000Y-8547000D01*
X18391000Y-8592000D01*
X18436000Y-8637000D01*
X17928000Y-8383000D02*
X17973000Y-8338000D01*
X17928000Y-8293000D01*
X17883000Y-8338000D01*
X17928000Y-8383000D01*
X17928000Y-8637000D02*
X17973000Y-8592000D01*
X17928000Y-8547000D01*
X17883000Y-8592000D01*
X17928000Y-8637000D01*
X15388000Y-6859000D02*
X15433000Y-6814000D01*
X15388000Y-6769000D01*
X15343000Y-6814000D01*
X15388000Y-6859000D01*
X15388000Y-7113000D02*
X15433000Y-7068000D01*
X15388000Y-7023000D01*
X15343000Y-7068000D01*
X15388000Y-7113000D01*
X16912000Y-8383000D02*
X16957000Y-8338000D01*
X16912000Y-8293000D01*
X16867000Y-8338000D01*
X16912000Y-8383000D01*
X16912000Y-8637000D02*
X16957000Y-8592000D01*
X16912000Y-8547000D01*
X16867000Y-8592000D01*
X16912000Y-8637000D01*
X17420000Y-8383000D02*
X17465000Y-8338000D01*
X17420000Y-8293000D01*
X17375000Y-8338000D01*
X17420000Y-8383000D01*
X17420000Y-8637000D02*
X17465000Y-8592000D01*
X17420000Y-8547000D01*
X17375000Y-8592000D01*
X17420000Y-8637000D01*
X15896000Y-8383000D02*
X15941000Y-8338000D01*
X15896000Y-8293000D01*
X15851000Y-8338000D01*
X15896000Y-8383000D01*
X15896000Y-8637000D02*
X15941000Y-8592000D01*
X15896000Y-8547000D01*
X15851000Y-8592000D01*
X15896000Y-8637000D01*
X16404000Y-6859000D02*
X16449000Y-6814000D01*
X16404000Y-6769000D01*
X16359000Y-6814000D01*
X16404000Y-6859000D01*
X16404000Y-7113000D02*
X16449000Y-7068000D01*
X16404000Y-7023000D01*
X16359000Y-7068000D01*
X16404000Y-7113000D01*
X15388000Y-8383000D02*
X15433000Y-8338000D01*
X15388000Y-8293000D01*
X15343000Y-8338000D01*
X15388000Y-8383000D01*
X15388000Y-8637000D02*
X15433000Y-8592000D01*
X15388000Y-8547000D01*
X15343000Y-8592000D01*
X15388000Y-8637000D01*
X14880000Y-8383000D02*
X14925000Y-8338000D01*
X14880000Y-8293000D01*
X14835000Y-8338000D01*
X14880000Y-8383000D01*
X14880000Y-8637000D02*
X14925000Y-8592000D01*
X14880000Y-8547000D01*
X14835000Y-8592000D01*
X14880000Y-8637000D01*
X17928000Y-6859000D02*
X17973000Y-6814000D01*
X17928000Y-6769000D01*
X17883000Y-6814000D01*
X17928000Y-6859000D01*
X17928000Y-7113000D02*
X17973000Y-7068000D01*
X17928000Y-7023000D01*
X17883000Y-7068000D01*
X17928000Y-7113000D01*
X15896000Y-6859000D02*
X15941000Y-6814000D01*
X15896000Y-6769000D01*
X15851000Y-6814000D01*
X15896000Y-6859000D01*
X15896000Y-7113000D02*
X15941000Y-7068000D01*
X15896000Y-7023000D01*
X15851000Y-7068000D01*
X15896000Y-7113000D01*
X16912000Y-6859000D02*
X16957000Y-6814000D01*
X16912000Y-6769000D01*
X16867000Y-6814000D01*
X16912000Y-6859000D01*
X16912000Y-7113000D02*
X16957000Y-7068000D01*
X16912000Y-7023000D01*
X16867000Y-7068000D01*
X16912000Y-7113000D01*
X16404000Y-8383000D02*
X16449000Y-8338000D01*
X16404000Y-8293000D01*
X16359000Y-8338000D01*
X16404000Y-8383000D01*
X16404000Y-8637000D02*
X16449000Y-8592000D01*
X16404000Y-8547000D01*
X16359000Y-8592000D01*
X16404000Y-8637000D01*
X18436000Y-6859000D02*
X18481000Y-6814000D01*
X18436000Y-6769000D01*
X18391000Y-6814000D01*
X18436000Y-6859000D01*
X18436000Y-7113000D02*
X18481000Y-7068000D01*
X18436000Y-7023000D01*
X18391000Y-7068000D01*
X18436000Y-7113000D01*
X14880000Y-6859000D02*
X14925000Y-6814000D01*
X14880000Y-6769000D01*
X14835000Y-6814000D01*
X14880000Y-6859000D01*
X14880000Y-7113000D02*
X14925000Y-7068000D01*
X14880000Y-7023000D01*
X14835000Y-7068000D01*
X14880000Y-7113000D01*
X15904000Y-12925000D02*
X16004000Y-13025000D01*
X16004000Y-12925000D02*
X15904000Y-13025000D01*
X16004000Y-12975000D02*
G75*
G03*
X16004000Y-12975000I-50000J0D01*
G01*
X15914000Y-12900000D02*
X15914000Y-13050000D01*
X15994000Y-12900000D02*
X15994000Y-13050000D01*
X15914000Y-13050000D02*
G75*
G03*
X15994000Y-13050000I40000J0D01*
G01*
X15994000Y-12900000D02*
G75*
G03*
X15914000Y-12900000I-40000J0D01*
G01*
X16354000Y-12225000D02*
X16454000Y-12325000D01*
X16454000Y-12225000D02*
X16354000Y-12325000D01*
X16454000Y-12275000D02*
G75*
G03*
X16454000Y-12275000I-50000J0D01*
G01*
X16304000Y-12315000D02*
X16504000Y-12315000D01*
X16304000Y-12235000D02*
X16504000Y-12235000D01*
X16504000Y-12315000D02*
G75*
G03*
X16504000Y-12235000I0J40000D01*
G01*
X16304000Y-12235000D02*
G75*
G03*
X16304000Y-12315000I0J-40000D01*
G01*
X16354000Y-12825000D02*
X16454000Y-12925000D01*
X16454000Y-12825000D02*
X16354000Y-12925000D01*
X16454000Y-12875000D02*
G75*
G03*
X16454000Y-12875000I-50000J0D01*
G01*
X16339000Y-12915000D02*
X16469000Y-12915000D01*
X16339000Y-12835000D02*
X16469000Y-12835000D01*
X16469000Y-12915000D02*
G75*
G03*
X16469000Y-12835000I0J40000D01*
G01*
X16339000Y-12835000D02*
G75*
G03*
X16339000Y-12915000I0J-40000D01*
G01*
X16804000Y-12925000D02*
X16904000Y-13025000D01*
X16904000Y-12925000D02*
X16804000Y-13025000D01*
X16904000Y-12975000D02*
G75*
G03*
X16904000Y-12975000I-50000J0D01*
G01*
X16814000Y-12900000D02*
X16814000Y-13050000D01*
X16894000Y-12900000D02*
X16894000Y-13050000D01*
X16814000Y-13050000D02*
G75*
G03*
X16894000Y-13050000I40000J0D01*
G01*
X16894000Y-12900000D02*
G75*
G03*
X16814000Y-12900000I-40000J0D01*
G01*
X12290000Y-7780000D02*
X12390000Y-7880000D01*
X12390000Y-7780000D02*
X12290000Y-7880000D01*
X12390000Y-7830000D02*
G75*
G03*
X12390000Y-7830000I-50000J0D01*
G01*
X12290000Y-8034000D02*
X12390000Y-8134000D01*
X12390000Y-8034000D02*
X12290000Y-8134000D01*
X12390000Y-8084000D02*
G75*
G03*
X12390000Y-8084000I-50000J0D01*
G01*
X12290000Y-8288000D02*
X12390000Y-8388000D01*
X12390000Y-8288000D02*
X12290000Y-8388000D01*
X12390000Y-8338000D02*
G75*
G03*
X12390000Y-8338000I-50000J0D01*
G01*
X12290000Y-8542000D02*
X12390000Y-8642000D01*
X12390000Y-8542000D02*
X12290000Y-8642000D01*
X12390000Y-8592000D02*
G75*
G03*
X12390000Y-8592000I-50000J0D01*
G01*
X12290000Y-8796000D02*
X12390000Y-8896000D01*
X12390000Y-8796000D02*
X12290000Y-8896000D01*
X12390000Y-8846000D02*
G75*
G03*
X12390000Y-8846000I-50000J0D01*
G01*
X12290000Y-9050000D02*
X12390000Y-9150000D01*
X12390000Y-9050000D02*
X12290000Y-9150000D01*
X12390000Y-9100000D02*
G75*
G03*
X12390000Y-9100000I-50000J0D01*
G01*
X12290000Y-9304000D02*
X12390000Y-9404000D01*
X12390000Y-9304000D02*
X12290000Y-9404000D01*
X12390000Y-9354000D02*
G75*
G03*
X12390000Y-9354000I-50000J0D01*
G01*
X12290000Y-9558000D02*
X12390000Y-9658000D01*
X12390000Y-9558000D02*
X12290000Y-9658000D01*
X12390000Y-9608000D02*
G75*
G03*
X12390000Y-9608000I-50000J0D01*
G01*
X12290000Y-9812000D02*
X12390000Y-9912000D01*
X12390000Y-9812000D02*
X12290000Y-9912000D01*
X12390000Y-9862000D02*
G75*
G03*
X12390000Y-9862000I-50000J0D01*
G01*
X12290000Y-10066000D02*
X12390000Y-10166000D01*
X12390000Y-10066000D02*
X12290000Y-10166000D01*
X12390000Y-10116000D02*
G75*
G03*
X12390000Y-10116000I-50000J0D01*
G01*
X12290000Y-10320000D02*
X12390000Y-10420000D01*
X12390000Y-10320000D02*
X12290000Y-10420000D01*
X12390000Y-10370000D02*
G75*
G03*
X12390000Y-10370000I-50000J0D01*
G01*
X12290000Y-10574000D02*
X12390000Y-10674000D01*
X12390000Y-10574000D02*
X12290000Y-10674000D01*
X12390000Y-10624000D02*
G75*
G03*
X12390000Y-10624000I-50000J0D01*
G01*
X12290000Y-10828000D02*
X12390000Y-10928000D01*
X12390000Y-10828000D02*
X12290000Y-10928000D01*
X12390000Y-10878000D02*
G75*
G03*
X12390000Y-10878000I-50000J0D01*
G01*
X12290000Y-11082000D02*
X12390000Y-11182000D01*
X12390000Y-11082000D02*
X12290000Y-11182000D01*
X12390000Y-11132000D02*
G75*
G03*
X12390000Y-11132000I-50000J0D01*
G01*
X12290000Y-11336000D02*
X12390000Y-11436000D01*
X12390000Y-11336000D02*
X12290000Y-11436000D01*
X12390000Y-11386000D02*
G75*
G03*
X12390000Y-11386000I-50000J0D01*
G01*
X12290000Y-11590000D02*
X12390000Y-11690000D01*
X12390000Y-11590000D02*
X12290000Y-11690000D01*
X12390000Y-11640000D02*
G75*
G03*
X12390000Y-11640000I-50000J0D01*
G01*
X12290000Y-11844000D02*
X12390000Y-11944000D01*
X12390000Y-11844000D02*
X12290000Y-11944000D01*
X12390000Y-11894000D02*
G75*
G03*
X12390000Y-11894000I-50000J0D01*
G01*
X12290000Y-12098000D02*
X12390000Y-12198000D01*
X12390000Y-12098000D02*
X12290000Y-12198000D01*
X12390000Y-12148000D02*
G75*
G03*
X12390000Y-12148000I-50000J0D01*
G01*
X12290000Y-12352000D02*
X12390000Y-12452000D01*
X12390000Y-12352000D02*
X12290000Y-12452000D01*
X12390000Y-12402000D02*
G75*
G03*
X12390000Y-12402000I-50000J0D01*
G01*
X12290000Y-12606000D02*
X12390000Y-12706000D01*
X12390000Y-12606000D02*
X12290000Y-12706000D01*
X12390000Y-12656000D02*
G75*
G03*
X12390000Y-12656000I-50000J0D01*
G01*
X13814000Y-7780000D02*
X13914000Y-7880000D01*
X13914000Y-7780000D02*
X13814000Y-7880000D01*
X13914000Y-7830000D02*
G75*
G03*
X13914000Y-7830000I-50000J0D01*
G01*
X13814000Y-8034000D02*
X13914000Y-8134000D01*
X13914000Y-8034000D02*
X13814000Y-8134000D01*
X13914000Y-8084000D02*
G75*
G03*
X13914000Y-8084000I-50000J0D01*
G01*
X13814000Y-8288000D02*
X13914000Y-8388000D01*
X13914000Y-8288000D02*
X13814000Y-8388000D01*
X13914000Y-8338000D02*
G75*
G03*
X13914000Y-8338000I-50000J0D01*
G01*
X13814000Y-8542000D02*
X13914000Y-8642000D01*
X13914000Y-8542000D02*
X13814000Y-8642000D01*
X13914000Y-8592000D02*
G75*
G03*
X13914000Y-8592000I-50000J0D01*
G01*
X13814000Y-8796000D02*
X13914000Y-8896000D01*
X13914000Y-8796000D02*
X13814000Y-8896000D01*
X13914000Y-8846000D02*
G75*
G03*
X13914000Y-8846000I-50000J0D01*
G01*
X13814000Y-9050000D02*
X13914000Y-9150000D01*
X13914000Y-9050000D02*
X13814000Y-9150000D01*
X13914000Y-9100000D02*
G75*
G03*
X13914000Y-9100000I-50000J0D01*
G01*
X13814000Y-9304000D02*
X13914000Y-9404000D01*
X13914000Y-9304000D02*
X13814000Y-9404000D01*
X13914000Y-9354000D02*
G75*
G03*
X13914000Y-9354000I-50000J0D01*
G01*
X13814000Y-9558000D02*
X13914000Y-9658000D01*
X13914000Y-9558000D02*
X13814000Y-9658000D01*
X13914000Y-9608000D02*
G75*
G03*
X13914000Y-9608000I-50000J0D01*
G01*
X13814000Y-9812000D02*
X13914000Y-9912000D01*
X13914000Y-9812000D02*
X13814000Y-9912000D01*
X13914000Y-9862000D02*
G75*
G03*
X13914000Y-9862000I-50000J0D01*
G01*
X13814000Y-10066000D02*
X13914000Y-10166000D01*
X13914000Y-10066000D02*
X13814000Y-10166000D01*
X13914000Y-10116000D02*
G75*
G03*
X13914000Y-10116000I-50000J0D01*
G01*
X13814000Y-10320000D02*
X13914000Y-10420000D01*
X13914000Y-10320000D02*
X13814000Y-10420000D01*
X13914000Y-10370000D02*
G75*
G03*
X13914000Y-10370000I-50000J0D01*
G01*
X13814000Y-10574000D02*
X13914000Y-10674000D01*
X13914000Y-10574000D02*
X13814000Y-10674000D01*
X13914000Y-10624000D02*
G75*
G03*
X13914000Y-10624000I-50000J0D01*
G01*
X13814000Y-10828000D02*
X13914000Y-10928000D01*
X13914000Y-10828000D02*
X13814000Y-10928000D01*
X13914000Y-10878000D02*
G75*
G03*
X13914000Y-10878000I-50000J0D01*
G01*
X13814000Y-11082000D02*
X13914000Y-11182000D01*
X13914000Y-11082000D02*
X13814000Y-11182000D01*
X13914000Y-11132000D02*
G75*
G03*
X13914000Y-11132000I-50000J0D01*
G01*
X13814000Y-11336000D02*
X13914000Y-11436000D01*
X13914000Y-11336000D02*
X13814000Y-11436000D01*
X13914000Y-11386000D02*
G75*
G03*
X13914000Y-11386000I-50000J0D01*
G01*
X13814000Y-11590000D02*
X13914000Y-11690000D01*
X13914000Y-11590000D02*
X13814000Y-11690000D01*
X13914000Y-11640000D02*
G75*
G03*
X13914000Y-11640000I-50000J0D01*
G01*
X13814000Y-11844000D02*
X13914000Y-11944000D01*
X13914000Y-11844000D02*
X13814000Y-11944000D01*
X13914000Y-11894000D02*
G75*
G03*
X13914000Y-11894000I-50000J0D01*
G01*
X13814000Y-12098000D02*
X13914000Y-12198000D01*
X13914000Y-12098000D02*
X13814000Y-12198000D01*
X13914000Y-12148000D02*
G75*
G03*
X13914000Y-12148000I-50000J0D01*
G01*
X13814000Y-12352000D02*
X13914000Y-12452000D01*
X13914000Y-12352000D02*
X13814000Y-12452000D01*
X13914000Y-12402000D02*
G75*
G03*
X13914000Y-12402000I-50000J0D01*
G01*
X13814000Y-12606000D02*
X13914000Y-12706000D01*
X13914000Y-12606000D02*
X13814000Y-12706000D01*
X13914000Y-12656000D02*
G75*
G03*
X13914000Y-12656000I-50000J0D01*
G01*
X17116000Y-10066000D02*
X17216000Y-10166000D01*
X17216000Y-10066000D02*
X17116000Y-10166000D01*
X17216000Y-10116000D02*
G75*
G03*
X17216000Y-10116000I-50000J0D01*
G01*
X17370000Y-10066000D02*
X17470000Y-10166000D01*
X17470000Y-10066000D02*
X17370000Y-10166000D01*
X17470000Y-10116000D02*
G75*
G03*
X17470000Y-10116000I-50000J0D01*
G01*
X17624000Y-10066000D02*
X17724000Y-10166000D01*
X17724000Y-10066000D02*
X17624000Y-10166000D01*
X17724000Y-10116000D02*
G75*
G03*
X17724000Y-10116000I-50000J0D01*
G01*
X17878000Y-10066000D02*
X17978000Y-10166000D01*
X17978000Y-10066000D02*
X17878000Y-10166000D01*
X17978000Y-10116000D02*
G75*
G03*
X17978000Y-10116000I-50000J0D01*
G01*
X18132000Y-10066000D02*
X18232000Y-10166000D01*
X18232000Y-10066000D02*
X18132000Y-10166000D01*
X18232000Y-10116000D02*
G75*
G03*
X18232000Y-10116000I-50000J0D01*
G01*
X18386000Y-10066000D02*
X18486000Y-10166000D01*
X18486000Y-10066000D02*
X18386000Y-10166000D01*
X18486000Y-10116000D02*
G75*
G03*
X18486000Y-10116000I-50000J0D01*
G01*
X14825000Y-13109000D02*
X14935000Y-13219000D01*
X14935000Y-13109000D02*
X14825000Y-13219000D01*
X14880000Y-13109000D02*
X14880000Y-13219000D01*
X14825000Y-13164000D02*
X14935000Y-13164000D01*
X15079000Y-13109000D02*
X15189000Y-13219000D01*
X15189000Y-13109000D02*
X15079000Y-13219000D01*
X15134000Y-13109000D02*
X15134000Y-13219000D01*
X15079000Y-13164000D02*
X15189000Y-13164000D01*
X15333000Y-13109000D02*
X15443000Y-13219000D01*
X15443000Y-13109000D02*
X15333000Y-13219000D01*
X15388000Y-13109000D02*
X15388000Y-13219000D01*
X15333000Y-13164000D02*
X15443000Y-13164000D01*
X14683000Y-10373000D02*
X14793000Y-10483000D01*
X14793000Y-10373000D02*
X14683000Y-10483000D01*
X14738000Y-10373000D02*
X14738000Y-10483000D01*
X14683000Y-10428000D02*
X14793000Y-10428000D01*
X14683000Y-10823000D02*
X14793000Y-10933000D01*
X14793000Y-10823000D02*
X14683000Y-10933000D01*
X14738000Y-10823000D02*
X14738000Y-10933000D01*
X14683000Y-10878000D02*
X14793000Y-10878000D01*
X15333000Y-10373000D02*
X15443000Y-10483000D01*
X15443000Y-10373000D02*
X15333000Y-10483000D01*
X15388000Y-10373000D02*
X15388000Y-10483000D01*
X15333000Y-10428000D02*
X15443000Y-10428000D01*
X15333000Y-10823000D02*
X15443000Y-10933000D01*
X15443000Y-10823000D02*
X15333000Y-10933000D01*
X15388000Y-10823000D02*
X15388000Y-10933000D01*
X15333000Y-10878000D02*
X15443000Y-10878000D01*
X15836000Y-10945000D02*
X15956000Y-11065000D01*
X15956000Y-10945000D02*
X15836000Y-11065000D01*
X15938427Y-11047427D02*
X15938427Y-10962573D01*
X15853573Y-10962573D01*
X15853573Y-11047427D01*
X15938427Y-11047427D01*
X16852000Y-10945000D02*
X16972000Y-11065000D01*
X16972000Y-10945000D02*
X16852000Y-11065000D01*
X16954427Y-11047427D02*
X16954427Y-10962573D01*
X16869573Y-10962573D01*
X16869573Y-11047427D01*
X16954427Y-11047427D01*
D12*
X10093928Y-14213214D02*
X10093928Y-13913214D01*
X10165357Y-13913214D01*
X10208214Y-13927500D01*
X10236786Y-13956071D01*
X10251071Y-13984643D01*
X10265357Y-14041786D01*
X10265357Y-14084643D01*
X10251071Y-14141786D01*
X10236786Y-14170357D01*
X10208214Y-14198929D01*
X10165357Y-14213214D01*
X10093928Y-14213214D01*
X10393928Y-14213214D02*
X10393928Y-14013214D01*
X10393928Y-14070357D02*
X10408214Y-14041786D01*
X10422500Y-14027500D01*
X10451071Y-14013214D01*
X10479643Y-14013214D01*
X10579643Y-14213214D02*
X10579643Y-14013214D01*
X10579643Y-13913214D02*
X10565357Y-13927500D01*
X10579643Y-13941786D01*
X10593928Y-13927500D01*
X10579643Y-13913214D01*
X10579643Y-13941786D01*
X10765357Y-14213214D02*
X10736786Y-14198929D01*
X10722500Y-14170357D01*
X10722500Y-13913214D01*
X10922500Y-14213214D02*
X10893928Y-14198929D01*
X10879643Y-14170357D01*
X10879643Y-13913214D01*
X11265357Y-14213214D02*
X11265357Y-13913214D01*
X11365357Y-14127500D01*
X11465357Y-13913214D01*
X11465357Y-14213214D01*
X11736786Y-14213214D02*
X11736786Y-14056071D01*
X11722500Y-14027500D01*
X11693928Y-14013214D01*
X11636786Y-14013214D01*
X11608214Y-14027500D01*
X11736786Y-14198929D02*
X11708214Y-14213214D01*
X11636786Y-14213214D01*
X11608214Y-14198929D01*
X11593928Y-14170357D01*
X11593928Y-14141786D01*
X11608214Y-14113214D01*
X11636786Y-14098929D01*
X11708214Y-14098929D01*
X11736786Y-14084643D01*
X11879643Y-14013214D02*
X11879643Y-14313214D01*
X11879643Y-14027500D02*
X11908214Y-14013214D01*
X11965357Y-14013214D01*
X11993928Y-14027500D01*
X12008214Y-14041786D01*
X12022500Y-14070357D01*
X12022500Y-14156071D01*
X12008214Y-14184643D01*
X11993928Y-14198929D01*
X11965357Y-14213214D01*
X11908214Y-14213214D01*
X11879643Y-14198929D01*
X12151071Y-14184643D02*
X12165357Y-14198929D01*
X12151071Y-14213214D01*
X12136786Y-14198929D01*
X12151071Y-14184643D01*
X12151071Y-14213214D01*
X12151071Y-14027500D02*
X12165357Y-14041786D01*
X12151071Y-14056071D01*
X12136786Y-14041786D01*
X12151071Y-14027500D01*
X12151071Y-14056071D01*
X9767500Y-14687500D02*
X9807500Y-14727500D01*
X9807500Y-14687500D02*
X9767500Y-14727500D01*
X10151071Y-14543214D02*
X10179643Y-14543214D01*
X10208214Y-14557500D01*
X10222500Y-14571786D01*
X10236786Y-14600357D01*
X10251071Y-14657500D01*
X10251071Y-14728929D01*
X10236786Y-14786071D01*
X10222500Y-14814643D01*
X10208214Y-14828929D01*
X10179643Y-14843214D01*
X10151071Y-14843214D01*
X10122500Y-14828929D01*
X10108214Y-14814643D01*
X10093928Y-14786071D01*
X10079643Y-14728929D01*
X10079643Y-14657500D01*
X10093928Y-14600357D01*
X10108214Y-14571786D01*
X10122500Y-14557500D01*
X10151071Y-14543214D01*
X10379643Y-14814643D02*
X10393928Y-14828929D01*
X10379643Y-14843214D01*
X10365357Y-14828929D01*
X10379643Y-14814643D01*
X10379643Y-14843214D01*
X10651071Y-14643214D02*
X10651071Y-14843214D01*
X10579643Y-14528929D02*
X10508214Y-14743214D01*
X10693928Y-14743214D01*
X10865357Y-14543214D02*
X10893928Y-14543214D01*
X10922500Y-14557500D01*
X10936786Y-14571786D01*
X10951071Y-14600357D01*
X10965357Y-14657500D01*
X10965357Y-14728929D01*
X10951071Y-14786071D01*
X10936786Y-14814643D01*
X10922500Y-14828929D01*
X10893928Y-14843214D01*
X10865357Y-14843214D01*
X10836786Y-14828929D01*
X10822500Y-14814643D01*
X10808214Y-14786071D01*
X10793928Y-14728929D01*
X10793928Y-14657500D01*
X10808214Y-14600357D01*
X10822500Y-14571786D01*
X10836786Y-14557500D01*
X10865357Y-14543214D01*
X11093928Y-14843214D02*
X11093928Y-14643214D01*
X11093928Y-14671786D02*
X11108214Y-14657500D01*
X11136786Y-14643214D01*
X11179643Y-14643214D01*
X11208214Y-14657500D01*
X11222500Y-14686071D01*
X11222500Y-14843214D01*
X11222500Y-14686071D02*
X11236786Y-14657500D01*
X11265357Y-14643214D01*
X11308214Y-14643214D01*
X11336786Y-14657500D01*
X11351071Y-14686071D01*
X11351071Y-14843214D01*
X11493928Y-14843214D02*
X11493928Y-14643214D01*
X11493928Y-14671786D02*
X11508214Y-14657500D01*
X11536786Y-14643214D01*
X11579643Y-14643214D01*
X11608214Y-14657500D01*
X11622500Y-14686071D01*
X11622500Y-14843214D01*
X11622500Y-14686071D02*
X11636786Y-14657500D01*
X11665357Y-14643214D01*
X11708214Y-14643214D01*
X11736786Y-14657500D01*
X11751071Y-14686071D01*
X11751071Y-14843214D01*
X12336786Y-14528929D02*
X12079643Y-14914643D01*
X12722500Y-14543214D02*
X12751071Y-14543214D01*
X12779643Y-14557500D01*
X12793928Y-14571786D01*
X12808214Y-14600357D01*
X12822500Y-14657500D01*
X12822500Y-14728929D01*
X12808214Y-14786071D01*
X12793928Y-14814643D01*
X12779643Y-14828929D01*
X12751071Y-14843214D01*
X12722500Y-14843214D01*
X12693928Y-14828929D01*
X12679643Y-14814643D01*
X12665357Y-14786071D01*
X12651071Y-14728929D01*
X12651071Y-14657500D01*
X12665357Y-14600357D01*
X12679643Y-14571786D01*
X12693928Y-14557500D01*
X12722500Y-14543214D01*
X12951071Y-14814643D02*
X12965357Y-14828929D01*
X12951071Y-14843214D01*
X12936786Y-14828929D01*
X12951071Y-14814643D01*
X12951071Y-14843214D01*
X13151071Y-14543214D02*
X13179643Y-14543214D01*
X13208214Y-14557500D01*
X13222500Y-14571786D01*
X13236786Y-14600357D01*
X13251071Y-14657500D01*
X13251071Y-14728929D01*
X13236786Y-14786071D01*
X13222500Y-14814643D01*
X13208214Y-14828929D01*
X13179643Y-14843214D01*
X13151071Y-14843214D01*
X13122500Y-14828929D01*
X13108214Y-14814643D01*
X13093928Y-14786071D01*
X13079643Y-14728929D01*
X13079643Y-14657500D01*
X13093928Y-14600357D01*
X13108214Y-14571786D01*
X13122500Y-14557500D01*
X13151071Y-14543214D01*
X13536786Y-14843214D02*
X13365357Y-14843214D01*
X13451071Y-14843214D02*
X13451071Y-14543214D01*
X13422500Y-14586071D01*
X13393928Y-14614643D01*
X13365357Y-14628929D01*
X13793928Y-14543214D02*
X13736786Y-14543214D01*
X13708214Y-14557500D01*
X13693928Y-14571786D01*
X13665357Y-14614643D01*
X13651071Y-14671786D01*
X13651071Y-14786071D01*
X13665357Y-14814643D01*
X13679643Y-14828929D01*
X13708214Y-14843214D01*
X13765357Y-14843214D01*
X13793928Y-14828929D01*
X13808214Y-14814643D01*
X13822500Y-14786071D01*
X13822500Y-14714643D01*
X13808214Y-14686071D01*
X13793928Y-14671786D01*
X13765357Y-14657500D01*
X13708214Y-14657500D01*
X13679643Y-14671786D01*
X13665357Y-14686071D01*
X13651071Y-14714643D01*
X13936786Y-14543214D02*
X13936786Y-14600357D01*
X14051071Y-14543214D02*
X14051071Y-14600357D01*
X14493928Y-14957500D02*
X14479643Y-14943214D01*
X14451071Y-14900357D01*
X14436786Y-14871786D01*
X14422500Y-14828929D01*
X14408214Y-14757500D01*
X14408214Y-14700357D01*
X14422500Y-14628929D01*
X14436786Y-14586071D01*
X14451071Y-14557500D01*
X14479643Y-14514643D01*
X14493928Y-14500357D01*
X14736786Y-14543214D02*
X14679643Y-14543214D01*
X14651071Y-14557500D01*
X14636786Y-14571786D01*
X14608214Y-14614643D01*
X14593928Y-14671786D01*
X14593928Y-14786071D01*
X14608214Y-14814643D01*
X14622500Y-14828929D01*
X14651071Y-14843214D01*
X14708214Y-14843214D01*
X14736786Y-14828929D01*
X14751071Y-14814643D01*
X14765357Y-14786071D01*
X14765357Y-14714643D01*
X14751071Y-14686071D01*
X14736786Y-14671786D01*
X14708214Y-14657500D01*
X14651071Y-14657500D01*
X14622500Y-14671786D01*
X14608214Y-14686071D01*
X14593928Y-14714643D01*
X15122500Y-14843214D02*
X15122500Y-14543214D01*
X15251071Y-14843214D02*
X15251071Y-14686071D01*
X15236786Y-14657500D01*
X15208214Y-14643214D01*
X15165357Y-14643214D01*
X15136786Y-14657500D01*
X15122500Y-14671786D01*
X15436786Y-14843214D02*
X15408214Y-14828929D01*
X15393928Y-14814643D01*
X15379643Y-14786071D01*
X15379643Y-14700357D01*
X15393928Y-14671786D01*
X15408214Y-14657500D01*
X15436786Y-14643214D01*
X15479643Y-14643214D01*
X15508214Y-14657500D01*
X15522500Y-14671786D01*
X15536786Y-14700357D01*
X15536786Y-14786071D01*
X15522500Y-14814643D01*
X15508214Y-14828929D01*
X15479643Y-14843214D01*
X15436786Y-14843214D01*
X15708214Y-14843214D02*
X15679643Y-14828929D01*
X15665357Y-14800357D01*
X15665357Y-14543214D01*
X15936786Y-14828929D02*
X15908214Y-14843214D01*
X15851071Y-14843214D01*
X15822500Y-14828929D01*
X15808214Y-14800357D01*
X15808214Y-14686071D01*
X15822500Y-14657500D01*
X15851071Y-14643214D01*
X15908214Y-14643214D01*
X15936786Y-14657500D01*
X15951071Y-14686071D01*
X15951071Y-14714643D01*
X15808214Y-14743214D01*
X16065357Y-14828929D02*
X16093928Y-14843214D01*
X16151071Y-14843214D01*
X16179643Y-14828929D01*
X16193928Y-14800357D01*
X16193928Y-14786071D01*
X16179643Y-14757500D01*
X16151071Y-14743214D01*
X16108214Y-14743214D01*
X16079643Y-14728929D01*
X16065357Y-14700357D01*
X16065357Y-14686071D01*
X16079643Y-14657500D01*
X16108214Y-14643214D01*
X16151071Y-14643214D01*
X16179643Y-14657500D01*
X16293928Y-14957500D02*
X16308214Y-14943214D01*
X16336786Y-14900357D01*
X16351071Y-14871786D01*
X16365357Y-14828929D01*
X16379643Y-14757500D01*
X16379643Y-14700357D01*
X16365357Y-14628929D01*
X16351071Y-14586071D01*
X16336786Y-14557500D01*
X16308214Y-14514643D01*
X16293928Y-14500357D01*
X9807500Y-15103500D02*
G75*
G03*
X9807500Y-15103500I-30000J0D01*
G01*
X10151071Y-14939214D02*
X10179643Y-14939214D01*
X10208214Y-14953500D01*
X10222500Y-14967786D01*
X10236786Y-14996357D01*
X10251071Y-15053500D01*
X10251071Y-15124929D01*
X10236786Y-15182071D01*
X10222500Y-15210643D01*
X10208214Y-15224929D01*
X10179643Y-15239214D01*
X10151071Y-15239214D01*
X10122500Y-15224929D01*
X10108214Y-15210643D01*
X10093928Y-15182071D01*
X10079643Y-15124929D01*
X10079643Y-15053500D01*
X10093928Y-14996357D01*
X10108214Y-14967786D01*
X10122500Y-14953500D01*
X10151071Y-14939214D01*
X10379643Y-15210643D02*
X10393928Y-15224929D01*
X10379643Y-15239214D01*
X10365357Y-15224929D01*
X10379643Y-15210643D01*
X10379643Y-15239214D01*
X10651071Y-14939214D02*
X10593928Y-14939214D01*
X10565357Y-14953500D01*
X10551071Y-14967786D01*
X10522500Y-15010643D01*
X10508214Y-15067786D01*
X10508214Y-15182071D01*
X10522500Y-15210643D01*
X10536786Y-15224929D01*
X10565357Y-15239214D01*
X10622500Y-15239214D01*
X10651071Y-15224929D01*
X10665357Y-15210643D01*
X10679643Y-15182071D01*
X10679643Y-15110643D01*
X10665357Y-15082071D01*
X10651071Y-15067786D01*
X10622500Y-15053500D01*
X10565357Y-15053500D01*
X10536786Y-15067786D01*
X10522500Y-15082071D01*
X10508214Y-15110643D01*
X10865357Y-14939214D02*
X10893928Y-14939214D01*
X10922500Y-14953500D01*
X10936786Y-14967786D01*
X10951071Y-14996357D01*
X10965357Y-15053500D01*
X10965357Y-15124929D01*
X10951071Y-15182071D01*
X10936786Y-15210643D01*
X10922500Y-15224929D01*
X10893928Y-15239214D01*
X10865357Y-15239214D01*
X10836786Y-15224929D01*
X10822500Y-15210643D01*
X10808214Y-15182071D01*
X10793928Y-15124929D01*
X10793928Y-15053500D01*
X10808214Y-14996357D01*
X10822500Y-14967786D01*
X10836786Y-14953500D01*
X10865357Y-14939214D01*
X11093928Y-15239214D02*
X11093928Y-15039214D01*
X11093928Y-15067786D02*
X11108214Y-15053500D01*
X11136786Y-15039214D01*
X11179643Y-15039214D01*
X11208214Y-15053500D01*
X11222500Y-15082071D01*
X11222500Y-15239214D01*
X11222500Y-15082071D02*
X11236786Y-15053500D01*
X11265357Y-15039214D01*
X11308214Y-15039214D01*
X11336786Y-15053500D01*
X11351071Y-15082071D01*
X11351071Y-15239214D01*
X11493928Y-15239214D02*
X11493928Y-15039214D01*
X11493928Y-15067786D02*
X11508214Y-15053500D01*
X11536786Y-15039214D01*
X11579643Y-15039214D01*
X11608214Y-15053500D01*
X11622500Y-15082071D01*
X11622500Y-15239214D01*
X11622500Y-15082071D02*
X11636786Y-15053500D01*
X11665357Y-15039214D01*
X11708214Y-15039214D01*
X11736786Y-15053500D01*
X11751071Y-15082071D01*
X11751071Y-15239214D01*
X12336786Y-14924929D02*
X12079643Y-15310643D01*
X12722500Y-14939214D02*
X12751071Y-14939214D01*
X12779643Y-14953500D01*
X12793928Y-14967786D01*
X12808214Y-14996357D01*
X12822500Y-15053500D01*
X12822500Y-15124929D01*
X12808214Y-15182071D01*
X12793928Y-15210643D01*
X12779643Y-15224929D01*
X12751071Y-15239214D01*
X12722500Y-15239214D01*
X12693928Y-15224929D01*
X12679643Y-15210643D01*
X12665357Y-15182071D01*
X12651071Y-15124929D01*
X12651071Y-15053500D01*
X12665357Y-14996357D01*
X12679643Y-14967786D01*
X12693928Y-14953500D01*
X12722500Y-14939214D01*
X12951071Y-15210643D02*
X12965357Y-15224929D01*
X12951071Y-15239214D01*
X12936786Y-15224929D01*
X12951071Y-15210643D01*
X12951071Y-15239214D01*
X13151071Y-14939214D02*
X13179643Y-14939214D01*
X13208214Y-14953500D01*
X13222500Y-14967786D01*
X13236786Y-14996357D01*
X13251071Y-15053500D01*
X13251071Y-15124929D01*
X13236786Y-15182071D01*
X13222500Y-15210643D01*
X13208214Y-15224929D01*
X13179643Y-15239214D01*
X13151071Y-15239214D01*
X13122500Y-15224929D01*
X13108214Y-15210643D01*
X13093928Y-15182071D01*
X13079643Y-15124929D01*
X13079643Y-15053500D01*
X13093928Y-14996357D01*
X13108214Y-14967786D01*
X13122500Y-14953500D01*
X13151071Y-14939214D01*
X13365357Y-14967786D02*
X13379643Y-14953500D01*
X13408214Y-14939214D01*
X13479643Y-14939214D01*
X13508214Y-14953500D01*
X13522500Y-14967786D01*
X13536786Y-14996357D01*
X13536786Y-15024929D01*
X13522500Y-15067786D01*
X13351071Y-15239214D01*
X13536786Y-15239214D01*
X13793928Y-15039214D02*
X13793928Y-15239214D01*
X13722500Y-14924929D02*
X13651071Y-15139214D01*
X13836786Y-15139214D01*
X13936786Y-14939214D02*
X13936786Y-14996357D01*
X14051071Y-14939214D02*
X14051071Y-14996357D01*
X14493928Y-15353500D02*
X14479643Y-15339214D01*
X14451071Y-15296357D01*
X14436786Y-15267786D01*
X14422500Y-15224929D01*
X14408214Y-15153500D01*
X14408214Y-15096357D01*
X14422500Y-15024929D01*
X14436786Y-14982071D01*
X14451071Y-14953500D01*
X14479643Y-14910643D01*
X14493928Y-14896357D01*
X14593928Y-14967786D02*
X14608214Y-14953500D01*
X14636786Y-14939214D01*
X14708214Y-14939214D01*
X14736786Y-14953500D01*
X14751071Y-14967786D01*
X14765357Y-14996357D01*
X14765357Y-15024929D01*
X14751071Y-15067786D01*
X14579643Y-15239214D01*
X14765357Y-15239214D01*
X15122500Y-15239214D02*
X15122500Y-14939214D01*
X15251071Y-15239214D02*
X15251071Y-15082071D01*
X15236786Y-15053500D01*
X15208214Y-15039214D01*
X15165357Y-15039214D01*
X15136786Y-15053500D01*
X15122500Y-15067786D01*
X15436786Y-15239214D02*
X15408214Y-15224929D01*
X15393928Y-15210643D01*
X15379643Y-15182071D01*
X15379643Y-15096357D01*
X15393928Y-15067786D01*
X15408214Y-15053500D01*
X15436786Y-15039214D01*
X15479643Y-15039214D01*
X15508214Y-15053500D01*
X15522500Y-15067786D01*
X15536786Y-15096357D01*
X15536786Y-15182071D01*
X15522500Y-15210643D01*
X15508214Y-15224929D01*
X15479643Y-15239214D01*
X15436786Y-15239214D01*
X15708214Y-15239214D02*
X15679643Y-15224929D01*
X15665357Y-15196357D01*
X15665357Y-14939214D01*
X15936786Y-15224929D02*
X15908214Y-15239214D01*
X15851071Y-15239214D01*
X15822500Y-15224929D01*
X15808214Y-15196357D01*
X15808214Y-15082071D01*
X15822500Y-15053500D01*
X15851071Y-15039214D01*
X15908214Y-15039214D01*
X15936786Y-15053500D01*
X15951071Y-15082071D01*
X15951071Y-15110643D01*
X15808214Y-15139214D01*
X16065357Y-15224929D02*
X16093928Y-15239214D01*
X16151071Y-15239214D01*
X16179643Y-15224929D01*
X16193928Y-15196357D01*
X16193928Y-15182071D01*
X16179643Y-15153500D01*
X16151071Y-15139214D01*
X16108214Y-15139214D01*
X16079643Y-15124929D01*
X16065357Y-15096357D01*
X16065357Y-15082071D01*
X16079643Y-15053500D01*
X16108214Y-15039214D01*
X16151071Y-15039214D01*
X16179643Y-15053500D01*
X16293928Y-15353500D02*
X16308214Y-15339214D01*
X16336786Y-15296357D01*
X16351071Y-15267786D01*
X16365357Y-15224929D01*
X16379643Y-15153500D01*
X16379643Y-15096357D01*
X16365357Y-15024929D01*
X16351071Y-14982071D01*
X16336786Y-14953500D01*
X16308214Y-14910643D01*
X16293928Y-14896357D01*
X9772500Y-15464500D02*
X9772500Y-15534500D01*
X9737500Y-15499500D02*
X9807500Y-15499500D01*
X10151071Y-15335214D02*
X10179643Y-15335214D01*
X10208214Y-15349500D01*
X10222500Y-15363786D01*
X10236786Y-15392357D01*
X10251071Y-15449500D01*
X10251071Y-15520929D01*
X10236786Y-15578071D01*
X10222500Y-15606643D01*
X10208214Y-15620929D01*
X10179643Y-15635214D01*
X10151071Y-15635214D01*
X10122500Y-15620929D01*
X10108214Y-15606643D01*
X10093928Y-15578071D01*
X10079643Y-15520929D01*
X10079643Y-15449500D01*
X10093928Y-15392357D01*
X10108214Y-15363786D01*
X10122500Y-15349500D01*
X10151071Y-15335214D01*
X10379643Y-15606643D02*
X10393928Y-15620929D01*
X10379643Y-15635214D01*
X10365357Y-15620929D01*
X10379643Y-15606643D01*
X10379643Y-15635214D01*
X10493928Y-15335214D02*
X10693928Y-15335214D01*
X10565357Y-15635214D01*
X10865357Y-15335214D02*
X10893928Y-15335214D01*
X10922500Y-15349500D01*
X10936786Y-15363786D01*
X10951071Y-15392357D01*
X10965357Y-15449500D01*
X10965357Y-15520929D01*
X10951071Y-15578071D01*
X10936786Y-15606643D01*
X10922500Y-15620929D01*
X10893928Y-15635214D01*
X10865357Y-15635214D01*
X10836786Y-15620929D01*
X10822500Y-15606643D01*
X10808214Y-15578071D01*
X10793928Y-15520929D01*
X10793928Y-15449500D01*
X10808214Y-15392357D01*
X10822500Y-15363786D01*
X10836786Y-15349500D01*
X10865357Y-15335214D01*
X11093928Y-15635214D02*
X11093928Y-15435214D01*
X11093928Y-15463786D02*
X11108214Y-15449500D01*
X11136786Y-15435214D01*
X11179643Y-15435214D01*
X11208214Y-15449500D01*
X11222500Y-15478071D01*
X11222500Y-15635214D01*
X11222500Y-15478071D02*
X11236786Y-15449500D01*
X11265357Y-15435214D01*
X11308214Y-15435214D01*
X11336786Y-15449500D01*
X11351071Y-15478071D01*
X11351071Y-15635214D01*
X11493928Y-15635214D02*
X11493928Y-15435214D01*
X11493928Y-15463786D02*
X11508214Y-15449500D01*
X11536786Y-15435214D01*
X11579643Y-15435214D01*
X11608214Y-15449500D01*
X11622500Y-15478071D01*
X11622500Y-15635214D01*
X11622500Y-15478071D02*
X11636786Y-15449500D01*
X11665357Y-15435214D01*
X11708214Y-15435214D01*
X11736786Y-15449500D01*
X11751071Y-15478071D01*
X11751071Y-15635214D01*
X12336786Y-15320929D02*
X12079643Y-15706643D01*
X12722500Y-15335214D02*
X12751071Y-15335214D01*
X12779643Y-15349500D01*
X12793928Y-15363786D01*
X12808214Y-15392357D01*
X12822500Y-15449500D01*
X12822500Y-15520929D01*
X12808214Y-15578071D01*
X12793928Y-15606643D01*
X12779643Y-15620929D01*
X12751071Y-15635214D01*
X12722500Y-15635214D01*
X12693928Y-15620929D01*
X12679643Y-15606643D01*
X12665357Y-15578071D01*
X12651071Y-15520929D01*
X12651071Y-15449500D01*
X12665357Y-15392357D01*
X12679643Y-15363786D01*
X12693928Y-15349500D01*
X12722500Y-15335214D01*
X12951071Y-15606643D02*
X12965357Y-15620929D01*
X12951071Y-15635214D01*
X12936786Y-15620929D01*
X12951071Y-15606643D01*
X12951071Y-15635214D01*
X13151071Y-15335214D02*
X13179643Y-15335214D01*
X13208214Y-15349500D01*
X13222500Y-15363786D01*
X13236786Y-15392357D01*
X13251071Y-15449500D01*
X13251071Y-15520929D01*
X13236786Y-15578071D01*
X13222500Y-15606643D01*
X13208214Y-15620929D01*
X13179643Y-15635214D01*
X13151071Y-15635214D01*
X13122500Y-15620929D01*
X13108214Y-15606643D01*
X13093928Y-15578071D01*
X13079643Y-15520929D01*
X13079643Y-15449500D01*
X13093928Y-15392357D01*
X13108214Y-15363786D01*
X13122500Y-15349500D01*
X13151071Y-15335214D01*
X13365357Y-15363786D02*
X13379643Y-15349500D01*
X13408214Y-15335214D01*
X13479643Y-15335214D01*
X13508214Y-15349500D01*
X13522500Y-15363786D01*
X13536786Y-15392357D01*
X13536786Y-15420929D01*
X13522500Y-15463786D01*
X13351071Y-15635214D01*
X13536786Y-15635214D01*
X13708214Y-15463786D02*
X13679643Y-15449500D01*
X13665357Y-15435214D01*
X13651071Y-15406643D01*
X13651071Y-15392357D01*
X13665357Y-15363786D01*
X13679643Y-15349500D01*
X13708214Y-15335214D01*
X13765357Y-15335214D01*
X13793928Y-15349500D01*
X13808214Y-15363786D01*
X13822500Y-15392357D01*
X13822500Y-15406643D01*
X13808214Y-15435214D01*
X13793928Y-15449500D01*
X13765357Y-15463786D01*
X13708214Y-15463786D01*
X13679643Y-15478071D01*
X13665357Y-15492357D01*
X13651071Y-15520929D01*
X13651071Y-15578071D01*
X13665357Y-15606643D01*
X13679643Y-15620929D01*
X13708214Y-15635214D01*
X13765357Y-15635214D01*
X13793928Y-15620929D01*
X13808214Y-15606643D01*
X13822500Y-15578071D01*
X13822500Y-15520929D01*
X13808214Y-15492357D01*
X13793928Y-15478071D01*
X13765357Y-15463786D01*
X13936786Y-15335214D02*
X13936786Y-15392357D01*
X14051071Y-15335214D02*
X14051071Y-15392357D01*
X14493928Y-15749500D02*
X14479643Y-15735214D01*
X14451071Y-15692357D01*
X14436786Y-15663786D01*
X14422500Y-15620929D01*
X14408214Y-15549500D01*
X14408214Y-15492357D01*
X14422500Y-15420929D01*
X14436786Y-15378071D01*
X14451071Y-15349500D01*
X14479643Y-15306643D01*
X14493928Y-15292357D01*
X14736786Y-15335214D02*
X14679643Y-15335214D01*
X14651071Y-15349500D01*
X14636786Y-15363786D01*
X14608214Y-15406643D01*
X14593928Y-15463786D01*
X14593928Y-15578071D01*
X14608214Y-15606643D01*
X14622500Y-15620929D01*
X14651071Y-15635214D01*
X14708214Y-15635214D01*
X14736786Y-15620929D01*
X14751071Y-15606643D01*
X14765357Y-15578071D01*
X14765357Y-15506643D01*
X14751071Y-15478071D01*
X14736786Y-15463786D01*
X14708214Y-15449500D01*
X14651071Y-15449500D01*
X14622500Y-15463786D01*
X14608214Y-15478071D01*
X14593928Y-15506643D01*
X14879643Y-15363786D02*
X14893928Y-15349500D01*
X14922500Y-15335214D01*
X14993928Y-15335214D01*
X15022500Y-15349500D01*
X15036786Y-15363786D01*
X15051071Y-15392357D01*
X15051071Y-15420929D01*
X15036786Y-15463786D01*
X14865357Y-15635214D01*
X15051071Y-15635214D01*
X15408214Y-15635214D02*
X15408214Y-15335214D01*
X15536786Y-15635214D02*
X15536786Y-15478071D01*
X15522500Y-15449500D01*
X15493928Y-15435214D01*
X15451071Y-15435214D01*
X15422500Y-15449500D01*
X15408214Y-15463786D01*
X15722500Y-15635214D02*
X15693928Y-15620929D01*
X15679643Y-15606643D01*
X15665357Y-15578071D01*
X15665357Y-15492357D01*
X15679643Y-15463786D01*
X15693928Y-15449500D01*
X15722500Y-15435214D01*
X15765357Y-15435214D01*
X15793928Y-15449500D01*
X15808214Y-15463786D01*
X15822500Y-15492357D01*
X15822500Y-15578071D01*
X15808214Y-15606643D01*
X15793928Y-15620929D01*
X15765357Y-15635214D01*
X15722500Y-15635214D01*
X15993928Y-15635214D02*
X15965357Y-15620929D01*
X15951071Y-15592357D01*
X15951071Y-15335214D01*
X16222500Y-15620929D02*
X16193928Y-15635214D01*
X16136786Y-15635214D01*
X16108214Y-15620929D01*
X16093928Y-15592357D01*
X16093928Y-15478071D01*
X16108214Y-15449500D01*
X16136786Y-15435214D01*
X16193928Y-15435214D01*
X16222500Y-15449500D01*
X16236786Y-15478071D01*
X16236786Y-15506643D01*
X16093928Y-15535214D01*
X16351071Y-15620929D02*
X16379643Y-15635214D01*
X16436786Y-15635214D01*
X16465357Y-15620929D01*
X16479643Y-15592357D01*
X16479643Y-15578071D01*
X16465357Y-15549500D01*
X16436786Y-15535214D01*
X16393928Y-15535214D01*
X16365357Y-15520929D01*
X16351071Y-15492357D01*
X16351071Y-15478071D01*
X16365357Y-15449500D01*
X16393928Y-15435214D01*
X16436786Y-15435214D01*
X16465357Y-15449500D01*
X16579643Y-15749500D02*
X16593928Y-15735214D01*
X16622500Y-15692357D01*
X16636786Y-15663786D01*
X16651071Y-15620929D01*
X16665357Y-15549500D01*
X16665357Y-15492357D01*
X16651071Y-15420929D01*
X16636786Y-15378071D01*
X16622500Y-15349500D01*
X16593928Y-15306643D01*
X16579643Y-15292357D01*
X9795784Y-15923785D02*
X9795784Y-15867216D01*
X9739215Y-15867216D01*
X9739215Y-15923785D01*
X9795784Y-15923785D01*
X10151071Y-15731214D02*
X10179643Y-15731214D01*
X10208214Y-15745500D01*
X10222500Y-15759786D01*
X10236786Y-15788357D01*
X10251071Y-15845500D01*
X10251071Y-15916929D01*
X10236786Y-15974071D01*
X10222500Y-16002643D01*
X10208214Y-16016929D01*
X10179643Y-16031214D01*
X10151071Y-16031214D01*
X10122500Y-16016929D01*
X10108214Y-16002643D01*
X10093928Y-15974071D01*
X10079643Y-15916929D01*
X10079643Y-15845500D01*
X10093928Y-15788357D01*
X10108214Y-15759786D01*
X10122500Y-15745500D01*
X10151071Y-15731214D01*
X10379643Y-16002643D02*
X10393928Y-16016929D01*
X10379643Y-16031214D01*
X10365357Y-16016929D01*
X10379643Y-16002643D01*
X10379643Y-16031214D01*
X10565357Y-15859786D02*
X10536786Y-15845500D01*
X10522500Y-15831214D01*
X10508214Y-15802643D01*
X10508214Y-15788357D01*
X10522500Y-15759786D01*
X10536786Y-15745500D01*
X10565357Y-15731214D01*
X10622500Y-15731214D01*
X10651071Y-15745500D01*
X10665357Y-15759786D01*
X10679643Y-15788357D01*
X10679643Y-15802643D01*
X10665357Y-15831214D01*
X10651071Y-15845500D01*
X10622500Y-15859786D01*
X10565357Y-15859786D01*
X10536786Y-15874071D01*
X10522500Y-15888357D01*
X10508214Y-15916929D01*
X10508214Y-15974071D01*
X10522500Y-16002643D01*
X10536786Y-16016929D01*
X10565357Y-16031214D01*
X10622500Y-16031214D01*
X10651071Y-16016929D01*
X10665357Y-16002643D01*
X10679643Y-15974071D01*
X10679643Y-15916929D01*
X10665357Y-15888357D01*
X10651071Y-15874071D01*
X10622500Y-15859786D01*
X10865357Y-15731214D02*
X10893928Y-15731214D01*
X10922500Y-15745500D01*
X10936786Y-15759786D01*
X10951071Y-15788357D01*
X10965357Y-15845500D01*
X10965357Y-15916929D01*
X10951071Y-15974071D01*
X10936786Y-16002643D01*
X10922500Y-16016929D01*
X10893928Y-16031214D01*
X10865357Y-16031214D01*
X10836786Y-16016929D01*
X10822500Y-16002643D01*
X10808214Y-15974071D01*
X10793928Y-15916929D01*
X10793928Y-15845500D01*
X10808214Y-15788357D01*
X10822500Y-15759786D01*
X10836786Y-15745500D01*
X10865357Y-15731214D01*
X11093928Y-16031214D02*
X11093928Y-15831214D01*
X11093928Y-15859786D02*
X11108214Y-15845500D01*
X11136786Y-15831214D01*
X11179643Y-15831214D01*
X11208214Y-15845500D01*
X11222500Y-15874071D01*
X11222500Y-16031214D01*
X11222500Y-15874071D02*
X11236786Y-15845500D01*
X11265357Y-15831214D01*
X11308214Y-15831214D01*
X11336786Y-15845500D01*
X11351071Y-15874071D01*
X11351071Y-16031214D01*
X11493928Y-16031214D02*
X11493928Y-15831214D01*
X11493928Y-15859786D02*
X11508214Y-15845500D01*
X11536786Y-15831214D01*
X11579643Y-15831214D01*
X11608214Y-15845500D01*
X11622500Y-15874071D01*
X11622500Y-16031214D01*
X11622500Y-15874071D02*
X11636786Y-15845500D01*
X11665357Y-15831214D01*
X11708214Y-15831214D01*
X11736786Y-15845500D01*
X11751071Y-15874071D01*
X11751071Y-16031214D01*
X12336786Y-15716929D02*
X12079643Y-16102643D01*
X12722500Y-15731214D02*
X12751071Y-15731214D01*
X12779643Y-15745500D01*
X12793928Y-15759786D01*
X12808214Y-15788357D01*
X12822500Y-15845500D01*
X12822500Y-15916929D01*
X12808214Y-15974071D01*
X12793928Y-16002643D01*
X12779643Y-16016929D01*
X12751071Y-16031214D01*
X12722500Y-16031214D01*
X12693928Y-16016929D01*
X12679643Y-16002643D01*
X12665357Y-15974071D01*
X12651071Y-15916929D01*
X12651071Y-15845500D01*
X12665357Y-15788357D01*
X12679643Y-15759786D01*
X12693928Y-15745500D01*
X12722500Y-15731214D01*
X12951071Y-16002643D02*
X12965357Y-16016929D01*
X12951071Y-16031214D01*
X12936786Y-16016929D01*
X12951071Y-16002643D01*
X12951071Y-16031214D01*
X13151071Y-15731214D02*
X13179643Y-15731214D01*
X13208214Y-15745500D01*
X13222500Y-15759786D01*
X13236786Y-15788357D01*
X13251071Y-15845500D01*
X13251071Y-15916929D01*
X13236786Y-15974071D01*
X13222500Y-16002643D01*
X13208214Y-16016929D01*
X13179643Y-16031214D01*
X13151071Y-16031214D01*
X13122500Y-16016929D01*
X13108214Y-16002643D01*
X13093928Y-15974071D01*
X13079643Y-15916929D01*
X13079643Y-15845500D01*
X13093928Y-15788357D01*
X13108214Y-15759786D01*
X13122500Y-15745500D01*
X13151071Y-15731214D01*
X13351071Y-15731214D02*
X13536786Y-15731214D01*
X13436786Y-15845500D01*
X13479643Y-15845500D01*
X13508214Y-15859786D01*
X13522500Y-15874071D01*
X13536786Y-15902643D01*
X13536786Y-15974071D01*
X13522500Y-16002643D01*
X13508214Y-16016929D01*
X13479643Y-16031214D01*
X13393928Y-16031214D01*
X13365357Y-16016929D01*
X13351071Y-16002643D01*
X13822500Y-16031214D02*
X13651071Y-16031214D01*
X13736786Y-16031214D02*
X13736786Y-15731214D01*
X13708214Y-15774071D01*
X13679643Y-15802643D01*
X13651071Y-15816929D01*
X13936786Y-15731214D02*
X13936786Y-15788357D01*
X14051071Y-15731214D02*
X14051071Y-15788357D01*
X14493928Y-16145500D02*
X14479643Y-16131214D01*
X14451071Y-16088357D01*
X14436786Y-16059786D01*
X14422500Y-16016929D01*
X14408214Y-15945500D01*
X14408214Y-15888357D01*
X14422500Y-15816929D01*
X14436786Y-15774071D01*
X14451071Y-15745500D01*
X14479643Y-15702643D01*
X14493928Y-15688357D01*
X14593928Y-15759786D02*
X14608214Y-15745500D01*
X14636786Y-15731214D01*
X14708214Y-15731214D01*
X14736786Y-15745500D01*
X14751071Y-15759786D01*
X14765357Y-15788357D01*
X14765357Y-15816929D01*
X14751071Y-15859786D01*
X14579643Y-16031214D01*
X14765357Y-16031214D01*
X14951071Y-15731214D02*
X14979643Y-15731214D01*
X15008214Y-15745500D01*
X15022500Y-15759786D01*
X15036786Y-15788357D01*
X15051071Y-15845500D01*
X15051071Y-15916929D01*
X15036786Y-15974071D01*
X15022500Y-16002643D01*
X15008214Y-16016929D01*
X14979643Y-16031214D01*
X14951071Y-16031214D01*
X14922500Y-16016929D01*
X14908214Y-16002643D01*
X14893928Y-15974071D01*
X14879643Y-15916929D01*
X14879643Y-15845500D01*
X14893928Y-15788357D01*
X14908214Y-15759786D01*
X14922500Y-15745500D01*
X14951071Y-15731214D01*
X15408214Y-16031214D02*
X15408214Y-15731214D01*
X15536786Y-16031214D02*
X15536786Y-15874071D01*
X15522500Y-15845500D01*
X15493928Y-15831214D01*
X15451071Y-15831214D01*
X15422500Y-15845500D01*
X15408214Y-15859786D01*
X15722500Y-16031214D02*
X15693928Y-16016929D01*
X15679643Y-16002643D01*
X15665357Y-15974071D01*
X15665357Y-15888357D01*
X15679643Y-15859786D01*
X15693928Y-15845500D01*
X15722500Y-15831214D01*
X15765357Y-15831214D01*
X15793928Y-15845500D01*
X15808214Y-15859786D01*
X15822500Y-15888357D01*
X15822500Y-15974071D01*
X15808214Y-16002643D01*
X15793928Y-16016929D01*
X15765357Y-16031214D01*
X15722500Y-16031214D01*
X15993928Y-16031214D02*
X15965357Y-16016929D01*
X15951071Y-15988357D01*
X15951071Y-15731214D01*
X16222500Y-16016929D02*
X16193928Y-16031214D01*
X16136786Y-16031214D01*
X16108214Y-16016929D01*
X16093928Y-15988357D01*
X16093928Y-15874071D01*
X16108214Y-15845500D01*
X16136786Y-15831214D01*
X16193928Y-15831214D01*
X16222500Y-15845500D01*
X16236786Y-15874071D01*
X16236786Y-15902643D01*
X16093928Y-15931214D01*
X16351071Y-16016929D02*
X16379643Y-16031214D01*
X16436786Y-16031214D01*
X16465357Y-16016929D01*
X16479643Y-15988357D01*
X16479643Y-15974071D01*
X16465357Y-15945500D01*
X16436786Y-15931214D01*
X16393928Y-15931214D01*
X16365357Y-15916929D01*
X16351071Y-15888357D01*
X16351071Y-15874071D01*
X16365357Y-15845500D01*
X16393928Y-15831214D01*
X16436786Y-15831214D01*
X16465357Y-15845500D01*
X16579643Y-16145500D02*
X16593928Y-16131214D01*
X16622500Y-16088357D01*
X16636786Y-16059786D01*
X16651071Y-16016929D01*
X16665357Y-15945500D01*
X16665357Y-15888357D01*
X16651071Y-15816929D01*
X16636786Y-15774071D01*
X16622500Y-15745500D01*
X16593928Y-15702643D01*
X16579643Y-15688357D01*
X9762500Y-16336500D02*
X9807500Y-16291500D01*
X9762500Y-16246500D01*
X9717500Y-16291500D01*
X9762500Y-16336500D01*
X10151071Y-16127214D02*
X10179643Y-16127214D01*
X10208214Y-16141500D01*
X10222500Y-16155786D01*
X10236786Y-16184357D01*
X10251071Y-16241500D01*
X10251071Y-16312929D01*
X10236786Y-16370071D01*
X10222500Y-16398643D01*
X10208214Y-16412929D01*
X10179643Y-16427214D01*
X10151071Y-16427214D01*
X10122500Y-16412929D01*
X10108214Y-16398643D01*
X10093928Y-16370071D01*
X10079643Y-16312929D01*
X10079643Y-16241500D01*
X10093928Y-16184357D01*
X10108214Y-16155786D01*
X10122500Y-16141500D01*
X10151071Y-16127214D01*
X10379643Y-16398643D02*
X10393928Y-16412929D01*
X10379643Y-16427214D01*
X10365357Y-16412929D01*
X10379643Y-16398643D01*
X10379643Y-16427214D01*
X10536786Y-16427214D02*
X10593928Y-16427214D01*
X10622500Y-16412929D01*
X10636786Y-16398643D01*
X10665357Y-16355786D01*
X10679643Y-16298643D01*
X10679643Y-16184357D01*
X10665357Y-16155786D01*
X10651071Y-16141500D01*
X10622500Y-16127214D01*
X10565357Y-16127214D01*
X10536786Y-16141500D01*
X10522500Y-16155786D01*
X10508214Y-16184357D01*
X10508214Y-16255786D01*
X10522500Y-16284357D01*
X10536786Y-16298643D01*
X10565357Y-16312929D01*
X10622500Y-16312929D01*
X10651071Y-16298643D01*
X10665357Y-16284357D01*
X10679643Y-16255786D01*
X10865357Y-16127214D02*
X10893928Y-16127214D01*
X10922500Y-16141500D01*
X10936786Y-16155786D01*
X10951071Y-16184357D01*
X10965357Y-16241500D01*
X10965357Y-16312929D01*
X10951071Y-16370071D01*
X10936786Y-16398643D01*
X10922500Y-16412929D01*
X10893928Y-16427214D01*
X10865357Y-16427214D01*
X10836786Y-16412929D01*
X10822500Y-16398643D01*
X10808214Y-16370071D01*
X10793928Y-16312929D01*
X10793928Y-16241500D01*
X10808214Y-16184357D01*
X10822500Y-16155786D01*
X10836786Y-16141500D01*
X10865357Y-16127214D01*
X11093928Y-16427214D02*
X11093928Y-16227214D01*
X11093928Y-16255786D02*
X11108214Y-16241500D01*
X11136786Y-16227214D01*
X11179643Y-16227214D01*
X11208214Y-16241500D01*
X11222500Y-16270071D01*
X11222500Y-16427214D01*
X11222500Y-16270071D02*
X11236786Y-16241500D01*
X11265357Y-16227214D01*
X11308214Y-16227214D01*
X11336786Y-16241500D01*
X11351071Y-16270071D01*
X11351071Y-16427214D01*
X11493928Y-16427214D02*
X11493928Y-16227214D01*
X11493928Y-16255786D02*
X11508214Y-16241500D01*
X11536786Y-16227214D01*
X11579643Y-16227214D01*
X11608214Y-16241500D01*
X11622500Y-16270071D01*
X11622500Y-16427214D01*
X11622500Y-16270071D02*
X11636786Y-16241500D01*
X11665357Y-16227214D01*
X11708214Y-16227214D01*
X11736786Y-16241500D01*
X11751071Y-16270071D01*
X11751071Y-16427214D01*
X12336786Y-16112929D02*
X12079643Y-16498643D01*
X12722500Y-16127214D02*
X12751071Y-16127214D01*
X12779643Y-16141500D01*
X12793928Y-16155786D01*
X12808214Y-16184357D01*
X12822500Y-16241500D01*
X12822500Y-16312929D01*
X12808214Y-16370071D01*
X12793928Y-16398643D01*
X12779643Y-16412929D01*
X12751071Y-16427214D01*
X12722500Y-16427214D01*
X12693928Y-16412929D01*
X12679643Y-16398643D01*
X12665357Y-16370071D01*
X12651071Y-16312929D01*
X12651071Y-16241500D01*
X12665357Y-16184357D01*
X12679643Y-16155786D01*
X12693928Y-16141500D01*
X12722500Y-16127214D01*
X12951071Y-16398643D02*
X12965357Y-16412929D01*
X12951071Y-16427214D01*
X12936786Y-16412929D01*
X12951071Y-16398643D01*
X12951071Y-16427214D01*
X13151071Y-16127214D02*
X13179643Y-16127214D01*
X13208214Y-16141500D01*
X13222500Y-16155786D01*
X13236786Y-16184357D01*
X13251071Y-16241500D01*
X13251071Y-16312929D01*
X13236786Y-16370071D01*
X13222500Y-16398643D01*
X13208214Y-16412929D01*
X13179643Y-16427214D01*
X13151071Y-16427214D01*
X13122500Y-16412929D01*
X13108214Y-16398643D01*
X13093928Y-16370071D01*
X13079643Y-16312929D01*
X13079643Y-16241500D01*
X13093928Y-16184357D01*
X13108214Y-16155786D01*
X13122500Y-16141500D01*
X13151071Y-16127214D01*
X13351071Y-16127214D02*
X13536786Y-16127214D01*
X13436786Y-16241500D01*
X13479643Y-16241500D01*
X13508214Y-16255786D01*
X13522500Y-16270071D01*
X13536786Y-16298643D01*
X13536786Y-16370071D01*
X13522500Y-16398643D01*
X13508214Y-16412929D01*
X13479643Y-16427214D01*
X13393928Y-16427214D01*
X13365357Y-16412929D01*
X13351071Y-16398643D01*
X13808214Y-16127214D02*
X13665357Y-16127214D01*
X13651071Y-16270071D01*
X13665357Y-16255786D01*
X13693928Y-16241500D01*
X13765357Y-16241500D01*
X13793928Y-16255786D01*
X13808214Y-16270071D01*
X13822500Y-16298643D01*
X13822500Y-16370071D01*
X13808214Y-16398643D01*
X13793928Y-16412929D01*
X13765357Y-16427214D01*
X13693928Y-16427214D01*
X13665357Y-16412929D01*
X13651071Y-16398643D01*
X13936786Y-16127214D02*
X13936786Y-16184357D01*
X14051071Y-16127214D02*
X14051071Y-16184357D01*
X14493928Y-16541500D02*
X14479643Y-16527214D01*
X14451071Y-16484357D01*
X14436786Y-16455786D01*
X14422500Y-16412929D01*
X14408214Y-16341500D01*
X14408214Y-16284357D01*
X14422500Y-16212929D01*
X14436786Y-16170071D01*
X14451071Y-16141500D01*
X14479643Y-16098643D01*
X14493928Y-16084357D01*
X14579643Y-16127214D02*
X14765357Y-16127214D01*
X14665357Y-16241500D01*
X14708214Y-16241500D01*
X14736786Y-16255786D01*
X14751071Y-16270071D01*
X14765357Y-16298643D01*
X14765357Y-16370071D01*
X14751071Y-16398643D01*
X14736786Y-16412929D01*
X14708214Y-16427214D01*
X14622500Y-16427214D01*
X14593928Y-16412929D01*
X14579643Y-16398643D01*
X15022500Y-16227214D02*
X15022500Y-16427214D01*
X14951071Y-16112929D02*
X14879643Y-16327214D01*
X15065357Y-16327214D01*
X15408214Y-16427214D02*
X15408214Y-16127214D01*
X15536786Y-16427214D02*
X15536786Y-16270071D01*
X15522500Y-16241500D01*
X15493928Y-16227214D01*
X15451071Y-16227214D01*
X15422500Y-16241500D01*
X15408214Y-16255786D01*
X15722500Y-16427214D02*
X15693928Y-16412929D01*
X15679643Y-16398643D01*
X15665357Y-16370071D01*
X15665357Y-16284357D01*
X15679643Y-16255786D01*
X15693928Y-16241500D01*
X15722500Y-16227214D01*
X15765357Y-16227214D01*
X15793928Y-16241500D01*
X15808214Y-16255786D01*
X15822500Y-16284357D01*
X15822500Y-16370071D01*
X15808214Y-16398643D01*
X15793928Y-16412929D01*
X15765357Y-16427214D01*
X15722500Y-16427214D01*
X15993928Y-16427214D02*
X15965357Y-16412929D01*
X15951071Y-16384357D01*
X15951071Y-16127214D01*
X16222500Y-16412929D02*
X16193928Y-16427214D01*
X16136786Y-16427214D01*
X16108214Y-16412929D01*
X16093928Y-16384357D01*
X16093928Y-16270071D01*
X16108214Y-16241500D01*
X16136786Y-16227214D01*
X16193928Y-16227214D01*
X16222500Y-16241500D01*
X16236786Y-16270071D01*
X16236786Y-16298643D01*
X16093928Y-16327214D01*
X16351071Y-16412929D02*
X16379643Y-16427214D01*
X16436786Y-16427214D01*
X16465357Y-16412929D01*
X16479643Y-16384357D01*
X16479643Y-16370071D01*
X16465357Y-16341500D01*
X16436786Y-16327214D01*
X16393928Y-16327214D01*
X16365357Y-16312929D01*
X16351071Y-16284357D01*
X16351071Y-16270071D01*
X16365357Y-16241500D01*
X16393928Y-16227214D01*
X16436786Y-16227214D01*
X16465357Y-16241500D01*
X16579643Y-16541500D02*
X16593928Y-16527214D01*
X16622500Y-16484357D01*
X16636786Y-16455786D01*
X16651071Y-16412929D01*
X16665357Y-16341500D01*
X16665357Y-16284357D01*
X16651071Y-16212929D01*
X16636786Y-16170071D01*
X16622500Y-16141500D01*
X16593928Y-16098643D01*
X16579643Y-16084357D01*
X9707500Y-16637500D02*
X9807500Y-16737500D01*
X9807500Y-16637500D02*
X9707500Y-16737500D01*
X9807500Y-16687500D02*
G75*
G03*
X9807500Y-16687500I-50000J0D01*
G01*
X10251071Y-16823214D02*
X10079643Y-16823214D01*
X10165357Y-16823214D02*
X10165357Y-16523214D01*
X10136786Y-16566071D01*
X10108214Y-16594643D01*
X10079643Y-16608929D01*
X10379643Y-16794643D02*
X10393928Y-16808929D01*
X10379643Y-16823214D01*
X10365357Y-16808929D01*
X10379643Y-16794643D01*
X10379643Y-16823214D01*
X10579643Y-16523214D02*
X10608214Y-16523214D01*
X10636786Y-16537500D01*
X10651071Y-16551786D01*
X10665357Y-16580357D01*
X10679643Y-16637500D01*
X10679643Y-16708929D01*
X10665357Y-16766071D01*
X10651071Y-16794643D01*
X10636786Y-16808929D01*
X10608214Y-16823214D01*
X10579643Y-16823214D01*
X10551071Y-16808929D01*
X10536786Y-16794643D01*
X10522500Y-16766071D01*
X10508214Y-16708929D01*
X10508214Y-16637500D01*
X10522500Y-16580357D01*
X10536786Y-16551786D01*
X10551071Y-16537500D01*
X10579643Y-16523214D01*
X10865357Y-16523214D02*
X10893928Y-16523214D01*
X10922500Y-16537500D01*
X10936786Y-16551786D01*
X10951071Y-16580357D01*
X10965357Y-16637500D01*
X10965357Y-16708929D01*
X10951071Y-16766071D01*
X10936786Y-16794643D01*
X10922500Y-16808929D01*
X10893928Y-16823214D01*
X10865357Y-16823214D01*
X10836786Y-16808929D01*
X10822500Y-16794643D01*
X10808214Y-16766071D01*
X10793928Y-16708929D01*
X10793928Y-16637500D01*
X10808214Y-16580357D01*
X10822500Y-16551786D01*
X10836786Y-16537500D01*
X10865357Y-16523214D01*
X11093928Y-16823214D02*
X11093928Y-16623214D01*
X11093928Y-16651786D02*
X11108214Y-16637500D01*
X11136786Y-16623214D01*
X11179643Y-16623214D01*
X11208214Y-16637500D01*
X11222500Y-16666071D01*
X11222500Y-16823214D01*
X11222500Y-16666071D02*
X11236786Y-16637500D01*
X11265357Y-16623214D01*
X11308214Y-16623214D01*
X11336786Y-16637500D01*
X11351071Y-16666071D01*
X11351071Y-16823214D01*
X11493928Y-16823214D02*
X11493928Y-16623214D01*
X11493928Y-16651786D02*
X11508214Y-16637500D01*
X11536786Y-16623214D01*
X11579643Y-16623214D01*
X11608214Y-16637500D01*
X11622500Y-16666071D01*
X11622500Y-16823214D01*
X11622500Y-16666071D02*
X11636786Y-16637500D01*
X11665357Y-16623214D01*
X11708214Y-16623214D01*
X11736786Y-16637500D01*
X11751071Y-16666071D01*
X11751071Y-16823214D01*
X12336786Y-16508929D02*
X12079643Y-16894643D01*
X12722500Y-16523214D02*
X12751071Y-16523214D01*
X12779643Y-16537500D01*
X12793928Y-16551786D01*
X12808214Y-16580357D01*
X12822500Y-16637500D01*
X12822500Y-16708929D01*
X12808214Y-16766071D01*
X12793928Y-16794643D01*
X12779643Y-16808929D01*
X12751071Y-16823214D01*
X12722500Y-16823214D01*
X12693928Y-16808929D01*
X12679643Y-16794643D01*
X12665357Y-16766071D01*
X12651071Y-16708929D01*
X12651071Y-16637500D01*
X12665357Y-16580357D01*
X12679643Y-16551786D01*
X12693928Y-16537500D01*
X12722500Y-16523214D01*
X12951071Y-16794643D02*
X12965357Y-16808929D01*
X12951071Y-16823214D01*
X12936786Y-16808929D01*
X12951071Y-16794643D01*
X12951071Y-16823214D01*
X13151071Y-16523214D02*
X13179643Y-16523214D01*
X13208214Y-16537500D01*
X13222500Y-16551786D01*
X13236786Y-16580357D01*
X13251071Y-16637500D01*
X13251071Y-16708929D01*
X13236786Y-16766071D01*
X13222500Y-16794643D01*
X13208214Y-16808929D01*
X13179643Y-16823214D01*
X13151071Y-16823214D01*
X13122500Y-16808929D01*
X13108214Y-16794643D01*
X13093928Y-16766071D01*
X13079643Y-16708929D01*
X13079643Y-16637500D01*
X13093928Y-16580357D01*
X13108214Y-16551786D01*
X13122500Y-16537500D01*
X13151071Y-16523214D01*
X13351071Y-16523214D02*
X13536786Y-16523214D01*
X13436786Y-16637500D01*
X13479643Y-16637500D01*
X13508214Y-16651786D01*
X13522500Y-16666071D01*
X13536786Y-16694643D01*
X13536786Y-16766071D01*
X13522500Y-16794643D01*
X13508214Y-16808929D01*
X13479643Y-16823214D01*
X13393928Y-16823214D01*
X13365357Y-16808929D01*
X13351071Y-16794643D01*
X13679643Y-16823214D02*
X13736786Y-16823214D01*
X13765357Y-16808929D01*
X13779643Y-16794643D01*
X13808214Y-16751786D01*
X13822500Y-16694643D01*
X13822500Y-16580357D01*
X13808214Y-16551786D01*
X13793928Y-16537500D01*
X13765357Y-16523214D01*
X13708214Y-16523214D01*
X13679643Y-16537500D01*
X13665357Y-16551786D01*
X13651071Y-16580357D01*
X13651071Y-16651786D01*
X13665357Y-16680357D01*
X13679643Y-16694643D01*
X13708214Y-16708929D01*
X13765357Y-16708929D01*
X13793928Y-16694643D01*
X13808214Y-16680357D01*
X13822500Y-16651786D01*
X13936786Y-16523214D02*
X13936786Y-16580357D01*
X14051071Y-16523214D02*
X14051071Y-16580357D01*
X14493928Y-16937500D02*
X14479643Y-16923214D01*
X14451071Y-16880357D01*
X14436786Y-16851786D01*
X14422500Y-16808929D01*
X14408214Y-16737500D01*
X14408214Y-16680357D01*
X14422500Y-16608929D01*
X14436786Y-16566071D01*
X14451071Y-16537500D01*
X14479643Y-16494643D01*
X14493928Y-16480357D01*
X14736786Y-16623214D02*
X14736786Y-16823214D01*
X14665357Y-16508929D02*
X14593928Y-16723214D01*
X14779643Y-16723214D01*
X15022500Y-16523214D02*
X14965357Y-16523214D01*
X14936786Y-16537500D01*
X14922500Y-16551786D01*
X14893928Y-16594643D01*
X14879643Y-16651786D01*
X14879643Y-16766071D01*
X14893928Y-16794643D01*
X14908214Y-16808929D01*
X14936786Y-16823214D01*
X14993928Y-16823214D01*
X15022500Y-16808929D01*
X15036786Y-16794643D01*
X15051071Y-16766071D01*
X15051071Y-16694643D01*
X15036786Y-16666071D01*
X15022500Y-16651786D01*
X14993928Y-16637500D01*
X14936786Y-16637500D01*
X14908214Y-16651786D01*
X14893928Y-16666071D01*
X14879643Y-16694643D01*
X15408214Y-16823214D02*
X15408214Y-16523214D01*
X15536786Y-16823214D02*
X15536786Y-16666071D01*
X15522500Y-16637500D01*
X15493928Y-16623214D01*
X15451071Y-16623214D01*
X15422500Y-16637500D01*
X15408214Y-16651786D01*
X15722500Y-16823214D02*
X15693928Y-16808929D01*
X15679643Y-16794643D01*
X15665357Y-16766071D01*
X15665357Y-16680357D01*
X15679643Y-16651786D01*
X15693928Y-16637500D01*
X15722500Y-16623214D01*
X15765357Y-16623214D01*
X15793928Y-16637500D01*
X15808214Y-16651786D01*
X15822500Y-16680357D01*
X15822500Y-16766071D01*
X15808214Y-16794643D01*
X15793928Y-16808929D01*
X15765357Y-16823214D01*
X15722500Y-16823214D01*
X15993928Y-16823214D02*
X15965357Y-16808929D01*
X15951071Y-16780357D01*
X15951071Y-16523214D01*
X16222500Y-16808929D02*
X16193928Y-16823214D01*
X16136786Y-16823214D01*
X16108214Y-16808929D01*
X16093928Y-16780357D01*
X16093928Y-16666071D01*
X16108214Y-16637500D01*
X16136786Y-16623214D01*
X16193928Y-16623214D01*
X16222500Y-16637500D01*
X16236786Y-16666071D01*
X16236786Y-16694643D01*
X16093928Y-16723214D01*
X16351071Y-16808929D02*
X16379643Y-16823214D01*
X16436786Y-16823214D01*
X16465357Y-16808929D01*
X16479643Y-16780357D01*
X16479643Y-16766071D01*
X16465357Y-16737500D01*
X16436786Y-16723214D01*
X16393928Y-16723214D01*
X16365357Y-16708929D01*
X16351071Y-16680357D01*
X16351071Y-16666071D01*
X16365357Y-16637500D01*
X16393928Y-16623214D01*
X16436786Y-16623214D01*
X16465357Y-16637500D01*
X16836786Y-16708929D02*
X17065357Y-16708929D01*
X16951071Y-16823214D02*
X16951071Y-16594643D01*
X17565357Y-16623214D02*
X17565357Y-16823214D01*
X17493928Y-16508929D02*
X17422500Y-16723214D01*
X17608214Y-16723214D01*
X17936786Y-16808929D02*
X17965357Y-16823214D01*
X18022500Y-16823214D01*
X18051071Y-16808929D01*
X18065357Y-16780357D01*
X18065357Y-16766071D01*
X18051071Y-16737500D01*
X18022500Y-16723214D01*
X17979643Y-16723214D01*
X17951071Y-16708929D01*
X17936786Y-16680357D01*
X17936786Y-16666071D01*
X17951071Y-16637500D01*
X17979643Y-16623214D01*
X18022500Y-16623214D01*
X18051071Y-16637500D01*
X18236786Y-16823214D02*
X18208214Y-16808929D01*
X18193928Y-16780357D01*
X18193928Y-16523214D01*
X18393928Y-16823214D02*
X18365357Y-16808929D01*
X18351071Y-16794643D01*
X18336786Y-16766071D01*
X18336786Y-16680357D01*
X18351071Y-16651786D01*
X18365357Y-16637500D01*
X18393928Y-16623214D01*
X18436786Y-16623214D01*
X18465357Y-16637500D01*
X18479643Y-16651786D01*
X18493928Y-16680357D01*
X18493928Y-16766071D01*
X18479643Y-16794643D01*
X18465357Y-16808929D01*
X18436786Y-16823214D01*
X18393928Y-16823214D01*
X18579643Y-16623214D02*
X18693928Y-16623214D01*
X18622500Y-16523214D02*
X18622500Y-16780357D01*
X18636786Y-16808929D01*
X18665357Y-16823214D01*
X18693928Y-16823214D01*
X18779643Y-16808929D02*
X18808214Y-16823214D01*
X18865357Y-16823214D01*
X18893928Y-16808929D01*
X18908214Y-16780357D01*
X18908214Y-16766071D01*
X18893928Y-16737500D01*
X18865357Y-16723214D01*
X18822500Y-16723214D01*
X18793928Y-16708929D01*
X18779643Y-16680357D01*
X18779643Y-16666071D01*
X18793928Y-16637500D01*
X18822500Y-16623214D01*
X18865357Y-16623214D01*
X18893928Y-16637500D01*
X19008214Y-16937500D02*
X19022500Y-16923214D01*
X19051071Y-16880357D01*
X19065357Y-16851786D01*
X19079643Y-16808929D01*
X19093928Y-16737500D01*
X19093928Y-16680357D01*
X19079643Y-16608929D01*
X19065357Y-16566071D01*
X19051071Y-16537500D01*
X19022500Y-16494643D01*
X19008214Y-16480357D01*
X9697500Y-17028500D02*
X9807500Y-17138500D01*
X9807500Y-17028500D02*
X9697500Y-17138500D01*
X9752500Y-17028500D02*
X9752500Y-17138500D01*
X9697500Y-17083500D02*
X9807500Y-17083500D01*
X10251071Y-17219214D02*
X10079643Y-17219214D01*
X10165357Y-17219214D02*
X10165357Y-16919214D01*
X10136786Y-16962072D01*
X10108214Y-16990643D01*
X10079643Y-17004929D01*
X10379643Y-17190643D02*
X10393928Y-17204929D01*
X10379643Y-17219214D01*
X10365357Y-17204929D01*
X10379643Y-17190643D01*
X10379643Y-17219214D01*
X10679643Y-17219214D02*
X10508214Y-17219214D01*
X10593928Y-17219214D02*
X10593928Y-16919214D01*
X10565357Y-16962072D01*
X10536786Y-16990643D01*
X10508214Y-17004929D01*
X10865357Y-16919214D02*
X10893928Y-16919214D01*
X10922500Y-16933500D01*
X10936786Y-16947786D01*
X10951071Y-16976357D01*
X10965357Y-17033500D01*
X10965357Y-17104929D01*
X10951071Y-17162072D01*
X10936786Y-17190643D01*
X10922500Y-17204929D01*
X10893928Y-17219214D01*
X10865357Y-17219214D01*
X10836786Y-17204929D01*
X10822500Y-17190643D01*
X10808214Y-17162072D01*
X10793928Y-17104929D01*
X10793928Y-17033500D01*
X10808214Y-16976357D01*
X10822500Y-16947786D01*
X10836786Y-16933500D01*
X10865357Y-16919214D01*
X11093928Y-17219214D02*
X11093928Y-17019214D01*
X11093928Y-17047786D02*
X11108214Y-17033500D01*
X11136786Y-17019214D01*
X11179643Y-17019214D01*
X11208214Y-17033500D01*
X11222500Y-17062072D01*
X11222500Y-17219214D01*
X11222500Y-17062072D02*
X11236786Y-17033500D01*
X11265357Y-17019214D01*
X11308214Y-17019214D01*
X11336786Y-17033500D01*
X11351071Y-17062072D01*
X11351071Y-17219214D01*
X11493928Y-17219214D02*
X11493928Y-17019214D01*
X11493928Y-17047786D02*
X11508214Y-17033500D01*
X11536786Y-17019214D01*
X11579643Y-17019214D01*
X11608214Y-17033500D01*
X11622500Y-17062072D01*
X11622500Y-17219214D01*
X11622500Y-17062072D02*
X11636786Y-17033500D01*
X11665357Y-17019214D01*
X11708214Y-17019214D01*
X11736786Y-17033500D01*
X11751071Y-17062072D01*
X11751071Y-17219214D01*
X12336786Y-16904929D02*
X12079643Y-17290643D01*
X12722500Y-16919214D02*
X12751071Y-16919214D01*
X12779643Y-16933500D01*
X12793928Y-16947786D01*
X12808214Y-16976357D01*
X12822500Y-17033500D01*
X12822500Y-17104929D01*
X12808214Y-17162072D01*
X12793928Y-17190643D01*
X12779643Y-17204929D01*
X12751071Y-17219214D01*
X12722500Y-17219214D01*
X12693928Y-17204929D01*
X12679643Y-17190643D01*
X12665357Y-17162072D01*
X12651071Y-17104929D01*
X12651071Y-17033500D01*
X12665357Y-16976357D01*
X12679643Y-16947786D01*
X12693928Y-16933500D01*
X12722500Y-16919214D01*
X12951071Y-17190643D02*
X12965357Y-17204929D01*
X12951071Y-17219214D01*
X12936786Y-17204929D01*
X12951071Y-17190643D01*
X12951071Y-17219214D01*
X13151071Y-16919214D02*
X13179643Y-16919214D01*
X13208214Y-16933500D01*
X13222500Y-16947786D01*
X13236786Y-16976357D01*
X13251071Y-17033500D01*
X13251071Y-17104929D01*
X13236786Y-17162072D01*
X13222500Y-17190643D01*
X13208214Y-17204929D01*
X13179643Y-17219214D01*
X13151071Y-17219214D01*
X13122500Y-17204929D01*
X13108214Y-17190643D01*
X13093928Y-17162072D01*
X13079643Y-17104929D01*
X13079643Y-17033500D01*
X13093928Y-16976357D01*
X13108214Y-16947786D01*
X13122500Y-16933500D01*
X13151071Y-16919214D01*
X13508214Y-17019214D02*
X13508214Y-17219214D01*
X13436786Y-16904929D02*
X13365357Y-17119214D01*
X13551071Y-17119214D01*
X13636786Y-16919214D02*
X13822500Y-16919214D01*
X13722500Y-17033500D01*
X13765357Y-17033500D01*
X13793928Y-17047786D01*
X13808214Y-17062072D01*
X13822500Y-17090643D01*
X13822500Y-17162072D01*
X13808214Y-17190643D01*
X13793928Y-17204929D01*
X13765357Y-17219214D01*
X13679643Y-17219214D01*
X13651071Y-17204929D01*
X13636786Y-17190643D01*
X13936786Y-16919214D02*
X13936786Y-16976357D01*
X14051071Y-16919214D02*
X14051071Y-16976357D01*
X14493928Y-17333500D02*
X14479643Y-17319214D01*
X14451071Y-17276357D01*
X14436786Y-17247786D01*
X14422500Y-17204929D01*
X14408214Y-17133500D01*
X14408214Y-17076357D01*
X14422500Y-17004929D01*
X14436786Y-16962072D01*
X14451071Y-16933500D01*
X14479643Y-16890643D01*
X14493928Y-16876357D01*
X14579643Y-16919214D02*
X14779643Y-16919214D01*
X14651071Y-17219214D01*
X15122500Y-17219214D02*
X15122500Y-16919214D01*
X15251071Y-17219214D02*
X15251071Y-17062072D01*
X15236786Y-17033500D01*
X15208214Y-17019214D01*
X15165357Y-17019214D01*
X15136786Y-17033500D01*
X15122500Y-17047786D01*
X15436786Y-17219214D02*
X15408214Y-17204929D01*
X15393928Y-17190643D01*
X15379643Y-17162072D01*
X15379643Y-17076357D01*
X15393928Y-17047786D01*
X15408214Y-17033500D01*
X15436786Y-17019214D01*
X15479643Y-17019214D01*
X15508214Y-17033500D01*
X15522500Y-17047786D01*
X15536786Y-17076357D01*
X15536786Y-17162072D01*
X15522500Y-17190643D01*
X15508214Y-17204929D01*
X15479643Y-17219214D01*
X15436786Y-17219214D01*
X15708214Y-17219214D02*
X15679643Y-17204929D01*
X15665357Y-17176357D01*
X15665357Y-16919214D01*
X15936786Y-17204929D02*
X15908214Y-17219214D01*
X15851071Y-17219214D01*
X15822500Y-17204929D01*
X15808214Y-17176357D01*
X15808214Y-17062072D01*
X15822500Y-17033500D01*
X15851071Y-17019214D01*
X15908214Y-17019214D01*
X15936786Y-17033500D01*
X15951071Y-17062072D01*
X15951071Y-17090643D01*
X15808214Y-17119214D01*
X16065357Y-17204929D02*
X16093928Y-17219214D01*
X16151071Y-17219214D01*
X16179643Y-17204929D01*
X16193928Y-17176357D01*
X16193928Y-17162072D01*
X16179643Y-17133500D01*
X16151071Y-17119214D01*
X16108214Y-17119214D01*
X16079643Y-17104929D01*
X16065357Y-17076357D01*
X16065357Y-17062072D01*
X16079643Y-17033500D01*
X16108214Y-17019214D01*
X16151071Y-17019214D01*
X16179643Y-17033500D01*
X16293928Y-17333500D02*
X16308214Y-17319214D01*
X16336786Y-17276357D01*
X16351071Y-17247786D01*
X16365357Y-17204929D01*
X16379643Y-17133500D01*
X16379643Y-17076357D01*
X16365357Y-17004929D01*
X16351071Y-16962072D01*
X16336786Y-16933500D01*
X16308214Y-16890643D01*
X16293928Y-16876357D01*
X9687500Y-17419500D02*
X9807500Y-17539500D01*
X9807500Y-17419500D02*
X9687500Y-17539500D01*
X9789927Y-17521927D02*
X9789927Y-17437073D01*
X9705073Y-17437073D01*
X9705073Y-17521927D01*
X9789927Y-17521927D01*
X10251071Y-17615214D02*
X10079643Y-17615214D01*
X10165357Y-17615214D02*
X10165357Y-17315214D01*
X10136786Y-17358072D01*
X10108214Y-17386643D01*
X10079643Y-17400929D01*
X10379643Y-17586643D02*
X10393928Y-17600929D01*
X10379643Y-17615214D01*
X10365357Y-17600929D01*
X10379643Y-17586643D01*
X10379643Y-17615214D01*
X10508214Y-17343786D02*
X10522500Y-17329500D01*
X10551071Y-17315214D01*
X10622500Y-17315214D01*
X10651071Y-17329500D01*
X10665357Y-17343786D01*
X10679643Y-17372357D01*
X10679643Y-17400929D01*
X10665357Y-17443786D01*
X10493928Y-17615214D01*
X10679643Y-17615214D01*
X10865357Y-17315214D02*
X10893928Y-17315214D01*
X10922500Y-17329500D01*
X10936786Y-17343786D01*
X10951071Y-17372357D01*
X10965357Y-17429500D01*
X10965357Y-17500929D01*
X10951071Y-17558072D01*
X10936786Y-17586643D01*
X10922500Y-17600929D01*
X10893928Y-17615214D01*
X10865357Y-17615214D01*
X10836786Y-17600929D01*
X10822500Y-17586643D01*
X10808214Y-17558072D01*
X10793928Y-17500929D01*
X10793928Y-17429500D01*
X10808214Y-17372357D01*
X10822500Y-17343786D01*
X10836786Y-17329500D01*
X10865357Y-17315214D01*
X11093928Y-17615214D02*
X11093928Y-17415214D01*
X11093928Y-17443786D02*
X11108214Y-17429500D01*
X11136786Y-17415214D01*
X11179643Y-17415214D01*
X11208214Y-17429500D01*
X11222500Y-17458072D01*
X11222500Y-17615214D01*
X11222500Y-17458072D02*
X11236786Y-17429500D01*
X11265357Y-17415214D01*
X11308214Y-17415214D01*
X11336786Y-17429500D01*
X11351071Y-17458072D01*
X11351071Y-17615214D01*
X11493928Y-17615214D02*
X11493928Y-17415214D01*
X11493928Y-17443786D02*
X11508214Y-17429500D01*
X11536786Y-17415214D01*
X11579643Y-17415214D01*
X11608214Y-17429500D01*
X11622500Y-17458072D01*
X11622500Y-17615214D01*
X11622500Y-17458072D02*
X11636786Y-17429500D01*
X11665357Y-17415214D01*
X11708214Y-17415214D01*
X11736786Y-17429500D01*
X11751071Y-17458072D01*
X11751071Y-17615214D01*
X12336786Y-17300929D02*
X12079643Y-17686643D01*
X12722500Y-17315214D02*
X12751071Y-17315214D01*
X12779643Y-17329500D01*
X12793928Y-17343786D01*
X12808214Y-17372357D01*
X12822500Y-17429500D01*
X12822500Y-17500929D01*
X12808214Y-17558072D01*
X12793928Y-17586643D01*
X12779643Y-17600929D01*
X12751071Y-17615214D01*
X12722500Y-17615214D01*
X12693928Y-17600929D01*
X12679643Y-17586643D01*
X12665357Y-17558072D01*
X12651071Y-17500929D01*
X12651071Y-17429500D01*
X12665357Y-17372357D01*
X12679643Y-17343786D01*
X12693928Y-17329500D01*
X12722500Y-17315214D01*
X12951071Y-17586643D02*
X12965357Y-17600929D01*
X12951071Y-17615214D01*
X12936786Y-17600929D01*
X12951071Y-17586643D01*
X12951071Y-17615214D01*
X13151071Y-17315214D02*
X13179643Y-17315214D01*
X13208214Y-17329500D01*
X13222500Y-17343786D01*
X13236786Y-17372357D01*
X13251071Y-17429500D01*
X13251071Y-17500929D01*
X13236786Y-17558072D01*
X13222500Y-17586643D01*
X13208214Y-17600929D01*
X13179643Y-17615214D01*
X13151071Y-17615214D01*
X13122500Y-17600929D01*
X13108214Y-17586643D01*
X13093928Y-17558072D01*
X13079643Y-17500929D01*
X13079643Y-17429500D01*
X13093928Y-17372357D01*
X13108214Y-17343786D01*
X13122500Y-17329500D01*
X13151071Y-17315214D01*
X13508214Y-17415214D02*
X13508214Y-17615214D01*
X13436786Y-17300929D02*
X13365357Y-17515214D01*
X13551071Y-17515214D01*
X13636786Y-17315214D02*
X13836786Y-17315214D01*
X13708214Y-17615214D01*
X13936786Y-17315214D02*
X13936786Y-17372357D01*
X14051071Y-17315214D02*
X14051071Y-17372357D01*
X14493928Y-17729500D02*
X14479643Y-17715214D01*
X14451071Y-17672357D01*
X14436786Y-17643786D01*
X14422500Y-17600929D01*
X14408214Y-17529500D01*
X14408214Y-17472357D01*
X14422500Y-17400929D01*
X14436786Y-17358072D01*
X14451071Y-17329500D01*
X14479643Y-17286643D01*
X14493928Y-17272357D01*
X14593928Y-17343786D02*
X14608214Y-17329500D01*
X14636786Y-17315214D01*
X14708214Y-17315214D01*
X14736786Y-17329500D01*
X14751071Y-17343786D01*
X14765357Y-17372357D01*
X14765357Y-17400929D01*
X14751071Y-17443786D01*
X14579643Y-17615214D01*
X14765357Y-17615214D01*
X15122500Y-17615214D02*
X15122500Y-17315214D01*
X15251071Y-17615214D02*
X15251071Y-17458072D01*
X15236786Y-17429500D01*
X15208214Y-17415214D01*
X15165357Y-17415214D01*
X15136786Y-17429500D01*
X15122500Y-17443786D01*
X15436786Y-17615214D02*
X15408214Y-17600929D01*
X15393928Y-17586643D01*
X15379643Y-17558072D01*
X15379643Y-17472357D01*
X15393928Y-17443786D01*
X15408214Y-17429500D01*
X15436786Y-17415214D01*
X15479643Y-17415214D01*
X15508214Y-17429500D01*
X15522500Y-17443786D01*
X15536786Y-17472357D01*
X15536786Y-17558072D01*
X15522500Y-17586643D01*
X15508214Y-17600929D01*
X15479643Y-17615214D01*
X15436786Y-17615214D01*
X15708214Y-17615214D02*
X15679643Y-17600929D01*
X15665357Y-17572357D01*
X15665357Y-17315214D01*
X15936786Y-17600929D02*
X15908214Y-17615214D01*
X15851071Y-17615214D01*
X15822500Y-17600929D01*
X15808214Y-17572357D01*
X15808214Y-17458072D01*
X15822500Y-17429500D01*
X15851071Y-17415214D01*
X15908214Y-17415214D01*
X15936786Y-17429500D01*
X15951071Y-17458072D01*
X15951071Y-17486643D01*
X15808214Y-17515214D01*
X16065357Y-17600929D02*
X16093928Y-17615214D01*
X16151071Y-17615214D01*
X16179643Y-17600929D01*
X16193928Y-17572357D01*
X16193928Y-17558072D01*
X16179643Y-17529500D01*
X16151071Y-17515214D01*
X16108214Y-17515214D01*
X16079643Y-17500929D01*
X16065357Y-17472357D01*
X16065357Y-17458072D01*
X16079643Y-17429500D01*
X16108214Y-17415214D01*
X16151071Y-17415214D01*
X16179643Y-17429500D01*
X16293928Y-17729500D02*
X16308214Y-17715214D01*
X16336786Y-17672357D01*
X16351071Y-17643786D01*
X16365357Y-17600929D01*
X16379643Y-17529500D01*
X16379643Y-17472357D01*
X16365357Y-17400929D01*
X16351071Y-17358072D01*
X16336786Y-17329500D01*
X16308214Y-17286643D01*
X16293928Y-17272357D01*
M02*
