%TF.GenerationSoftware,KiCad,Pcbnew,(5.1.6)-1*%
%TF.CreationDate,2021-01-18T21:57:41+00:00*%
%TF.ProjectId,z80 Processor,7a383020-5072-46f6-9365-73736f722e6b,v01*%
%TF.SameCoordinates,Original*%
%TF.FileFunction,Legend,Top*%
%TF.FilePolarity,Positive*%
%FSLAX46Y46*%
G04 Gerber Fmt 4.6, Leading zero omitted, Abs format (unit mm)*
G04 Created by KiCad (PCBNEW (5.1.6)-1) date 2021-01-18 21:57:41*
%MOMM*%
%LPD*%
G01*
G04 APERTURE LIST*
%ADD10C,0.150000*%
%ADD11C,0.010000*%
%ADD12C,0.120000*%
G04 APERTURE END LIST*
D10*
X104380952Y-57459523D02*
X107047619Y-57459523D01*
X104380952Y-61459523D01*
X107047619Y-61459523D01*
X109142857Y-59173809D02*
X108761904Y-58983333D01*
X108571428Y-58792857D01*
X108380952Y-58411904D01*
X108380952Y-58221428D01*
X108571428Y-57840476D01*
X108761904Y-57650000D01*
X109142857Y-57459523D01*
X109904761Y-57459523D01*
X110285714Y-57650000D01*
X110476190Y-57840476D01*
X110666666Y-58221428D01*
X110666666Y-58411904D01*
X110476190Y-58792857D01*
X110285714Y-58983333D01*
X109904761Y-59173809D01*
X109142857Y-59173809D01*
X108761904Y-59364285D01*
X108571428Y-59554761D01*
X108380952Y-59935714D01*
X108380952Y-60697619D01*
X108571428Y-61078571D01*
X108761904Y-61269047D01*
X109142857Y-61459523D01*
X109904761Y-61459523D01*
X110285714Y-61269047D01*
X110476190Y-61078571D01*
X110666666Y-60697619D01*
X110666666Y-59935714D01*
X110476190Y-59554761D01*
X110285714Y-59364285D01*
X109904761Y-59173809D01*
X113142857Y-57459523D02*
X113523809Y-57459523D01*
X113904761Y-57650000D01*
X114095238Y-57840476D01*
X114285714Y-58221428D01*
X114476190Y-58983333D01*
X114476190Y-59935714D01*
X114285714Y-60697619D01*
X114095238Y-61078571D01*
X113904761Y-61269047D01*
X113523809Y-61459523D01*
X113142857Y-61459523D01*
X112761904Y-61269047D01*
X112571428Y-61078571D01*
X112380952Y-60697619D01*
X112190476Y-59935714D01*
X112190476Y-58983333D01*
X112380952Y-58221428D01*
X112571428Y-57840476D01*
X112761904Y-57650000D01*
X113142857Y-57459523D01*
X118666666Y-57459523D02*
X120952380Y-57459523D01*
X119809523Y-61459523D02*
X119809523Y-57459523D01*
X123809523Y-61269047D02*
X123428571Y-61459523D01*
X122666666Y-61459523D01*
X122285714Y-61269047D01*
X122095238Y-60888095D01*
X122095238Y-59364285D01*
X122285714Y-58983333D01*
X122666666Y-58792857D01*
X123428571Y-58792857D01*
X123809523Y-58983333D01*
X124000000Y-59364285D01*
X124000000Y-59745238D01*
X122095238Y-60126190D01*
X125523809Y-61269047D02*
X125904761Y-61459523D01*
X126666666Y-61459523D01*
X127047619Y-61269047D01*
X127238095Y-60888095D01*
X127238095Y-60697619D01*
X127047619Y-60316666D01*
X126666666Y-60126190D01*
X126095238Y-60126190D01*
X125714285Y-59935714D01*
X125523809Y-59554761D01*
X125523809Y-59364285D01*
X125714285Y-58983333D01*
X126095238Y-58792857D01*
X126666666Y-58792857D01*
X127047619Y-58983333D01*
X128380952Y-58792857D02*
X129904761Y-58792857D01*
X128952380Y-57459523D02*
X128952380Y-60888095D01*
X129142857Y-61269047D01*
X129523809Y-61459523D01*
X129904761Y-61459523D01*
X132761904Y-61269047D02*
X132380952Y-61459523D01*
X131619047Y-61459523D01*
X131238095Y-61269047D01*
X131047619Y-60888095D01*
X131047619Y-59364285D01*
X131238095Y-58983333D01*
X131619047Y-58792857D01*
X132380952Y-58792857D01*
X132761904Y-58983333D01*
X132952380Y-59364285D01*
X132952380Y-59745238D01*
X131047619Y-60126190D01*
X134666666Y-61459523D02*
X134666666Y-58792857D01*
X134666666Y-59554761D02*
X134857142Y-59173809D01*
X135047619Y-58983333D01*
X135428571Y-58792857D01*
X135809523Y-58792857D01*
X154064285Y-59857142D02*
X154350000Y-59952380D01*
X154445238Y-60047619D01*
X154540476Y-60238095D01*
X154540476Y-60523809D01*
X154445238Y-60714285D01*
X154350000Y-60809523D01*
X154159523Y-60904761D01*
X153397619Y-60904761D01*
X153397619Y-58904761D01*
X154064285Y-58904761D01*
X154254761Y-59000000D01*
X154350000Y-59095238D01*
X154445238Y-59285714D01*
X154445238Y-59476190D01*
X154350000Y-59666666D01*
X154254761Y-59761904D01*
X154064285Y-59857142D01*
X153397619Y-59857142D01*
X155397619Y-60904761D02*
X155397619Y-59571428D01*
X155397619Y-58904761D02*
X155302380Y-59000000D01*
X155397619Y-59095238D01*
X155492857Y-59000000D01*
X155397619Y-58904761D01*
X155397619Y-59095238D01*
X156064285Y-59571428D02*
X156826190Y-59571428D01*
X156350000Y-58904761D02*
X156350000Y-60619047D01*
X156445238Y-60809523D01*
X156635714Y-60904761D01*
X156826190Y-60904761D01*
X157302380Y-59571428D02*
X157683333Y-60904761D01*
X158064285Y-59952380D01*
X158445238Y-60904761D01*
X158826190Y-59571428D01*
X159588095Y-60904761D02*
X159588095Y-59571428D01*
X159588095Y-59952380D02*
X159683333Y-59761904D01*
X159778571Y-59666666D01*
X159969047Y-59571428D01*
X160159523Y-59571428D01*
X161683333Y-60904761D02*
X161683333Y-59857142D01*
X161588095Y-59666666D01*
X161397619Y-59571428D01*
X161016666Y-59571428D01*
X160826190Y-59666666D01*
X161683333Y-60809523D02*
X161492857Y-60904761D01*
X161016666Y-60904761D01*
X160826190Y-60809523D01*
X160730952Y-60619047D01*
X160730952Y-60428571D01*
X160826190Y-60238095D01*
X161016666Y-60142857D01*
X161492857Y-60142857D01*
X161683333Y-60047619D01*
X162635714Y-59571428D02*
X162635714Y-60904761D01*
X162635714Y-59761904D02*
X162730952Y-59666666D01*
X162921428Y-59571428D01*
X163207142Y-59571428D01*
X163397619Y-59666666D01*
X163492857Y-59857142D01*
X163492857Y-60904761D01*
X165302380Y-59571428D02*
X165302380Y-61190476D01*
X165207142Y-61380952D01*
X165111904Y-61476190D01*
X164921428Y-61571428D01*
X164635714Y-61571428D01*
X164445238Y-61476190D01*
X165302380Y-60809523D02*
X165111904Y-60904761D01*
X164730952Y-60904761D01*
X164540476Y-60809523D01*
X164445238Y-60714285D01*
X164350000Y-60523809D01*
X164350000Y-59952380D01*
X164445238Y-59761904D01*
X164540476Y-59666666D01*
X164730952Y-59571428D01*
X165111904Y-59571428D01*
X165302380Y-59666666D01*
X166540476Y-60904761D02*
X166350000Y-60809523D01*
X166254761Y-60619047D01*
X166254761Y-58904761D01*
X168064285Y-60809523D02*
X167873809Y-60904761D01*
X167492857Y-60904761D01*
X167302380Y-60809523D01*
X167207142Y-60619047D01*
X167207142Y-59857142D01*
X167302380Y-59666666D01*
X167492857Y-59571428D01*
X167873809Y-59571428D01*
X168064285Y-59666666D01*
X168159523Y-59857142D01*
X168159523Y-60047619D01*
X167207142Y-60238095D01*
X169016666Y-60904761D02*
X169016666Y-59571428D01*
X169016666Y-59952380D02*
X169111904Y-59761904D01*
X169207142Y-59666666D01*
X169397619Y-59571428D01*
X169588095Y-59571428D01*
X103722619Y-109559523D02*
X103722619Y-110226190D01*
X102722619Y-109559523D01*
X102722619Y-110226190D01*
X103294047Y-110749999D02*
X103341666Y-110654761D01*
X103389285Y-110607142D01*
X103484523Y-110559523D01*
X103532142Y-110559523D01*
X103627380Y-110607142D01*
X103675000Y-110654761D01*
X103722619Y-110749999D01*
X103722619Y-110940476D01*
X103675000Y-111035714D01*
X103627380Y-111083333D01*
X103532142Y-111130952D01*
X103484523Y-111130952D01*
X103389285Y-111083333D01*
X103341666Y-111035714D01*
X103294047Y-110940476D01*
X103294047Y-110749999D01*
X103246428Y-110654761D01*
X103198809Y-110607142D01*
X103103571Y-110559523D01*
X102913095Y-110559523D01*
X102817857Y-110607142D01*
X102770238Y-110654761D01*
X102722619Y-110749999D01*
X102722619Y-110940476D01*
X102770238Y-111035714D01*
X102817857Y-111083333D01*
X102913095Y-111130952D01*
X103103571Y-111130952D01*
X103198809Y-111083333D01*
X103246428Y-111035714D01*
X103294047Y-110940476D01*
X103722619Y-111749999D02*
X103722619Y-111845238D01*
X103675000Y-111940476D01*
X103627380Y-111988095D01*
X103532142Y-112035714D01*
X103341666Y-112083333D01*
X103103571Y-112083333D01*
X102913095Y-112035714D01*
X102817857Y-111988095D01*
X102770238Y-111940476D01*
X102722619Y-111845238D01*
X102722619Y-111749999D01*
X102770238Y-111654761D01*
X102817857Y-111607142D01*
X102913095Y-111559523D01*
X103103571Y-111511904D01*
X103341666Y-111511904D01*
X103532142Y-111559523D01*
X103627380Y-111607142D01*
X103675000Y-111654761D01*
X103722619Y-111749999D01*
X102722619Y-113273809D02*
X103722619Y-113273809D01*
X103722619Y-113654761D01*
X103675000Y-113749999D01*
X103627380Y-113797619D01*
X103532142Y-113845238D01*
X103389285Y-113845238D01*
X103294047Y-113797619D01*
X103246428Y-113749999D01*
X103198809Y-113654761D01*
X103198809Y-113273809D01*
X102722619Y-114273809D02*
X103389285Y-114273809D01*
X103198809Y-114273809D02*
X103294047Y-114321428D01*
X103341666Y-114369047D01*
X103389285Y-114464285D01*
X103389285Y-114559523D01*
X102722619Y-115035714D02*
X102770238Y-114940476D01*
X102817857Y-114892857D01*
X102913095Y-114845238D01*
X103198809Y-114845238D01*
X103294047Y-114892857D01*
X103341666Y-114940476D01*
X103389285Y-115035714D01*
X103389285Y-115178571D01*
X103341666Y-115273809D01*
X103294047Y-115321428D01*
X103198809Y-115369047D01*
X102913095Y-115369047D01*
X102817857Y-115321428D01*
X102770238Y-115273809D01*
X102722619Y-115178571D01*
X102722619Y-115035714D01*
X102770238Y-116226190D02*
X102722619Y-116130952D01*
X102722619Y-115940476D01*
X102770238Y-115845238D01*
X102817857Y-115797619D01*
X102913095Y-115749999D01*
X103198809Y-115749999D01*
X103294047Y-115797619D01*
X103341666Y-115845238D01*
X103389285Y-115940476D01*
X103389285Y-116130952D01*
X103341666Y-116226190D01*
X102770238Y-117035714D02*
X102722619Y-116940476D01*
X102722619Y-116749999D01*
X102770238Y-116654761D01*
X102865476Y-116607142D01*
X103246428Y-116607142D01*
X103341666Y-116654761D01*
X103389285Y-116749999D01*
X103389285Y-116940476D01*
X103341666Y-117035714D01*
X103246428Y-117083333D01*
X103151190Y-117083333D01*
X103055952Y-116607142D01*
X102770238Y-117464285D02*
X102722619Y-117559523D01*
X102722619Y-117749999D01*
X102770238Y-117845238D01*
X102865476Y-117892857D01*
X102913095Y-117892857D01*
X103008333Y-117845238D01*
X103055952Y-117749999D01*
X103055952Y-117607142D01*
X103103571Y-117511904D01*
X103198809Y-117464285D01*
X103246428Y-117464285D01*
X103341666Y-117511904D01*
X103389285Y-117607142D01*
X103389285Y-117749999D01*
X103341666Y-117845238D01*
X102770238Y-118273809D02*
X102722619Y-118369047D01*
X102722619Y-118559523D01*
X102770238Y-118654761D01*
X102865476Y-118702380D01*
X102913095Y-118702380D01*
X103008333Y-118654761D01*
X103055952Y-118559523D01*
X103055952Y-118416666D01*
X103103571Y-118321428D01*
X103198809Y-118273809D01*
X103246428Y-118273809D01*
X103341666Y-118321428D01*
X103389285Y-118416666D01*
X103389285Y-118559523D01*
X103341666Y-118654761D01*
X102722619Y-119273809D02*
X102770238Y-119178571D01*
X102817857Y-119130952D01*
X102913095Y-119083333D01*
X103198809Y-119083333D01*
X103294047Y-119130952D01*
X103341666Y-119178571D01*
X103389285Y-119273809D01*
X103389285Y-119416666D01*
X103341666Y-119511904D01*
X103294047Y-119559523D01*
X103198809Y-119607142D01*
X102913095Y-119607142D01*
X102817857Y-119559523D01*
X102770238Y-119511904D01*
X102722619Y-119416666D01*
X102722619Y-119273809D01*
X102722619Y-120035714D02*
X103389285Y-120035714D01*
X103198809Y-120035714D02*
X103294047Y-120083333D01*
X103341666Y-120130952D01*
X103389285Y-120226190D01*
X103389285Y-120321428D01*
X103722619Y-121273809D02*
X103722619Y-121845238D01*
X102722619Y-121559523D02*
X103722619Y-121559523D01*
X102770238Y-122559523D02*
X102722619Y-122464285D01*
X102722619Y-122273809D01*
X102770238Y-122178571D01*
X102865476Y-122130952D01*
X103246428Y-122130952D01*
X103341666Y-122178571D01*
X103389285Y-122273809D01*
X103389285Y-122464285D01*
X103341666Y-122559523D01*
X103246428Y-122607142D01*
X103151190Y-122607142D01*
X103055952Y-122130952D01*
X102770238Y-122988095D02*
X102722619Y-123083333D01*
X102722619Y-123273809D01*
X102770238Y-123369047D01*
X102865476Y-123416666D01*
X102913095Y-123416666D01*
X103008333Y-123369047D01*
X103055952Y-123273809D01*
X103055952Y-123130952D01*
X103103571Y-123035714D01*
X103198809Y-122988095D01*
X103246428Y-122988095D01*
X103341666Y-123035714D01*
X103389285Y-123130952D01*
X103389285Y-123273809D01*
X103341666Y-123369047D01*
X103389285Y-123702380D02*
X103389285Y-124083333D01*
X103722619Y-123845238D02*
X102865476Y-123845238D01*
X102770238Y-123892857D01*
X102722619Y-123988095D01*
X102722619Y-124083333D01*
X102770238Y-124797619D02*
X102722619Y-124702380D01*
X102722619Y-124511904D01*
X102770238Y-124416666D01*
X102865476Y-124369047D01*
X103246428Y-124369047D01*
X103341666Y-124416666D01*
X103389285Y-124511904D01*
X103389285Y-124702380D01*
X103341666Y-124797619D01*
X103246428Y-124845238D01*
X103151190Y-124845238D01*
X103055952Y-124369047D01*
X102722619Y-125273809D02*
X103389285Y-125273809D01*
X103198809Y-125273809D02*
X103294047Y-125321428D01*
X103341666Y-125369047D01*
X103389285Y-125464285D01*
X103389285Y-125559523D01*
X103389285Y-126559523D02*
X102722619Y-126797619D01*
X103389285Y-127035714D01*
X103722619Y-127607142D02*
X103722619Y-127702380D01*
X103675000Y-127797619D01*
X103627380Y-127845238D01*
X103532142Y-127892857D01*
X103341666Y-127940476D01*
X103103571Y-127940476D01*
X102913095Y-127892857D01*
X102817857Y-127845238D01*
X102770238Y-127797619D01*
X102722619Y-127702380D01*
X102722619Y-127607142D01*
X102770238Y-127511904D01*
X102817857Y-127464285D01*
X102913095Y-127416666D01*
X103103571Y-127369047D01*
X103341666Y-127369047D01*
X103532142Y-127416666D01*
X103627380Y-127464285D01*
X103675000Y-127511904D01*
X103722619Y-127607142D01*
X102722619Y-128892857D02*
X102722619Y-128321428D01*
X102722619Y-128607142D02*
X103722619Y-128607142D01*
X103579761Y-128511904D01*
X103484523Y-128416666D01*
X103436904Y-128321428D01*
X101596428Y-112392857D02*
X101548809Y-112535714D01*
X101501190Y-112583333D01*
X101405952Y-112630952D01*
X101263095Y-112630952D01*
X101167857Y-112583333D01*
X101120238Y-112535714D01*
X101072619Y-112440476D01*
X101072619Y-112059523D01*
X102072619Y-112059523D01*
X102072619Y-112392857D01*
X102025000Y-112488095D01*
X101977380Y-112535714D01*
X101882142Y-112583333D01*
X101786904Y-112583333D01*
X101691666Y-112535714D01*
X101644047Y-112488095D01*
X101596428Y-112392857D01*
X101596428Y-112059523D01*
X101739285Y-112964285D02*
X101072619Y-113202380D01*
X101739285Y-113440476D02*
X101072619Y-113202380D01*
X100834523Y-113107142D01*
X100786904Y-113059523D01*
X100739285Y-112964285D01*
X102025000Y-115107142D02*
X102072619Y-115011904D01*
X102072619Y-114869047D01*
X102025000Y-114726190D01*
X101929761Y-114630952D01*
X101834523Y-114583333D01*
X101644047Y-114535714D01*
X101501190Y-114535714D01*
X101310714Y-114583333D01*
X101215476Y-114630952D01*
X101120238Y-114726190D01*
X101072619Y-114869047D01*
X101072619Y-114964285D01*
X101120238Y-115107142D01*
X101167857Y-115154761D01*
X101501190Y-115154761D01*
X101501190Y-114964285D01*
X101167857Y-115583333D02*
X101120238Y-115630952D01*
X101072619Y-115583333D01*
X101120238Y-115535714D01*
X101167857Y-115583333D01*
X101072619Y-115583333D01*
X101072619Y-116059523D02*
X102072619Y-116059523D01*
X102072619Y-116440476D01*
X102025000Y-116535714D01*
X101977380Y-116583333D01*
X101882142Y-116630952D01*
X101739285Y-116630952D01*
X101644047Y-116583333D01*
X101596428Y-116535714D01*
X101548809Y-116440476D01*
X101548809Y-116059523D01*
X101072619Y-117059523D02*
X101739285Y-117059523D01*
X102072619Y-117059523D02*
X102025000Y-117011904D01*
X101977380Y-117059523D01*
X102025000Y-117107142D01*
X102072619Y-117059523D01*
X101977380Y-117059523D01*
X101072619Y-117535714D02*
X101739285Y-117535714D01*
X101644047Y-117535714D02*
X101691666Y-117583333D01*
X101739285Y-117678571D01*
X101739285Y-117821428D01*
X101691666Y-117916666D01*
X101596428Y-117964285D01*
X101072619Y-117964285D01*
X101596428Y-117964285D02*
X101691666Y-118011904D01*
X101739285Y-118107142D01*
X101739285Y-118250000D01*
X101691666Y-118345238D01*
X101596428Y-118392857D01*
X101072619Y-118392857D01*
X101072619Y-118869047D02*
X102072619Y-118869047D01*
X101691666Y-118869047D02*
X101739285Y-118964285D01*
X101739285Y-119154761D01*
X101691666Y-119250000D01*
X101644047Y-119297619D01*
X101548809Y-119345238D01*
X101263095Y-119345238D01*
X101167857Y-119297619D01*
X101120238Y-119250000D01*
X101072619Y-119154761D01*
X101072619Y-118964285D01*
X101120238Y-118869047D01*
X101072619Y-119916666D02*
X101120238Y-119821428D01*
X101215476Y-119773809D01*
X102072619Y-119773809D01*
X101072619Y-120440476D02*
X101120238Y-120345238D01*
X101167857Y-120297619D01*
X101263095Y-120250000D01*
X101548809Y-120250000D01*
X101644047Y-120297619D01*
X101691666Y-120345238D01*
X101739285Y-120440476D01*
X101739285Y-120583333D01*
X101691666Y-120678571D01*
X101644047Y-120726190D01*
X101548809Y-120773809D01*
X101263095Y-120773809D01*
X101167857Y-120726190D01*
X101120238Y-120678571D01*
X101072619Y-120583333D01*
X101072619Y-120440476D01*
X101739285Y-121059523D02*
X101739285Y-121440476D01*
X102072619Y-121202380D02*
X101215476Y-121202380D01*
X101120238Y-121250000D01*
X101072619Y-121345238D01*
X101072619Y-121440476D01*
X101739285Y-121630952D02*
X101739285Y-122011904D01*
X102072619Y-121773809D02*
X101215476Y-121773809D01*
X101120238Y-121821428D01*
X101072619Y-121916666D01*
X101072619Y-122011904D01*
X101977380Y-123059523D02*
X102025000Y-123107142D01*
X102072619Y-123202380D01*
X102072619Y-123440476D01*
X102025000Y-123535714D01*
X101977380Y-123583333D01*
X101882142Y-123630952D01*
X101786904Y-123630952D01*
X101644047Y-123583333D01*
X101072619Y-123011904D01*
X101072619Y-123630952D01*
X102072619Y-124249999D02*
X102072619Y-124345238D01*
X102025000Y-124440476D01*
X101977380Y-124488095D01*
X101882142Y-124535714D01*
X101691666Y-124583333D01*
X101453571Y-124583333D01*
X101263095Y-124535714D01*
X101167857Y-124488095D01*
X101120238Y-124440476D01*
X101072619Y-124345238D01*
X101072619Y-124249999D01*
X101120238Y-124154761D01*
X101167857Y-124107142D01*
X101263095Y-124059523D01*
X101453571Y-124011904D01*
X101691666Y-124011904D01*
X101882142Y-124059523D01*
X101977380Y-124107142D01*
X102025000Y-124154761D01*
X102072619Y-124249999D01*
X101977380Y-124964285D02*
X102025000Y-125011904D01*
X102072619Y-125107142D01*
X102072619Y-125345238D01*
X102025000Y-125440476D01*
X101977380Y-125488095D01*
X101882142Y-125535714D01*
X101786904Y-125535714D01*
X101644047Y-125488095D01*
X101072619Y-124916666D01*
X101072619Y-125535714D01*
X101072619Y-126488095D02*
X101072619Y-125916666D01*
X101072619Y-126202380D02*
X102072619Y-126202380D01*
X101929761Y-126107142D01*
X101834523Y-126011904D01*
X101786904Y-125916666D01*
X172285714Y-110602380D02*
X171714285Y-110602380D01*
X172000000Y-110602380D02*
X172000000Y-109602380D01*
X171904761Y-109745238D01*
X171809523Y-109840476D01*
X171714285Y-109888095D01*
X172152380Y-103214285D02*
X172152380Y-103785714D01*
X172152380Y-103500000D02*
X171152380Y-103500000D01*
X171295238Y-103595238D01*
X171390476Y-103690476D01*
X171438095Y-103785714D01*
X177873809Y-104152380D02*
X177873809Y-103152380D01*
X178921428Y-104057142D02*
X178873809Y-104104761D01*
X178730952Y-104152380D01*
X178635714Y-104152380D01*
X178492857Y-104104761D01*
X178397619Y-104009523D01*
X178350000Y-103914285D01*
X178302380Y-103723809D01*
X178302380Y-103580952D01*
X178350000Y-103390476D01*
X178397619Y-103295238D01*
X178492857Y-103200000D01*
X178635714Y-103152380D01*
X178730952Y-103152380D01*
X178873809Y-103200000D01*
X178921428Y-103247619D01*
X179302380Y-104104761D02*
X179445238Y-104152380D01*
X179683333Y-104152380D01*
X179778571Y-104104761D01*
X179826190Y-104057142D01*
X179873809Y-103961904D01*
X179873809Y-103866666D01*
X179826190Y-103771428D01*
X179778571Y-103723809D01*
X179683333Y-103676190D01*
X179492857Y-103628571D01*
X179397619Y-103580952D01*
X179350000Y-103533333D01*
X179302380Y-103438095D01*
X179302380Y-103342857D01*
X179350000Y-103247619D01*
X179397619Y-103200000D01*
X179492857Y-103152380D01*
X179730952Y-103152380D01*
X179873809Y-103200000D01*
X180302380Y-104152380D02*
X180302380Y-103152380D01*
X180683333Y-103152380D01*
X180778571Y-103200000D01*
X180826190Y-103247619D01*
X180873809Y-103342857D01*
X180873809Y-103485714D01*
X180826190Y-103580952D01*
X180778571Y-103628571D01*
X180683333Y-103676190D01*
X180302380Y-103676190D01*
X175392857Y-96266666D02*
X175869047Y-96266666D01*
X175297619Y-96552380D02*
X175630952Y-95552380D01*
X175964285Y-96552380D01*
X176726190Y-96552380D02*
X176726190Y-95552380D01*
X176726190Y-96504761D02*
X176630952Y-96552380D01*
X176440476Y-96552380D01*
X176345238Y-96504761D01*
X176297619Y-96457142D01*
X176250000Y-96361904D01*
X176250000Y-96076190D01*
X176297619Y-95980952D01*
X176345238Y-95933333D01*
X176440476Y-95885714D01*
X176630952Y-95885714D01*
X176726190Y-95933333D01*
X177630952Y-96552380D02*
X177630952Y-95552380D01*
X177630952Y-96504761D02*
X177535714Y-96552380D01*
X177345238Y-96552380D01*
X177250000Y-96504761D01*
X177202380Y-96457142D01*
X177154761Y-96361904D01*
X177154761Y-96076190D01*
X177202380Y-95980952D01*
X177250000Y-95933333D01*
X177345238Y-95885714D01*
X177535714Y-95885714D01*
X177630952Y-95933333D01*
X178107142Y-96552380D02*
X178107142Y-95885714D01*
X178107142Y-96076190D02*
X178154761Y-95980952D01*
X178202380Y-95933333D01*
X178297619Y-95885714D01*
X178392857Y-95885714D01*
X179107142Y-96504761D02*
X179011904Y-96552380D01*
X178821428Y-96552380D01*
X178726190Y-96504761D01*
X178678571Y-96409523D01*
X178678571Y-96028571D01*
X178726190Y-95933333D01*
X178821428Y-95885714D01*
X179011904Y-95885714D01*
X179107142Y-95933333D01*
X179154761Y-96028571D01*
X179154761Y-96123809D01*
X178678571Y-96219047D01*
X179535714Y-96504761D02*
X179630952Y-96552380D01*
X179821428Y-96552380D01*
X179916666Y-96504761D01*
X179964285Y-96409523D01*
X179964285Y-96361904D01*
X179916666Y-96266666D01*
X179821428Y-96219047D01*
X179678571Y-96219047D01*
X179583333Y-96171428D01*
X179535714Y-96076190D01*
X179535714Y-96028571D01*
X179583333Y-95933333D01*
X179678571Y-95885714D01*
X179821428Y-95885714D01*
X179916666Y-95933333D01*
X180345238Y-96504761D02*
X180440476Y-96552380D01*
X180630952Y-96552380D01*
X180726190Y-96504761D01*
X180773809Y-96409523D01*
X180773809Y-96361904D01*
X180726190Y-96266666D01*
X180630952Y-96219047D01*
X180488095Y-96219047D01*
X180392857Y-96171428D01*
X180345238Y-96076190D01*
X180345238Y-96028571D01*
X180392857Y-95933333D01*
X180488095Y-95885714D01*
X180630952Y-95885714D01*
X180726190Y-95933333D01*
X182107142Y-96552380D02*
X182011904Y-96504761D01*
X181964285Y-96409523D01*
X181964285Y-95552380D01*
X182488095Y-96552380D02*
X182488095Y-95885714D01*
X182488095Y-95552380D02*
X182440476Y-95600000D01*
X182488095Y-95647619D01*
X182535714Y-95600000D01*
X182488095Y-95552380D01*
X182488095Y-95647619D01*
X182964285Y-95885714D02*
X182964285Y-96552380D01*
X182964285Y-95980952D02*
X183011904Y-95933333D01*
X183107142Y-95885714D01*
X183250000Y-95885714D01*
X183345238Y-95933333D01*
X183392857Y-96028571D01*
X183392857Y-96552380D01*
X184250000Y-96504761D02*
X184154761Y-96552380D01*
X183964285Y-96552380D01*
X183869047Y-96504761D01*
X183821428Y-96409523D01*
X183821428Y-96028571D01*
X183869047Y-95933333D01*
X183964285Y-95885714D01*
X184154761Y-95885714D01*
X184250000Y-95933333D01*
X184297619Y-96028571D01*
X184297619Y-96123809D01*
X183821428Y-96219047D01*
X184678571Y-96504761D02*
X184773809Y-96552380D01*
X184964285Y-96552380D01*
X185059523Y-96504761D01*
X185107142Y-96409523D01*
X185107142Y-96361904D01*
X185059523Y-96266666D01*
X184964285Y-96219047D01*
X184821428Y-96219047D01*
X184726190Y-96171428D01*
X184678571Y-96076190D01*
X184678571Y-96028571D01*
X184726190Y-95933333D01*
X184821428Y-95885714D01*
X184964285Y-95885714D01*
X185059523Y-95933333D01*
X114464285Y-76427380D02*
X115130952Y-76427380D01*
X114464285Y-77427380D01*
X115130952Y-77427380D01*
X115654761Y-76855952D02*
X115559523Y-76808333D01*
X115511904Y-76760714D01*
X115464285Y-76665476D01*
X115464285Y-76617857D01*
X115511904Y-76522619D01*
X115559523Y-76475000D01*
X115654761Y-76427380D01*
X115845238Y-76427380D01*
X115940476Y-76475000D01*
X115988095Y-76522619D01*
X116035714Y-76617857D01*
X116035714Y-76665476D01*
X115988095Y-76760714D01*
X115940476Y-76808333D01*
X115845238Y-76855952D01*
X115654761Y-76855952D01*
X115559523Y-76903571D01*
X115511904Y-76951190D01*
X115464285Y-77046428D01*
X115464285Y-77236904D01*
X115511904Y-77332142D01*
X115559523Y-77379761D01*
X115654761Y-77427380D01*
X115845238Y-77427380D01*
X115940476Y-77379761D01*
X115988095Y-77332142D01*
X116035714Y-77236904D01*
X116035714Y-77046428D01*
X115988095Y-76951190D01*
X115940476Y-76903571D01*
X115845238Y-76855952D01*
X116654761Y-76427380D02*
X116750000Y-76427380D01*
X116845238Y-76475000D01*
X116892857Y-76522619D01*
X116940476Y-76617857D01*
X116988095Y-76808333D01*
X116988095Y-77046428D01*
X116940476Y-77236904D01*
X116892857Y-77332142D01*
X116845238Y-77379761D01*
X116750000Y-77427380D01*
X116654761Y-77427380D01*
X116559523Y-77379761D01*
X116511904Y-77332142D01*
X116464285Y-77236904D01*
X116416666Y-77046428D01*
X116416666Y-76808333D01*
X116464285Y-76617857D01*
X116511904Y-76522619D01*
X116559523Y-76475000D01*
X116654761Y-76427380D01*
X114511904Y-78982142D02*
X114464285Y-79029761D01*
X114321428Y-79077380D01*
X114226190Y-79077380D01*
X114083333Y-79029761D01*
X113988095Y-78934523D01*
X113940476Y-78839285D01*
X113892857Y-78648809D01*
X113892857Y-78505952D01*
X113940476Y-78315476D01*
X113988095Y-78220238D01*
X114083333Y-78125000D01*
X114226190Y-78077380D01*
X114321428Y-78077380D01*
X114464285Y-78125000D01*
X114511904Y-78172619D01*
X115083333Y-79077380D02*
X114988095Y-79029761D01*
X114940476Y-78934523D01*
X114940476Y-78077380D01*
X115607142Y-79077380D02*
X115511904Y-79029761D01*
X115464285Y-78982142D01*
X115416666Y-78886904D01*
X115416666Y-78601190D01*
X115464285Y-78505952D01*
X115511904Y-78458333D01*
X115607142Y-78410714D01*
X115750000Y-78410714D01*
X115845238Y-78458333D01*
X115892857Y-78505952D01*
X115940476Y-78601190D01*
X115940476Y-78886904D01*
X115892857Y-78982142D01*
X115845238Y-79029761D01*
X115750000Y-79077380D01*
X115607142Y-79077380D01*
X116797619Y-79029761D02*
X116702380Y-79077380D01*
X116511904Y-79077380D01*
X116416666Y-79029761D01*
X116369047Y-78982142D01*
X116321428Y-78886904D01*
X116321428Y-78601190D01*
X116369047Y-78505952D01*
X116416666Y-78458333D01*
X116511904Y-78410714D01*
X116702380Y-78410714D01*
X116797619Y-78458333D01*
X117226190Y-79077380D02*
X117226190Y-78077380D01*
X117321428Y-78696428D02*
X117607142Y-79077380D01*
X117607142Y-78410714D02*
X117226190Y-78791666D01*
X147302380Y-101702380D02*
X146969047Y-101226190D01*
X146730952Y-101702380D02*
X146730952Y-100702380D01*
X147111904Y-100702380D01*
X147207142Y-100750000D01*
X147254761Y-100797619D01*
X147302380Y-100892857D01*
X147302380Y-101035714D01*
X147254761Y-101130952D01*
X147207142Y-101178571D01*
X147111904Y-101226190D01*
X146730952Y-101226190D01*
X148111904Y-101654761D02*
X148016666Y-101702380D01*
X147826190Y-101702380D01*
X147730952Y-101654761D01*
X147683333Y-101559523D01*
X147683333Y-101178571D01*
X147730952Y-101083333D01*
X147826190Y-101035714D01*
X148016666Y-101035714D01*
X148111904Y-101083333D01*
X148159523Y-101178571D01*
X148159523Y-101273809D01*
X147683333Y-101369047D01*
X148540476Y-101654761D02*
X148635714Y-101702380D01*
X148826190Y-101702380D01*
X148921428Y-101654761D01*
X148969047Y-101559523D01*
X148969047Y-101511904D01*
X148921428Y-101416666D01*
X148826190Y-101369047D01*
X148683333Y-101369047D01*
X148588095Y-101321428D01*
X148540476Y-101226190D01*
X148540476Y-101178571D01*
X148588095Y-101083333D01*
X148683333Y-101035714D01*
X148826190Y-101035714D01*
X148921428Y-101083333D01*
X149778571Y-101654761D02*
X149683333Y-101702380D01*
X149492857Y-101702380D01*
X149397619Y-101654761D01*
X149350000Y-101559523D01*
X149350000Y-101178571D01*
X149397619Y-101083333D01*
X149492857Y-101035714D01*
X149683333Y-101035714D01*
X149778571Y-101083333D01*
X149826190Y-101178571D01*
X149826190Y-101273809D01*
X149350000Y-101369047D01*
X150111904Y-101035714D02*
X150492857Y-101035714D01*
X150254761Y-100702380D02*
X150254761Y-101559523D01*
X150302380Y-101654761D01*
X150397619Y-101702380D01*
X150492857Y-101702380D01*
X151492857Y-100702380D02*
X152159523Y-100702380D01*
X151492857Y-101702380D01*
X152159523Y-101702380D01*
X152683333Y-101130952D02*
X152588095Y-101083333D01*
X152540476Y-101035714D01*
X152492857Y-100940476D01*
X152492857Y-100892857D01*
X152540476Y-100797619D01*
X152588095Y-100750000D01*
X152683333Y-100702380D01*
X152873809Y-100702380D01*
X152969047Y-100750000D01*
X153016666Y-100797619D01*
X153064285Y-100892857D01*
X153064285Y-100940476D01*
X153016666Y-101035714D01*
X152969047Y-101083333D01*
X152873809Y-101130952D01*
X152683333Y-101130952D01*
X152588095Y-101178571D01*
X152540476Y-101226190D01*
X152492857Y-101321428D01*
X152492857Y-101511904D01*
X152540476Y-101607142D01*
X152588095Y-101654761D01*
X152683333Y-101702380D01*
X152873809Y-101702380D01*
X152969047Y-101654761D01*
X153016666Y-101607142D01*
X153064285Y-101511904D01*
X153064285Y-101321428D01*
X153016666Y-101226190D01*
X152969047Y-101178571D01*
X152873809Y-101130952D01*
X153683333Y-100702380D02*
X153778571Y-100702380D01*
X153873809Y-100750000D01*
X153921428Y-100797619D01*
X153969047Y-100892857D01*
X154016666Y-101083333D01*
X154016666Y-101321428D01*
X153969047Y-101511904D01*
X153921428Y-101607142D01*
X153873809Y-101654761D01*
X153778571Y-101702380D01*
X153683333Y-101702380D01*
X153588095Y-101654761D01*
X153540476Y-101607142D01*
X153492857Y-101511904D01*
X153445238Y-101321428D01*
X153445238Y-101083333D01*
X153492857Y-100892857D01*
X153540476Y-100797619D01*
X153588095Y-100750000D01*
X153683333Y-100702380D01*
X156116666Y-135971428D02*
X156878571Y-135971428D01*
X156497619Y-136352380D02*
X156497619Y-135590476D01*
X157402380Y-136352380D02*
X157592857Y-136352380D01*
X157688095Y-136304761D01*
X157735714Y-136257142D01*
X157830952Y-136114285D01*
X157878571Y-135923809D01*
X157878571Y-135542857D01*
X157830952Y-135447619D01*
X157783333Y-135400000D01*
X157688095Y-135352380D01*
X157497619Y-135352380D01*
X157402380Y-135400000D01*
X157354761Y-135447619D01*
X157307142Y-135542857D01*
X157307142Y-135780952D01*
X157354761Y-135876190D01*
X157402380Y-135923809D01*
X157497619Y-135971428D01*
X157688095Y-135971428D01*
X157783333Y-135923809D01*
X157830952Y-135876190D01*
X157878571Y-135780952D01*
X158211904Y-135685714D02*
X158450000Y-136352380D01*
X158688095Y-135685714D01*
X160402380Y-136257142D02*
X160354761Y-136304761D01*
X160211904Y-136352380D01*
X160116666Y-136352380D01*
X159973809Y-136304761D01*
X159878571Y-136209523D01*
X159830952Y-136114285D01*
X159783333Y-135923809D01*
X159783333Y-135780952D01*
X159830952Y-135590476D01*
X159878571Y-135495238D01*
X159973809Y-135400000D01*
X160116666Y-135352380D01*
X160211904Y-135352380D01*
X160354761Y-135400000D01*
X160402380Y-135447619D01*
X161211904Y-136304761D02*
X161116666Y-136352380D01*
X160926190Y-136352380D01*
X160830952Y-136304761D01*
X160783333Y-136209523D01*
X160783333Y-135828571D01*
X160830952Y-135733333D01*
X160926190Y-135685714D01*
X161116666Y-135685714D01*
X161211904Y-135733333D01*
X161259523Y-135828571D01*
X161259523Y-135923809D01*
X160783333Y-136019047D01*
X161688095Y-135685714D02*
X161688095Y-136352380D01*
X161688095Y-135780952D02*
X161735714Y-135733333D01*
X161830952Y-135685714D01*
X161973809Y-135685714D01*
X162069047Y-135733333D01*
X162116666Y-135828571D01*
X162116666Y-136352380D01*
X162450000Y-135685714D02*
X162830952Y-135685714D01*
X162592857Y-135352380D02*
X162592857Y-136209523D01*
X162640476Y-136304761D01*
X162735714Y-136352380D01*
X162830952Y-136352380D01*
X163164285Y-136352380D02*
X163164285Y-135685714D01*
X163164285Y-135876190D02*
X163211904Y-135780952D01*
X163259523Y-135733333D01*
X163354761Y-135685714D01*
X163450000Y-135685714D01*
X164164285Y-136304761D02*
X164069047Y-136352380D01*
X163878571Y-136352380D01*
X163783333Y-136304761D01*
X163735714Y-136209523D01*
X163735714Y-135828571D01*
X163783333Y-135733333D01*
X163878571Y-135685714D01*
X164069047Y-135685714D01*
X164164285Y-135733333D01*
X164211904Y-135828571D01*
X164211904Y-135923809D01*
X163735714Y-136019047D01*
X165402380Y-136352380D02*
X165402380Y-135352380D01*
X165783333Y-135352380D01*
X165878571Y-135400000D01*
X165926190Y-135447619D01*
X165973809Y-135542857D01*
X165973809Y-135685714D01*
X165926190Y-135780952D01*
X165878571Y-135828571D01*
X165783333Y-135876190D01*
X165402380Y-135876190D01*
X166545238Y-136352380D02*
X166450000Y-136304761D01*
X166402380Y-136257142D01*
X166354761Y-136161904D01*
X166354761Y-135876190D01*
X166402380Y-135780952D01*
X166450000Y-135733333D01*
X166545238Y-135685714D01*
X166688095Y-135685714D01*
X166783333Y-135733333D01*
X166830952Y-135780952D01*
X166878571Y-135876190D01*
X166878571Y-136161904D01*
X166830952Y-136257142D01*
X166783333Y-136304761D01*
X166688095Y-136352380D01*
X166545238Y-136352380D01*
X167259523Y-136304761D02*
X167354761Y-136352380D01*
X167545238Y-136352380D01*
X167640476Y-136304761D01*
X167688095Y-136209523D01*
X167688095Y-136161904D01*
X167640476Y-136066666D01*
X167545238Y-136019047D01*
X167402380Y-136019047D01*
X167307142Y-135971428D01*
X167259523Y-135876190D01*
X167259523Y-135828571D01*
X167307142Y-135733333D01*
X167402380Y-135685714D01*
X167545238Y-135685714D01*
X167640476Y-135733333D01*
X168116666Y-136352380D02*
X168116666Y-135685714D01*
X168116666Y-135352380D02*
X168069047Y-135400000D01*
X168116666Y-135447619D01*
X168164285Y-135400000D01*
X168116666Y-135352380D01*
X168116666Y-135447619D01*
X168450000Y-135685714D02*
X168830952Y-135685714D01*
X168592857Y-135352380D02*
X168592857Y-136209523D01*
X168640476Y-136304761D01*
X168735714Y-136352380D01*
X168830952Y-136352380D01*
X169164285Y-136352380D02*
X169164285Y-135685714D01*
X169164285Y-135352380D02*
X169116666Y-135400000D01*
X169164285Y-135447619D01*
X169211904Y-135400000D01*
X169164285Y-135352380D01*
X169164285Y-135447619D01*
X169545238Y-135685714D02*
X169783333Y-136352380D01*
X170021428Y-135685714D01*
X170783333Y-136304761D02*
X170688095Y-136352380D01*
X170497619Y-136352380D01*
X170402380Y-136304761D01*
X170354761Y-136209523D01*
X170354761Y-135828571D01*
X170402380Y-135733333D01*
X170497619Y-135685714D01*
X170688095Y-135685714D01*
X170783333Y-135733333D01*
X170830952Y-135828571D01*
X170830952Y-135923809D01*
X170354761Y-136019047D01*
D11*
%TO.C,REF\u002A\u002A*%
G36*
X184978823Y-61674533D02*
G01*
X185010202Y-61696776D01*
X185037911Y-61724485D01*
X185037911Y-62033920D01*
X185037838Y-62125799D01*
X185037495Y-62197840D01*
X185036692Y-62252780D01*
X185035241Y-62293360D01*
X185032952Y-62322317D01*
X185029636Y-62342391D01*
X185025105Y-62356321D01*
X185019169Y-62366845D01*
X185014514Y-62373100D01*
X184983783Y-62397673D01*
X184948496Y-62400341D01*
X184916245Y-62385271D01*
X184905588Y-62376374D01*
X184898464Y-62364557D01*
X184894167Y-62345526D01*
X184891991Y-62314992D01*
X184891228Y-62268662D01*
X184891155Y-62232871D01*
X184891155Y-62098045D01*
X184394444Y-62098045D01*
X184394444Y-62220700D01*
X184393931Y-62276787D01*
X184391876Y-62315333D01*
X184387508Y-62341361D01*
X184380056Y-62359897D01*
X184371047Y-62373100D01*
X184340144Y-62397604D01*
X184305196Y-62400506D01*
X184271738Y-62383089D01*
X184262604Y-62373959D01*
X184256152Y-62361855D01*
X184251897Y-62343001D01*
X184249352Y-62313620D01*
X184248029Y-62269937D01*
X184247443Y-62208175D01*
X184247375Y-62194000D01*
X184246891Y-62077631D01*
X184246641Y-61981727D01*
X184246723Y-61904177D01*
X184247231Y-61842869D01*
X184248262Y-61795690D01*
X184249913Y-61760530D01*
X184252279Y-61735276D01*
X184255457Y-61717817D01*
X184259544Y-61706041D01*
X184264634Y-61697835D01*
X184270266Y-61691645D01*
X184302128Y-61671844D01*
X184335357Y-61674533D01*
X184366735Y-61696776D01*
X184379433Y-61711126D01*
X184387526Y-61726978D01*
X184392042Y-61749554D01*
X184394006Y-61784078D01*
X184394444Y-61835776D01*
X184394444Y-61951289D01*
X184891155Y-61951289D01*
X184891155Y-61832756D01*
X184891662Y-61778148D01*
X184893698Y-61741275D01*
X184898035Y-61717307D01*
X184905447Y-61701415D01*
X184913733Y-61691645D01*
X184945594Y-61671844D01*
X184978823Y-61674533D01*
G37*
X184978823Y-61674533D02*
X185010202Y-61696776D01*
X185037911Y-61724485D01*
X185037911Y-62033920D01*
X185037838Y-62125799D01*
X185037495Y-62197840D01*
X185036692Y-62252780D01*
X185035241Y-62293360D01*
X185032952Y-62322317D01*
X185029636Y-62342391D01*
X185025105Y-62356321D01*
X185019169Y-62366845D01*
X185014514Y-62373100D01*
X184983783Y-62397673D01*
X184948496Y-62400341D01*
X184916245Y-62385271D01*
X184905588Y-62376374D01*
X184898464Y-62364557D01*
X184894167Y-62345526D01*
X184891991Y-62314992D01*
X184891228Y-62268662D01*
X184891155Y-62232871D01*
X184891155Y-62098045D01*
X184394444Y-62098045D01*
X184394444Y-62220700D01*
X184393931Y-62276787D01*
X184391876Y-62315333D01*
X184387508Y-62341361D01*
X184380056Y-62359897D01*
X184371047Y-62373100D01*
X184340144Y-62397604D01*
X184305196Y-62400506D01*
X184271738Y-62383089D01*
X184262604Y-62373959D01*
X184256152Y-62361855D01*
X184251897Y-62343001D01*
X184249352Y-62313620D01*
X184248029Y-62269937D01*
X184247443Y-62208175D01*
X184247375Y-62194000D01*
X184246891Y-62077631D01*
X184246641Y-61981727D01*
X184246723Y-61904177D01*
X184247231Y-61842869D01*
X184248262Y-61795690D01*
X184249913Y-61760530D01*
X184252279Y-61735276D01*
X184255457Y-61717817D01*
X184259544Y-61706041D01*
X184264634Y-61697835D01*
X184270266Y-61691645D01*
X184302128Y-61671844D01*
X184335357Y-61674533D01*
X184366735Y-61696776D01*
X184379433Y-61711126D01*
X184387526Y-61726978D01*
X184392042Y-61749554D01*
X184394006Y-61784078D01*
X184394444Y-61835776D01*
X184394444Y-61951289D01*
X184891155Y-61951289D01*
X184891155Y-61832756D01*
X184891662Y-61778148D01*
X184893698Y-61741275D01*
X184898035Y-61717307D01*
X184905447Y-61701415D01*
X184913733Y-61691645D01*
X184945594Y-61671844D01*
X184978823Y-61674533D01*
G36*
X183713065Y-61669163D02*
G01*
X183791772Y-61669542D01*
X183852863Y-61670333D01*
X183898817Y-61671670D01*
X183932114Y-61673683D01*
X183955236Y-61676506D01*
X183970662Y-61680269D01*
X183980871Y-61685105D01*
X183985813Y-61688822D01*
X184011457Y-61721358D01*
X184014559Y-61755138D01*
X183998711Y-61785826D01*
X183988348Y-61798089D01*
X183977196Y-61806450D01*
X183961035Y-61811657D01*
X183935642Y-61814457D01*
X183896798Y-61815596D01*
X183840280Y-61815821D01*
X183829180Y-61815822D01*
X183683244Y-61815822D01*
X183683244Y-62086756D01*
X183683148Y-62172154D01*
X183682711Y-62237864D01*
X183681712Y-62286774D01*
X183679928Y-62321773D01*
X183677137Y-62345749D01*
X183673117Y-62361593D01*
X183667645Y-62372191D01*
X183660666Y-62380267D01*
X183627734Y-62400112D01*
X183593354Y-62398548D01*
X183562176Y-62375906D01*
X183559886Y-62373100D01*
X183552429Y-62362492D01*
X183546747Y-62350081D01*
X183542601Y-62332850D01*
X183539750Y-62307784D01*
X183537954Y-62271867D01*
X183536972Y-62222083D01*
X183536564Y-62155417D01*
X183536489Y-62079589D01*
X183536489Y-61815822D01*
X183397127Y-61815822D01*
X183337322Y-61815418D01*
X183295918Y-61813840D01*
X183268748Y-61810547D01*
X183251646Y-61804992D01*
X183240443Y-61796631D01*
X183239083Y-61795178D01*
X183222725Y-61761939D01*
X183224172Y-61724362D01*
X183242978Y-61691645D01*
X183250250Y-61685298D01*
X183259627Y-61680266D01*
X183273609Y-61676396D01*
X183294696Y-61673537D01*
X183325389Y-61671535D01*
X183368189Y-61670239D01*
X183425595Y-61669498D01*
X183500110Y-61669158D01*
X183594233Y-61669068D01*
X183614260Y-61669067D01*
X183713065Y-61669163D01*
G37*
X183713065Y-61669163D02*
X183791772Y-61669542D01*
X183852863Y-61670333D01*
X183898817Y-61671670D01*
X183932114Y-61673683D01*
X183955236Y-61676506D01*
X183970662Y-61680269D01*
X183980871Y-61685105D01*
X183985813Y-61688822D01*
X184011457Y-61721358D01*
X184014559Y-61755138D01*
X183998711Y-61785826D01*
X183988348Y-61798089D01*
X183977196Y-61806450D01*
X183961035Y-61811657D01*
X183935642Y-61814457D01*
X183896798Y-61815596D01*
X183840280Y-61815821D01*
X183829180Y-61815822D01*
X183683244Y-61815822D01*
X183683244Y-62086756D01*
X183683148Y-62172154D01*
X183682711Y-62237864D01*
X183681712Y-62286774D01*
X183679928Y-62321773D01*
X183677137Y-62345749D01*
X183673117Y-62361593D01*
X183667645Y-62372191D01*
X183660666Y-62380267D01*
X183627734Y-62400112D01*
X183593354Y-62398548D01*
X183562176Y-62375906D01*
X183559886Y-62373100D01*
X183552429Y-62362492D01*
X183546747Y-62350081D01*
X183542601Y-62332850D01*
X183539750Y-62307784D01*
X183537954Y-62271867D01*
X183536972Y-62222083D01*
X183536564Y-62155417D01*
X183536489Y-62079589D01*
X183536489Y-61815822D01*
X183397127Y-61815822D01*
X183337322Y-61815418D01*
X183295918Y-61813840D01*
X183268748Y-61810547D01*
X183251646Y-61804992D01*
X183240443Y-61796631D01*
X183239083Y-61795178D01*
X183222725Y-61761939D01*
X183224172Y-61724362D01*
X183242978Y-61691645D01*
X183250250Y-61685298D01*
X183259627Y-61680266D01*
X183273609Y-61676396D01*
X183294696Y-61673537D01*
X183325389Y-61671535D01*
X183368189Y-61670239D01*
X183425595Y-61669498D01*
X183500110Y-61669158D01*
X183594233Y-61669068D01*
X183614260Y-61669067D01*
X183713065Y-61669163D01*
G36*
X182938614Y-61675877D02*
G01*
X182962327Y-61690647D01*
X182988978Y-61712227D01*
X182988978Y-62033773D01*
X182988893Y-62127830D01*
X182988529Y-62201932D01*
X182987724Y-62258704D01*
X182986313Y-62300768D01*
X182984133Y-62330748D01*
X182981021Y-62351267D01*
X182976814Y-62364949D01*
X182971348Y-62374416D01*
X182967472Y-62379082D01*
X182936034Y-62399575D01*
X182900233Y-62398739D01*
X182868873Y-62381264D01*
X182842222Y-62359684D01*
X182842222Y-61712227D01*
X182868873Y-61690647D01*
X182894594Y-61674949D01*
X182915600Y-61669067D01*
X182938614Y-61675877D01*
G37*
X182938614Y-61675877D02*
X182962327Y-61690647D01*
X182988978Y-61712227D01*
X182988978Y-62033773D01*
X182988893Y-62127830D01*
X182988529Y-62201932D01*
X182987724Y-62258704D01*
X182986313Y-62300768D01*
X182984133Y-62330748D01*
X182981021Y-62351267D01*
X182976814Y-62364949D01*
X182971348Y-62374416D01*
X182967472Y-62379082D01*
X182936034Y-62399575D01*
X182900233Y-62398739D01*
X182868873Y-62381264D01*
X182842222Y-62359684D01*
X182842222Y-61712227D01*
X182868873Y-61690647D01*
X182894594Y-61674949D01*
X182915600Y-61669067D01*
X182938614Y-61675877D01*
G36*
X182494665Y-61671034D02*
G01*
X182514255Y-61678035D01*
X182515010Y-61678377D01*
X182541613Y-61698678D01*
X182556270Y-61719561D01*
X182559138Y-61729352D01*
X182558996Y-61742361D01*
X182554961Y-61760895D01*
X182546146Y-61787257D01*
X182531669Y-61823752D01*
X182510645Y-61872687D01*
X182482188Y-61936365D01*
X182445415Y-62017093D01*
X182425175Y-62061216D01*
X182388625Y-62139985D01*
X182354315Y-62212423D01*
X182323552Y-62275880D01*
X182297648Y-62327708D01*
X182277910Y-62365259D01*
X182265650Y-62385884D01*
X182263224Y-62388733D01*
X182232183Y-62401302D01*
X182197121Y-62399619D01*
X182169000Y-62384332D01*
X182167854Y-62383089D01*
X182156668Y-62366154D01*
X182137904Y-62333170D01*
X182113875Y-62288380D01*
X182086897Y-62236032D01*
X182077201Y-62216742D01*
X182004014Y-62070150D01*
X181924240Y-62229393D01*
X181895767Y-62284415D01*
X181869350Y-62332132D01*
X181847148Y-62368893D01*
X181831319Y-62391044D01*
X181825954Y-62395741D01*
X181784257Y-62402102D01*
X181749849Y-62388733D01*
X181739728Y-62374446D01*
X181722214Y-62342692D01*
X181698735Y-62296597D01*
X181670720Y-62239285D01*
X181639599Y-62173880D01*
X181606799Y-62103507D01*
X181573750Y-62031291D01*
X181541881Y-61960355D01*
X181512619Y-61893825D01*
X181487395Y-61834826D01*
X181467636Y-61786481D01*
X181454772Y-61751915D01*
X181450231Y-61734253D01*
X181450277Y-61733613D01*
X181461326Y-61711388D01*
X181483410Y-61688753D01*
X181484710Y-61687768D01*
X181511853Y-61672425D01*
X181536958Y-61672574D01*
X181546368Y-61675466D01*
X181557834Y-61681718D01*
X181570010Y-61694014D01*
X181584357Y-61714908D01*
X181602336Y-61746949D01*
X181625407Y-61792688D01*
X181655030Y-61854677D01*
X181681745Y-61911898D01*
X181712480Y-61978226D01*
X181740021Y-62037874D01*
X181762938Y-62087725D01*
X181779798Y-62124664D01*
X181789173Y-62145573D01*
X181790540Y-62148845D01*
X181796689Y-62143497D01*
X181810822Y-62121109D01*
X181831057Y-62084946D01*
X181855515Y-62038277D01*
X181865248Y-62019022D01*
X181898217Y-61954004D01*
X181923643Y-61906654D01*
X181943612Y-61874219D01*
X181960210Y-61853946D01*
X181975524Y-61843082D01*
X181991640Y-61838875D01*
X182002143Y-61838400D01*
X182020670Y-61840042D01*
X182036904Y-61846831D01*
X182053035Y-61861566D01*
X182071251Y-61887044D01*
X182093739Y-61926061D01*
X182122689Y-61981414D01*
X182138662Y-62012903D01*
X182164570Y-62063087D01*
X182187167Y-62104704D01*
X182204458Y-62134242D01*
X182214450Y-62148189D01*
X182215809Y-62148770D01*
X182222261Y-62137793D01*
X182236708Y-62109290D01*
X182257703Y-62066244D01*
X182283797Y-62011638D01*
X182313546Y-61948454D01*
X182328180Y-61917071D01*
X182366250Y-61836078D01*
X182396905Y-61773756D01*
X182421737Y-61728071D01*
X182442337Y-61696989D01*
X182460298Y-61678478D01*
X182477210Y-61670504D01*
X182494665Y-61671034D01*
G37*
X182494665Y-61671034D02*
X182514255Y-61678035D01*
X182515010Y-61678377D01*
X182541613Y-61698678D01*
X182556270Y-61719561D01*
X182559138Y-61729352D01*
X182558996Y-61742361D01*
X182554961Y-61760895D01*
X182546146Y-61787257D01*
X182531669Y-61823752D01*
X182510645Y-61872687D01*
X182482188Y-61936365D01*
X182445415Y-62017093D01*
X182425175Y-62061216D01*
X182388625Y-62139985D01*
X182354315Y-62212423D01*
X182323552Y-62275880D01*
X182297648Y-62327708D01*
X182277910Y-62365259D01*
X182265650Y-62385884D01*
X182263224Y-62388733D01*
X182232183Y-62401302D01*
X182197121Y-62399619D01*
X182169000Y-62384332D01*
X182167854Y-62383089D01*
X182156668Y-62366154D01*
X182137904Y-62333170D01*
X182113875Y-62288380D01*
X182086897Y-62236032D01*
X182077201Y-62216742D01*
X182004014Y-62070150D01*
X181924240Y-62229393D01*
X181895767Y-62284415D01*
X181869350Y-62332132D01*
X181847148Y-62368893D01*
X181831319Y-62391044D01*
X181825954Y-62395741D01*
X181784257Y-62402102D01*
X181749849Y-62388733D01*
X181739728Y-62374446D01*
X181722214Y-62342692D01*
X181698735Y-62296597D01*
X181670720Y-62239285D01*
X181639599Y-62173880D01*
X181606799Y-62103507D01*
X181573750Y-62031291D01*
X181541881Y-61960355D01*
X181512619Y-61893825D01*
X181487395Y-61834826D01*
X181467636Y-61786481D01*
X181454772Y-61751915D01*
X181450231Y-61734253D01*
X181450277Y-61733613D01*
X181461326Y-61711388D01*
X181483410Y-61688753D01*
X181484710Y-61687768D01*
X181511853Y-61672425D01*
X181536958Y-61672574D01*
X181546368Y-61675466D01*
X181557834Y-61681718D01*
X181570010Y-61694014D01*
X181584357Y-61714908D01*
X181602336Y-61746949D01*
X181625407Y-61792688D01*
X181655030Y-61854677D01*
X181681745Y-61911898D01*
X181712480Y-61978226D01*
X181740021Y-62037874D01*
X181762938Y-62087725D01*
X181779798Y-62124664D01*
X181789173Y-62145573D01*
X181790540Y-62148845D01*
X181796689Y-62143497D01*
X181810822Y-62121109D01*
X181831057Y-62084946D01*
X181855515Y-62038277D01*
X181865248Y-62019022D01*
X181898217Y-61954004D01*
X181923643Y-61906654D01*
X181943612Y-61874219D01*
X181960210Y-61853946D01*
X181975524Y-61843082D01*
X181991640Y-61838875D01*
X182002143Y-61838400D01*
X182020670Y-61840042D01*
X182036904Y-61846831D01*
X182053035Y-61861566D01*
X182071251Y-61887044D01*
X182093739Y-61926061D01*
X182122689Y-61981414D01*
X182138662Y-62012903D01*
X182164570Y-62063087D01*
X182187167Y-62104704D01*
X182204458Y-62134242D01*
X182214450Y-62148189D01*
X182215809Y-62148770D01*
X182222261Y-62137793D01*
X182236708Y-62109290D01*
X182257703Y-62066244D01*
X182283797Y-62011638D01*
X182313546Y-61948454D01*
X182328180Y-61917071D01*
X182366250Y-61836078D01*
X182396905Y-61773756D01*
X182421737Y-61728071D01*
X182442337Y-61696989D01*
X182460298Y-61678478D01*
X182477210Y-61670504D01*
X182494665Y-61671034D01*
G36*
X179768309Y-61669275D02*
G01*
X179897288Y-61673636D01*
X180006991Y-61686861D01*
X180099226Y-61709741D01*
X180175802Y-61743070D01*
X180238527Y-61787638D01*
X180289212Y-61844236D01*
X180329663Y-61913658D01*
X180330459Y-61915351D01*
X180354601Y-61977483D01*
X180363203Y-62032509D01*
X180356231Y-62087887D01*
X180333654Y-62151073D01*
X180329372Y-62160689D01*
X180300172Y-62216966D01*
X180267356Y-62260451D01*
X180225002Y-62297417D01*
X180167190Y-62334135D01*
X180163831Y-62336052D01*
X180113504Y-62360227D01*
X180056621Y-62378282D01*
X179989527Y-62390839D01*
X179908565Y-62398522D01*
X179810082Y-62401953D01*
X179775286Y-62402251D01*
X179609594Y-62402845D01*
X179586197Y-62373100D01*
X179579257Y-62363319D01*
X179573842Y-62351897D01*
X179569765Y-62336095D01*
X179566837Y-62313175D01*
X179564867Y-62280396D01*
X179564225Y-62256089D01*
X179720844Y-62256089D01*
X179814726Y-62256089D01*
X179869664Y-62254483D01*
X179926060Y-62250255D01*
X179972345Y-62244292D01*
X179975139Y-62243790D01*
X180057348Y-62221736D01*
X180121114Y-62188600D01*
X180168452Y-62142847D01*
X180201382Y-62082939D01*
X180207108Y-62067061D01*
X180212721Y-62042333D01*
X180210291Y-62017902D01*
X180198467Y-61985400D01*
X180191340Y-61969434D01*
X180168000Y-61927006D01*
X180139880Y-61897240D01*
X180108940Y-61876511D01*
X180046966Y-61849537D01*
X179967651Y-61829998D01*
X179875253Y-61818746D01*
X179808333Y-61816270D01*
X179720844Y-61815822D01*
X179720844Y-62256089D01*
X179564225Y-62256089D01*
X179563668Y-62235021D01*
X179563050Y-62174311D01*
X179562825Y-62095526D01*
X179562800Y-62033920D01*
X179562800Y-61724485D01*
X179590509Y-61696776D01*
X179602806Y-61685544D01*
X179616103Y-61677853D01*
X179634672Y-61673040D01*
X179662786Y-61670446D01*
X179704717Y-61669410D01*
X179764737Y-61669270D01*
X179768309Y-61669275D01*
G37*
X179768309Y-61669275D02*
X179897288Y-61673636D01*
X180006991Y-61686861D01*
X180099226Y-61709741D01*
X180175802Y-61743070D01*
X180238527Y-61787638D01*
X180289212Y-61844236D01*
X180329663Y-61913658D01*
X180330459Y-61915351D01*
X180354601Y-61977483D01*
X180363203Y-62032509D01*
X180356231Y-62087887D01*
X180333654Y-62151073D01*
X180329372Y-62160689D01*
X180300172Y-62216966D01*
X180267356Y-62260451D01*
X180225002Y-62297417D01*
X180167190Y-62334135D01*
X180163831Y-62336052D01*
X180113504Y-62360227D01*
X180056621Y-62378282D01*
X179989527Y-62390839D01*
X179908565Y-62398522D01*
X179810082Y-62401953D01*
X179775286Y-62402251D01*
X179609594Y-62402845D01*
X179586197Y-62373100D01*
X179579257Y-62363319D01*
X179573842Y-62351897D01*
X179569765Y-62336095D01*
X179566837Y-62313175D01*
X179564867Y-62280396D01*
X179564225Y-62256089D01*
X179720844Y-62256089D01*
X179814726Y-62256089D01*
X179869664Y-62254483D01*
X179926060Y-62250255D01*
X179972345Y-62244292D01*
X179975139Y-62243790D01*
X180057348Y-62221736D01*
X180121114Y-62188600D01*
X180168452Y-62142847D01*
X180201382Y-62082939D01*
X180207108Y-62067061D01*
X180212721Y-62042333D01*
X180210291Y-62017902D01*
X180198467Y-61985400D01*
X180191340Y-61969434D01*
X180168000Y-61927006D01*
X180139880Y-61897240D01*
X180108940Y-61876511D01*
X180046966Y-61849537D01*
X179967651Y-61829998D01*
X179875253Y-61818746D01*
X179808333Y-61816270D01*
X179720844Y-61815822D01*
X179720844Y-62256089D01*
X179564225Y-62256089D01*
X179563668Y-62235021D01*
X179563050Y-62174311D01*
X179562825Y-62095526D01*
X179562800Y-62033920D01*
X179562800Y-61724485D01*
X179590509Y-61696776D01*
X179602806Y-61685544D01*
X179616103Y-61677853D01*
X179634672Y-61673040D01*
X179662786Y-61670446D01*
X179704717Y-61669410D01*
X179764737Y-61669270D01*
X179768309Y-61669275D01*
G36*
X178980343Y-61669260D02*
G01*
X179056701Y-61670174D01*
X179115217Y-61672311D01*
X179158255Y-61676175D01*
X179188183Y-61682267D01*
X179207368Y-61691090D01*
X179218176Y-61703146D01*
X179222973Y-61718939D01*
X179224127Y-61738970D01*
X179224133Y-61741335D01*
X179223131Y-61763992D01*
X179218396Y-61781503D01*
X179207333Y-61794574D01*
X179187348Y-61803913D01*
X179155846Y-61810227D01*
X179110232Y-61814222D01*
X179047913Y-61816606D01*
X178966293Y-61818086D01*
X178941277Y-61818414D01*
X178699200Y-61821467D01*
X178695814Y-61886378D01*
X178692429Y-61951289D01*
X178860576Y-61951289D01*
X178926266Y-61951531D01*
X178973172Y-61952556D01*
X179005083Y-61954811D01*
X179025791Y-61958742D01*
X179039084Y-61964798D01*
X179048755Y-61973424D01*
X179048817Y-61973493D01*
X179066356Y-62007112D01*
X179065722Y-62043448D01*
X179047314Y-62074423D01*
X179043671Y-62077607D01*
X179030741Y-62085812D01*
X179013024Y-62091521D01*
X178986570Y-62095162D01*
X178947432Y-62097167D01*
X178891662Y-62097964D01*
X178855994Y-62098045D01*
X178693555Y-62098045D01*
X178693555Y-62256089D01*
X178940161Y-62256089D01*
X179021580Y-62256231D01*
X179083410Y-62256814D01*
X179128637Y-62258068D01*
X179160248Y-62260227D01*
X179181231Y-62263523D01*
X179194573Y-62268189D01*
X179203261Y-62274457D01*
X179205450Y-62276733D01*
X179221614Y-62308280D01*
X179222797Y-62344168D01*
X179209536Y-62375285D01*
X179199043Y-62385271D01*
X179188129Y-62390769D01*
X179171217Y-62395022D01*
X179145633Y-62398180D01*
X179108701Y-62400392D01*
X179057746Y-62401806D01*
X178990094Y-62402572D01*
X178903069Y-62402838D01*
X178883394Y-62402845D01*
X178794911Y-62402787D01*
X178726227Y-62402467D01*
X178674564Y-62401667D01*
X178637145Y-62400167D01*
X178611190Y-62397749D01*
X178593922Y-62394194D01*
X178582562Y-62389282D01*
X178574332Y-62382795D01*
X178569817Y-62378138D01*
X178563021Y-62369889D01*
X178557712Y-62359669D01*
X178553706Y-62344800D01*
X178550821Y-62322602D01*
X178548874Y-62290393D01*
X178547681Y-62245496D01*
X178547061Y-62185228D01*
X178546829Y-62106911D01*
X178546800Y-62040994D01*
X178546871Y-61948628D01*
X178547208Y-61876117D01*
X178547998Y-61820737D01*
X178549426Y-61779765D01*
X178551679Y-61750478D01*
X178554943Y-61730153D01*
X178559404Y-61716066D01*
X178565248Y-61705495D01*
X178570197Y-61698811D01*
X178593594Y-61669067D01*
X178883774Y-61669067D01*
X178980343Y-61669260D01*
G37*
X178980343Y-61669260D02*
X179056701Y-61670174D01*
X179115217Y-61672311D01*
X179158255Y-61676175D01*
X179188183Y-61682267D01*
X179207368Y-61691090D01*
X179218176Y-61703146D01*
X179222973Y-61718939D01*
X179224127Y-61738970D01*
X179224133Y-61741335D01*
X179223131Y-61763992D01*
X179218396Y-61781503D01*
X179207333Y-61794574D01*
X179187348Y-61803913D01*
X179155846Y-61810227D01*
X179110232Y-61814222D01*
X179047913Y-61816606D01*
X178966293Y-61818086D01*
X178941277Y-61818414D01*
X178699200Y-61821467D01*
X178695814Y-61886378D01*
X178692429Y-61951289D01*
X178860576Y-61951289D01*
X178926266Y-61951531D01*
X178973172Y-61952556D01*
X179005083Y-61954811D01*
X179025791Y-61958742D01*
X179039084Y-61964798D01*
X179048755Y-61973424D01*
X179048817Y-61973493D01*
X179066356Y-62007112D01*
X179065722Y-62043448D01*
X179047314Y-62074423D01*
X179043671Y-62077607D01*
X179030741Y-62085812D01*
X179013024Y-62091521D01*
X178986570Y-62095162D01*
X178947432Y-62097167D01*
X178891662Y-62097964D01*
X178855994Y-62098045D01*
X178693555Y-62098045D01*
X178693555Y-62256089D01*
X178940161Y-62256089D01*
X179021580Y-62256231D01*
X179083410Y-62256814D01*
X179128637Y-62258068D01*
X179160248Y-62260227D01*
X179181231Y-62263523D01*
X179194573Y-62268189D01*
X179203261Y-62274457D01*
X179205450Y-62276733D01*
X179221614Y-62308280D01*
X179222797Y-62344168D01*
X179209536Y-62375285D01*
X179199043Y-62385271D01*
X179188129Y-62390769D01*
X179171217Y-62395022D01*
X179145633Y-62398180D01*
X179108701Y-62400392D01*
X179057746Y-62401806D01*
X178990094Y-62402572D01*
X178903069Y-62402838D01*
X178883394Y-62402845D01*
X178794911Y-62402787D01*
X178726227Y-62402467D01*
X178674564Y-62401667D01*
X178637145Y-62400167D01*
X178611190Y-62397749D01*
X178593922Y-62394194D01*
X178582562Y-62389282D01*
X178574332Y-62382795D01*
X178569817Y-62378138D01*
X178563021Y-62369889D01*
X178557712Y-62359669D01*
X178553706Y-62344800D01*
X178550821Y-62322602D01*
X178548874Y-62290393D01*
X178547681Y-62245496D01*
X178547061Y-62185228D01*
X178546829Y-62106911D01*
X178546800Y-62040994D01*
X178546871Y-61948628D01*
X178547208Y-61876117D01*
X178547998Y-61820737D01*
X178549426Y-61779765D01*
X178551679Y-61750478D01*
X178554943Y-61730153D01*
X178559404Y-61716066D01*
X178565248Y-61705495D01*
X178570197Y-61698811D01*
X178593594Y-61669067D01*
X178883774Y-61669067D01*
X178980343Y-61669260D01*
G36*
X177449886Y-61673448D02*
G01*
X177473452Y-61687273D01*
X177504265Y-61709881D01*
X177543922Y-61742338D01*
X177594020Y-61785708D01*
X177656157Y-61841058D01*
X177731928Y-61909451D01*
X177818666Y-61988084D01*
X177999289Y-62151878D01*
X178004933Y-61932029D01*
X178006971Y-61856351D01*
X178008937Y-61799994D01*
X178011266Y-61759706D01*
X178014394Y-61732235D01*
X178018755Y-61714329D01*
X178024784Y-61702737D01*
X178032916Y-61694208D01*
X178037228Y-61690623D01*
X178071759Y-61671670D01*
X178104617Y-61674441D01*
X178130682Y-61690633D01*
X178157333Y-61712199D01*
X178160648Y-62027151D01*
X178161565Y-62119779D01*
X178162032Y-62192544D01*
X178161887Y-62248161D01*
X178160968Y-62289342D01*
X178159113Y-62318803D01*
X178156161Y-62339255D01*
X178151950Y-62353413D01*
X178146318Y-62363991D01*
X178140073Y-62372474D01*
X178126561Y-62388207D01*
X178113117Y-62398636D01*
X178097876Y-62402639D01*
X178078974Y-62399094D01*
X178054545Y-62386879D01*
X178022727Y-62364871D01*
X177981652Y-62331949D01*
X177929458Y-62286991D01*
X177864278Y-62228875D01*
X177790444Y-62162099D01*
X177525155Y-61921458D01*
X177519511Y-62140589D01*
X177517469Y-62216128D01*
X177515498Y-62272354D01*
X177513161Y-62312524D01*
X177510019Y-62339896D01*
X177505636Y-62357728D01*
X177499576Y-62369279D01*
X177491400Y-62377807D01*
X177487216Y-62381282D01*
X177450235Y-62400372D01*
X177415292Y-62397493D01*
X177384864Y-62373100D01*
X177377903Y-62363286D01*
X177372477Y-62351826D01*
X177368397Y-62335968D01*
X177365471Y-62312963D01*
X177363508Y-62280062D01*
X177362317Y-62234516D01*
X177361708Y-62173573D01*
X177361489Y-62094486D01*
X177361466Y-62035956D01*
X177361540Y-61944407D01*
X177361887Y-61872687D01*
X177362699Y-61818045D01*
X177364167Y-61777732D01*
X177366481Y-61748998D01*
X177369833Y-61729093D01*
X177374412Y-61715268D01*
X177380411Y-61704772D01*
X177384864Y-61698811D01*
X177396150Y-61684691D01*
X177406699Y-61674029D01*
X177418107Y-61667892D01*
X177431970Y-61667343D01*
X177449886Y-61673448D01*
G37*
X177449886Y-61673448D02*
X177473452Y-61687273D01*
X177504265Y-61709881D01*
X177543922Y-61742338D01*
X177594020Y-61785708D01*
X177656157Y-61841058D01*
X177731928Y-61909451D01*
X177818666Y-61988084D01*
X177999289Y-62151878D01*
X178004933Y-61932029D01*
X178006971Y-61856351D01*
X178008937Y-61799994D01*
X178011266Y-61759706D01*
X178014394Y-61732235D01*
X178018755Y-61714329D01*
X178024784Y-61702737D01*
X178032916Y-61694208D01*
X178037228Y-61690623D01*
X178071759Y-61671670D01*
X178104617Y-61674441D01*
X178130682Y-61690633D01*
X178157333Y-61712199D01*
X178160648Y-62027151D01*
X178161565Y-62119779D01*
X178162032Y-62192544D01*
X178161887Y-62248161D01*
X178160968Y-62289342D01*
X178159113Y-62318803D01*
X178156161Y-62339255D01*
X178151950Y-62353413D01*
X178146318Y-62363991D01*
X178140073Y-62372474D01*
X178126561Y-62388207D01*
X178113117Y-62398636D01*
X178097876Y-62402639D01*
X178078974Y-62399094D01*
X178054545Y-62386879D01*
X178022727Y-62364871D01*
X177981652Y-62331949D01*
X177929458Y-62286991D01*
X177864278Y-62228875D01*
X177790444Y-62162099D01*
X177525155Y-61921458D01*
X177519511Y-62140589D01*
X177517469Y-62216128D01*
X177515498Y-62272354D01*
X177513161Y-62312524D01*
X177510019Y-62339896D01*
X177505636Y-62357728D01*
X177499576Y-62369279D01*
X177491400Y-62377807D01*
X177487216Y-62381282D01*
X177450235Y-62400372D01*
X177415292Y-62397493D01*
X177384864Y-62373100D01*
X177377903Y-62363286D01*
X177372477Y-62351826D01*
X177368397Y-62335968D01*
X177365471Y-62312963D01*
X177363508Y-62280062D01*
X177362317Y-62234516D01*
X177361708Y-62173573D01*
X177361489Y-62094486D01*
X177361466Y-62035956D01*
X177361540Y-61944407D01*
X177361887Y-61872687D01*
X177362699Y-61818045D01*
X177364167Y-61777732D01*
X177366481Y-61748998D01*
X177369833Y-61729093D01*
X177374412Y-61715268D01*
X177380411Y-61704772D01*
X177384864Y-61698811D01*
X177396150Y-61684691D01*
X177406699Y-61674029D01*
X177418107Y-61667892D01*
X177431970Y-61667343D01*
X177449886Y-61673448D01*
G36*
X176799919Y-61674599D02*
G01*
X176868435Y-61686095D01*
X176921057Y-61703967D01*
X176955292Y-61727499D01*
X176964621Y-61740924D01*
X176974107Y-61772148D01*
X176967723Y-61800395D01*
X176947570Y-61827182D01*
X176916255Y-61839713D01*
X176870817Y-61838696D01*
X176835674Y-61831906D01*
X176757581Y-61818971D01*
X176677774Y-61817742D01*
X176588445Y-61828241D01*
X176563771Y-61832690D01*
X176480709Y-61856108D01*
X176415727Y-61890945D01*
X176369539Y-61936604D01*
X176342855Y-61992494D01*
X176337337Y-62021388D01*
X176340949Y-62080012D01*
X176364271Y-62131879D01*
X176405176Y-62175978D01*
X176461541Y-62211299D01*
X176531240Y-62236829D01*
X176612148Y-62251559D01*
X176702140Y-62254478D01*
X176799090Y-62244575D01*
X176804564Y-62243641D01*
X176843125Y-62236459D01*
X176864506Y-62229521D01*
X176873773Y-62219227D01*
X176875994Y-62201976D01*
X176876044Y-62192841D01*
X176876044Y-62154489D01*
X176807569Y-62154489D01*
X176747100Y-62150347D01*
X176705835Y-62137147D01*
X176681825Y-62113730D01*
X176673123Y-62078936D01*
X176673017Y-62074394D01*
X176678108Y-62044654D01*
X176695567Y-62023419D01*
X176728061Y-62009366D01*
X176778257Y-62001173D01*
X176826877Y-61998161D01*
X176897544Y-61996433D01*
X176948802Y-61999070D01*
X176983761Y-62008800D01*
X177005530Y-62028353D01*
X177017220Y-62060456D01*
X177021940Y-62107838D01*
X177022800Y-62170071D01*
X177021391Y-62239535D01*
X177017152Y-62286786D01*
X177010064Y-62312012D01*
X177008689Y-62313988D01*
X176969772Y-62345508D01*
X176912714Y-62370470D01*
X176841131Y-62388340D01*
X176758642Y-62398586D01*
X176668861Y-62400673D01*
X176575408Y-62394068D01*
X176520444Y-62385956D01*
X176434234Y-62361554D01*
X176354108Y-62321662D01*
X176287023Y-62269887D01*
X176276827Y-62259539D01*
X176243698Y-62216035D01*
X176213806Y-62162118D01*
X176190643Y-62105592D01*
X176177702Y-62054259D01*
X176176142Y-62034544D01*
X176182782Y-61993419D01*
X176200432Y-61942252D01*
X176225703Y-61888394D01*
X176255211Y-61839195D01*
X176281281Y-61806334D01*
X176342235Y-61757452D01*
X176421031Y-61718545D01*
X176514843Y-61690494D01*
X176620850Y-61674179D01*
X176718000Y-61670192D01*
X176799919Y-61674599D01*
G37*
X176799919Y-61674599D02*
X176868435Y-61686095D01*
X176921057Y-61703967D01*
X176955292Y-61727499D01*
X176964621Y-61740924D01*
X176974107Y-61772148D01*
X176967723Y-61800395D01*
X176947570Y-61827182D01*
X176916255Y-61839713D01*
X176870817Y-61838696D01*
X176835674Y-61831906D01*
X176757581Y-61818971D01*
X176677774Y-61817742D01*
X176588445Y-61828241D01*
X176563771Y-61832690D01*
X176480709Y-61856108D01*
X176415727Y-61890945D01*
X176369539Y-61936604D01*
X176342855Y-61992494D01*
X176337337Y-62021388D01*
X176340949Y-62080012D01*
X176364271Y-62131879D01*
X176405176Y-62175978D01*
X176461541Y-62211299D01*
X176531240Y-62236829D01*
X176612148Y-62251559D01*
X176702140Y-62254478D01*
X176799090Y-62244575D01*
X176804564Y-62243641D01*
X176843125Y-62236459D01*
X176864506Y-62229521D01*
X176873773Y-62219227D01*
X176875994Y-62201976D01*
X176876044Y-62192841D01*
X176876044Y-62154489D01*
X176807569Y-62154489D01*
X176747100Y-62150347D01*
X176705835Y-62137147D01*
X176681825Y-62113730D01*
X176673123Y-62078936D01*
X176673017Y-62074394D01*
X176678108Y-62044654D01*
X176695567Y-62023419D01*
X176728061Y-62009366D01*
X176778257Y-62001173D01*
X176826877Y-61998161D01*
X176897544Y-61996433D01*
X176948802Y-61999070D01*
X176983761Y-62008800D01*
X177005530Y-62028353D01*
X177017220Y-62060456D01*
X177021940Y-62107838D01*
X177022800Y-62170071D01*
X177021391Y-62239535D01*
X177017152Y-62286786D01*
X177010064Y-62312012D01*
X177008689Y-62313988D01*
X176969772Y-62345508D01*
X176912714Y-62370470D01*
X176841131Y-62388340D01*
X176758642Y-62398586D01*
X176668861Y-62400673D01*
X176575408Y-62394068D01*
X176520444Y-62385956D01*
X176434234Y-62361554D01*
X176354108Y-62321662D01*
X176287023Y-62269887D01*
X176276827Y-62259539D01*
X176243698Y-62216035D01*
X176213806Y-62162118D01*
X176190643Y-62105592D01*
X176177702Y-62054259D01*
X176176142Y-62034544D01*
X176182782Y-61993419D01*
X176200432Y-61942252D01*
X176225703Y-61888394D01*
X176255211Y-61839195D01*
X176281281Y-61806334D01*
X176342235Y-61757452D01*
X176421031Y-61718545D01*
X176514843Y-61690494D01*
X176620850Y-61674179D01*
X176718000Y-61670192D01*
X176799919Y-61674599D01*
G36*
X175826178Y-61691645D02*
G01*
X175832758Y-61699218D01*
X175837921Y-61708987D01*
X175841836Y-61723571D01*
X175844676Y-61745585D01*
X175846613Y-61777648D01*
X175847817Y-61822375D01*
X175848461Y-61882385D01*
X175848716Y-61960294D01*
X175848755Y-62035956D01*
X175848686Y-62129802D01*
X175848362Y-62203689D01*
X175847614Y-62260232D01*
X175846268Y-62302049D01*
X175844154Y-62331757D01*
X175841100Y-62351973D01*
X175836934Y-62365314D01*
X175831484Y-62374398D01*
X175826178Y-62380267D01*
X175793174Y-62399947D01*
X175758009Y-62398181D01*
X175726545Y-62376717D01*
X175719316Y-62368337D01*
X175713666Y-62358614D01*
X175709401Y-62344861D01*
X175706327Y-62324389D01*
X175704248Y-62294512D01*
X175702970Y-62252541D01*
X175702299Y-62195789D01*
X175702041Y-62121567D01*
X175702000Y-62037537D01*
X175702000Y-61724485D01*
X175729709Y-61696776D01*
X175763863Y-61673463D01*
X175796994Y-61672623D01*
X175826178Y-61691645D01*
G37*
X175826178Y-61691645D02*
X175832758Y-61699218D01*
X175837921Y-61708987D01*
X175841836Y-61723571D01*
X175844676Y-61745585D01*
X175846613Y-61777648D01*
X175847817Y-61822375D01*
X175848461Y-61882385D01*
X175848716Y-61960294D01*
X175848755Y-62035956D01*
X175848686Y-62129802D01*
X175848362Y-62203689D01*
X175847614Y-62260232D01*
X175846268Y-62302049D01*
X175844154Y-62331757D01*
X175841100Y-62351973D01*
X175836934Y-62365314D01*
X175831484Y-62374398D01*
X175826178Y-62380267D01*
X175793174Y-62399947D01*
X175758009Y-62398181D01*
X175726545Y-62376717D01*
X175719316Y-62368337D01*
X175713666Y-62358614D01*
X175709401Y-62344861D01*
X175706327Y-62324389D01*
X175704248Y-62294512D01*
X175702970Y-62252541D01*
X175702299Y-62195789D01*
X175702041Y-62121567D01*
X175702000Y-62037537D01*
X175702000Y-61724485D01*
X175729709Y-61696776D01*
X175763863Y-61673463D01*
X175796994Y-61672623D01*
X175826178Y-61691645D01*
G36*
X175058297Y-61670351D02*
G01*
X175133112Y-61675581D01*
X175202694Y-61683750D01*
X175262998Y-61694550D01*
X175309980Y-61707673D01*
X175339594Y-61722813D01*
X175344140Y-61727269D01*
X175359946Y-61761850D01*
X175355153Y-61797351D01*
X175330636Y-61827725D01*
X175329466Y-61828596D01*
X175315046Y-61837954D01*
X175299992Y-61842876D01*
X175278995Y-61843473D01*
X175246743Y-61839861D01*
X175197927Y-61832154D01*
X175194000Y-61831505D01*
X175121261Y-61822569D01*
X175042783Y-61818161D01*
X174964073Y-61818119D01*
X174890639Y-61822279D01*
X174827989Y-61830479D01*
X174781630Y-61842557D01*
X174778584Y-61843771D01*
X174744952Y-61862615D01*
X174733136Y-61881685D01*
X174742386Y-61900439D01*
X174771953Y-61918337D01*
X174821089Y-61934837D01*
X174889043Y-61949396D01*
X174934355Y-61956406D01*
X175028544Y-61969889D01*
X175103456Y-61982214D01*
X175162283Y-61994449D01*
X175208215Y-62007661D01*
X175244445Y-62022917D01*
X175274162Y-62041285D01*
X175300558Y-62063831D01*
X175321770Y-62085971D01*
X175346935Y-62116819D01*
X175359319Y-62143345D01*
X175363192Y-62176026D01*
X175363333Y-62187995D01*
X175360424Y-62227712D01*
X175348798Y-62257259D01*
X175328677Y-62283486D01*
X175287784Y-62323576D01*
X175242183Y-62354149D01*
X175188487Y-62376203D01*
X175123308Y-62390735D01*
X175043256Y-62398741D01*
X174944943Y-62401218D01*
X174928711Y-62401177D01*
X174863151Y-62399818D01*
X174798134Y-62396730D01*
X174740748Y-62392356D01*
X174698078Y-62387140D01*
X174694628Y-62386541D01*
X174652204Y-62376491D01*
X174616220Y-62363796D01*
X174595850Y-62352190D01*
X174576893Y-62321572D01*
X174575573Y-62285918D01*
X174591915Y-62254144D01*
X174595571Y-62250551D01*
X174610685Y-62239876D01*
X174629585Y-62235276D01*
X174658838Y-62236059D01*
X174694349Y-62240127D01*
X174734030Y-62243762D01*
X174789655Y-62246828D01*
X174854594Y-62249053D01*
X174922215Y-62250164D01*
X174940000Y-62250237D01*
X175007872Y-62249964D01*
X175057546Y-62248646D01*
X175093390Y-62245827D01*
X175119776Y-62241050D01*
X175141074Y-62233857D01*
X175153874Y-62227867D01*
X175182000Y-62211233D01*
X175199932Y-62196168D01*
X175202553Y-62191897D01*
X175197024Y-62174263D01*
X175170740Y-62157192D01*
X175125522Y-62141458D01*
X175063192Y-62127838D01*
X175044829Y-62124804D01*
X174948910Y-62109738D01*
X174872359Y-62097146D01*
X174812220Y-62086111D01*
X174765540Y-62075720D01*
X174729363Y-62065056D01*
X174700735Y-62053205D01*
X174676702Y-62039251D01*
X174654308Y-62022281D01*
X174630598Y-62001378D01*
X174622620Y-61994049D01*
X174594647Y-61966699D01*
X174579840Y-61945029D01*
X174574048Y-61920232D01*
X174573111Y-61888983D01*
X174583425Y-61827705D01*
X174614248Y-61775640D01*
X174665405Y-61732958D01*
X174736717Y-61699825D01*
X174787600Y-61684964D01*
X174842900Y-61675366D01*
X174909147Y-61669936D01*
X174982294Y-61668367D01*
X175058297Y-61670351D01*
G37*
X175058297Y-61670351D02*
X175133112Y-61675581D01*
X175202694Y-61683750D01*
X175262998Y-61694550D01*
X175309980Y-61707673D01*
X175339594Y-61722813D01*
X175344140Y-61727269D01*
X175359946Y-61761850D01*
X175355153Y-61797351D01*
X175330636Y-61827725D01*
X175329466Y-61828596D01*
X175315046Y-61837954D01*
X175299992Y-61842876D01*
X175278995Y-61843473D01*
X175246743Y-61839861D01*
X175197927Y-61832154D01*
X175194000Y-61831505D01*
X175121261Y-61822569D01*
X175042783Y-61818161D01*
X174964073Y-61818119D01*
X174890639Y-61822279D01*
X174827989Y-61830479D01*
X174781630Y-61842557D01*
X174778584Y-61843771D01*
X174744952Y-61862615D01*
X174733136Y-61881685D01*
X174742386Y-61900439D01*
X174771953Y-61918337D01*
X174821089Y-61934837D01*
X174889043Y-61949396D01*
X174934355Y-61956406D01*
X175028544Y-61969889D01*
X175103456Y-61982214D01*
X175162283Y-61994449D01*
X175208215Y-62007661D01*
X175244445Y-62022917D01*
X175274162Y-62041285D01*
X175300558Y-62063831D01*
X175321770Y-62085971D01*
X175346935Y-62116819D01*
X175359319Y-62143345D01*
X175363192Y-62176026D01*
X175363333Y-62187995D01*
X175360424Y-62227712D01*
X175348798Y-62257259D01*
X175328677Y-62283486D01*
X175287784Y-62323576D01*
X175242183Y-62354149D01*
X175188487Y-62376203D01*
X175123308Y-62390735D01*
X175043256Y-62398741D01*
X174944943Y-62401218D01*
X174928711Y-62401177D01*
X174863151Y-62399818D01*
X174798134Y-62396730D01*
X174740748Y-62392356D01*
X174698078Y-62387140D01*
X174694628Y-62386541D01*
X174652204Y-62376491D01*
X174616220Y-62363796D01*
X174595850Y-62352190D01*
X174576893Y-62321572D01*
X174575573Y-62285918D01*
X174591915Y-62254144D01*
X174595571Y-62250551D01*
X174610685Y-62239876D01*
X174629585Y-62235276D01*
X174658838Y-62236059D01*
X174694349Y-62240127D01*
X174734030Y-62243762D01*
X174789655Y-62246828D01*
X174854594Y-62249053D01*
X174922215Y-62250164D01*
X174940000Y-62250237D01*
X175007872Y-62249964D01*
X175057546Y-62248646D01*
X175093390Y-62245827D01*
X175119776Y-62241050D01*
X175141074Y-62233857D01*
X175153874Y-62227867D01*
X175182000Y-62211233D01*
X175199932Y-62196168D01*
X175202553Y-62191897D01*
X175197024Y-62174263D01*
X175170740Y-62157192D01*
X175125522Y-62141458D01*
X175063192Y-62127838D01*
X175044829Y-62124804D01*
X174948910Y-62109738D01*
X174872359Y-62097146D01*
X174812220Y-62086111D01*
X174765540Y-62075720D01*
X174729363Y-62065056D01*
X174700735Y-62053205D01*
X174676702Y-62039251D01*
X174654308Y-62022281D01*
X174630598Y-62001378D01*
X174622620Y-61994049D01*
X174594647Y-61966699D01*
X174579840Y-61945029D01*
X174574048Y-61920232D01*
X174573111Y-61888983D01*
X174583425Y-61827705D01*
X174614248Y-61775640D01*
X174665405Y-61732958D01*
X174736717Y-61699825D01*
X174787600Y-61684964D01*
X174842900Y-61675366D01*
X174909147Y-61669936D01*
X174982294Y-61668367D01*
X175058297Y-61670351D01*
G36*
X174037206Y-61669146D02*
G01*
X174106614Y-61669518D01*
X174159003Y-61670385D01*
X174197153Y-61671946D01*
X174223841Y-61674403D01*
X174241847Y-61677957D01*
X174253951Y-61682810D01*
X174262931Y-61689161D01*
X174266182Y-61692084D01*
X174285957Y-61723142D01*
X174289518Y-61758828D01*
X174276509Y-61790510D01*
X174270494Y-61796913D01*
X174260765Y-61803121D01*
X174245099Y-61807910D01*
X174220592Y-61811514D01*
X174184339Y-61814164D01*
X174133435Y-61816095D01*
X174064974Y-61817539D01*
X174002383Y-61818418D01*
X173754666Y-61821467D01*
X173751281Y-61886378D01*
X173747895Y-61951289D01*
X173916042Y-61951289D01*
X173989041Y-61951919D01*
X174042483Y-61954553D01*
X174079372Y-61960309D01*
X174102712Y-61970304D01*
X174115506Y-61985656D01*
X174120758Y-62007482D01*
X174121555Y-62027738D01*
X174119077Y-62052592D01*
X174109723Y-62070906D01*
X174090617Y-62083637D01*
X174058882Y-62091741D01*
X174011641Y-62096176D01*
X173946017Y-62097899D01*
X173910199Y-62098045D01*
X173749022Y-62098045D01*
X173749022Y-62256089D01*
X173997378Y-62256089D01*
X174078787Y-62256202D01*
X174140658Y-62256712D01*
X174186032Y-62257870D01*
X174217946Y-62259930D01*
X174239441Y-62263146D01*
X174253557Y-62267772D01*
X174263332Y-62274059D01*
X174268311Y-62278667D01*
X174285390Y-62305560D01*
X174290889Y-62329467D01*
X174283037Y-62358667D01*
X174268311Y-62380267D01*
X174260454Y-62387066D01*
X174250312Y-62392346D01*
X174235156Y-62396298D01*
X174212259Y-62399113D01*
X174178891Y-62400982D01*
X174132325Y-62402098D01*
X174069833Y-62402651D01*
X173988686Y-62402833D01*
X173946578Y-62402845D01*
X173856402Y-62402765D01*
X173786076Y-62402398D01*
X173732871Y-62401552D01*
X173694060Y-62400036D01*
X173666913Y-62397659D01*
X173648702Y-62394229D01*
X173636700Y-62389554D01*
X173628178Y-62383444D01*
X173624844Y-62380267D01*
X173618245Y-62372670D01*
X173613073Y-62362870D01*
X173609154Y-62348239D01*
X173606316Y-62326152D01*
X173604385Y-62293982D01*
X173603188Y-62249103D01*
X173602552Y-62188889D01*
X173602303Y-62110713D01*
X173602266Y-62037923D01*
X173602300Y-61944707D01*
X173602535Y-61871431D01*
X173603170Y-61815458D01*
X173604406Y-61774151D01*
X173606444Y-61744872D01*
X173609483Y-61724984D01*
X173613723Y-61711850D01*
X173619365Y-61702832D01*
X173626609Y-61695293D01*
X173628394Y-61693612D01*
X173637055Y-61686172D01*
X173647118Y-61680409D01*
X173661375Y-61676112D01*
X173682617Y-61673064D01*
X173713636Y-61671051D01*
X173757223Y-61669860D01*
X173816169Y-61669275D01*
X173893266Y-61669083D01*
X173947999Y-61669067D01*
X174037206Y-61669146D01*
G37*
X174037206Y-61669146D02*
X174106614Y-61669518D01*
X174159003Y-61670385D01*
X174197153Y-61671946D01*
X174223841Y-61674403D01*
X174241847Y-61677957D01*
X174253951Y-61682810D01*
X174262931Y-61689161D01*
X174266182Y-61692084D01*
X174285957Y-61723142D01*
X174289518Y-61758828D01*
X174276509Y-61790510D01*
X174270494Y-61796913D01*
X174260765Y-61803121D01*
X174245099Y-61807910D01*
X174220592Y-61811514D01*
X174184339Y-61814164D01*
X174133435Y-61816095D01*
X174064974Y-61817539D01*
X174002383Y-61818418D01*
X173754666Y-61821467D01*
X173751281Y-61886378D01*
X173747895Y-61951289D01*
X173916042Y-61951289D01*
X173989041Y-61951919D01*
X174042483Y-61954553D01*
X174079372Y-61960309D01*
X174102712Y-61970304D01*
X174115506Y-61985656D01*
X174120758Y-62007482D01*
X174121555Y-62027738D01*
X174119077Y-62052592D01*
X174109723Y-62070906D01*
X174090617Y-62083637D01*
X174058882Y-62091741D01*
X174011641Y-62096176D01*
X173946017Y-62097899D01*
X173910199Y-62098045D01*
X173749022Y-62098045D01*
X173749022Y-62256089D01*
X173997378Y-62256089D01*
X174078787Y-62256202D01*
X174140658Y-62256712D01*
X174186032Y-62257870D01*
X174217946Y-62259930D01*
X174239441Y-62263146D01*
X174253557Y-62267772D01*
X174263332Y-62274059D01*
X174268311Y-62278667D01*
X174285390Y-62305560D01*
X174290889Y-62329467D01*
X174283037Y-62358667D01*
X174268311Y-62380267D01*
X174260454Y-62387066D01*
X174250312Y-62392346D01*
X174235156Y-62396298D01*
X174212259Y-62399113D01*
X174178891Y-62400982D01*
X174132325Y-62402098D01*
X174069833Y-62402651D01*
X173988686Y-62402833D01*
X173946578Y-62402845D01*
X173856402Y-62402765D01*
X173786076Y-62402398D01*
X173732871Y-62401552D01*
X173694060Y-62400036D01*
X173666913Y-62397659D01*
X173648702Y-62394229D01*
X173636700Y-62389554D01*
X173628178Y-62383444D01*
X173624844Y-62380267D01*
X173618245Y-62372670D01*
X173613073Y-62362870D01*
X173609154Y-62348239D01*
X173606316Y-62326152D01*
X173604385Y-62293982D01*
X173603188Y-62249103D01*
X173602552Y-62188889D01*
X173602303Y-62110713D01*
X173602266Y-62037923D01*
X173602300Y-61944707D01*
X173602535Y-61871431D01*
X173603170Y-61815458D01*
X173604406Y-61774151D01*
X173606444Y-61744872D01*
X173609483Y-61724984D01*
X173613723Y-61711850D01*
X173619365Y-61702832D01*
X173626609Y-61695293D01*
X173628394Y-61693612D01*
X173637055Y-61686172D01*
X173647118Y-61680409D01*
X173661375Y-61676112D01*
X173682617Y-61673064D01*
X173713636Y-61671051D01*
X173757223Y-61669860D01*
X173816169Y-61669275D01*
X173893266Y-61669083D01*
X173947999Y-61669067D01*
X174037206Y-61669146D01*
G36*
X172628629Y-61669066D02*
G01*
X172668111Y-61669467D01*
X172783800Y-61672259D01*
X172880689Y-61680550D01*
X172962081Y-61695232D01*
X173031277Y-61717193D01*
X173091580Y-61747322D01*
X173146292Y-61786510D01*
X173165833Y-61803532D01*
X173198250Y-61843363D01*
X173227480Y-61897413D01*
X173250009Y-61957323D01*
X173262321Y-62014739D01*
X173263600Y-62035956D01*
X173255583Y-62094769D01*
X173234101Y-62159013D01*
X173203001Y-62219821D01*
X173166134Y-62268330D01*
X173160146Y-62274182D01*
X173109421Y-62315321D01*
X173053875Y-62347435D01*
X172990304Y-62371365D01*
X172915506Y-62387953D01*
X172826278Y-62398041D01*
X172719418Y-62402469D01*
X172670472Y-62402845D01*
X172608238Y-62402545D01*
X172564472Y-62401292D01*
X172535069Y-62398554D01*
X172515921Y-62393801D01*
X172502923Y-62386501D01*
X172495955Y-62380267D01*
X172489374Y-62372694D01*
X172484212Y-62362924D01*
X172480297Y-62348340D01*
X172477457Y-62326326D01*
X172475520Y-62294264D01*
X172474316Y-62249536D01*
X172473672Y-62189526D01*
X172473417Y-62111617D01*
X172473378Y-62035956D01*
X172473130Y-61935041D01*
X172473183Y-61854427D01*
X172474143Y-61815822D01*
X172620133Y-61815822D01*
X172620133Y-62256089D01*
X172713266Y-62256004D01*
X172769307Y-62254396D01*
X172828001Y-62250256D01*
X172876972Y-62244464D01*
X172878462Y-62244226D01*
X172957608Y-62225090D01*
X173018998Y-62195287D01*
X173065695Y-62152878D01*
X173095365Y-62106961D01*
X173113647Y-62056026D01*
X173112229Y-62008200D01*
X173091012Y-61956933D01*
X173049511Y-61903899D01*
X172992002Y-61864600D01*
X172917250Y-61838331D01*
X172867292Y-61829035D01*
X172810584Y-61822507D01*
X172750481Y-61817782D01*
X172699361Y-61815817D01*
X172696333Y-61815808D01*
X172620133Y-61815822D01*
X172474143Y-61815822D01*
X172474740Y-61791851D01*
X172479002Y-61745055D01*
X172487170Y-61711778D01*
X172500444Y-61689759D01*
X172520026Y-61676739D01*
X172547117Y-61670457D01*
X172582918Y-61668653D01*
X172628629Y-61669066D01*
G37*
X172628629Y-61669066D02*
X172668111Y-61669467D01*
X172783800Y-61672259D01*
X172880689Y-61680550D01*
X172962081Y-61695232D01*
X173031277Y-61717193D01*
X173091580Y-61747322D01*
X173146292Y-61786510D01*
X173165833Y-61803532D01*
X173198250Y-61843363D01*
X173227480Y-61897413D01*
X173250009Y-61957323D01*
X173262321Y-62014739D01*
X173263600Y-62035956D01*
X173255583Y-62094769D01*
X173234101Y-62159013D01*
X173203001Y-62219821D01*
X173166134Y-62268330D01*
X173160146Y-62274182D01*
X173109421Y-62315321D01*
X173053875Y-62347435D01*
X172990304Y-62371365D01*
X172915506Y-62387953D01*
X172826278Y-62398041D01*
X172719418Y-62402469D01*
X172670472Y-62402845D01*
X172608238Y-62402545D01*
X172564472Y-62401292D01*
X172535069Y-62398554D01*
X172515921Y-62393801D01*
X172502923Y-62386501D01*
X172495955Y-62380267D01*
X172489374Y-62372694D01*
X172484212Y-62362924D01*
X172480297Y-62348340D01*
X172477457Y-62326326D01*
X172475520Y-62294264D01*
X172474316Y-62249536D01*
X172473672Y-62189526D01*
X172473417Y-62111617D01*
X172473378Y-62035956D01*
X172473130Y-61935041D01*
X172473183Y-61854427D01*
X172474143Y-61815822D01*
X172620133Y-61815822D01*
X172620133Y-62256089D01*
X172713266Y-62256004D01*
X172769307Y-62254396D01*
X172828001Y-62250256D01*
X172876972Y-62244464D01*
X172878462Y-62244226D01*
X172957608Y-62225090D01*
X173018998Y-62195287D01*
X173065695Y-62152878D01*
X173095365Y-62106961D01*
X173113647Y-62056026D01*
X173112229Y-62008200D01*
X173091012Y-61956933D01*
X173049511Y-61903899D01*
X172992002Y-61864600D01*
X172917250Y-61838331D01*
X172867292Y-61829035D01*
X172810584Y-61822507D01*
X172750481Y-61817782D01*
X172699361Y-61815817D01*
X172696333Y-61815808D01*
X172620133Y-61815822D01*
X172474143Y-61815822D01*
X172474740Y-61791851D01*
X172479002Y-61745055D01*
X172487170Y-61711778D01*
X172500444Y-61689759D01*
X172520026Y-61676739D01*
X172547117Y-61670457D01*
X172582918Y-61668653D01*
X172628629Y-61669066D01*
G36*
X176476957Y-56426571D02*
G01*
X176573232Y-56450809D01*
X176659816Y-56493641D01*
X176734627Y-56553419D01*
X176795582Y-56628494D01*
X176840601Y-56717220D01*
X176866864Y-56813530D01*
X176872714Y-56910795D01*
X176857860Y-57004654D01*
X176824160Y-57092511D01*
X176773472Y-57171770D01*
X176707655Y-57239836D01*
X176628566Y-57294112D01*
X176538066Y-57332002D01*
X176486800Y-57344426D01*
X176442302Y-57351947D01*
X176408001Y-57354919D01*
X176375040Y-57353094D01*
X176334566Y-57346225D01*
X176301469Y-57339250D01*
X176208053Y-57307741D01*
X176124381Y-57256617D01*
X176052335Y-57187429D01*
X175993800Y-57101728D01*
X175979852Y-57074489D01*
X175963414Y-57038122D01*
X175953106Y-57007582D01*
X175947540Y-56975450D01*
X175945331Y-56934307D01*
X175945052Y-56888222D01*
X175949139Y-56803865D01*
X175962554Y-56734586D01*
X175987744Y-56673961D01*
X176027154Y-56615567D01*
X176065702Y-56571302D01*
X176137594Y-56505484D01*
X176212687Y-56460053D01*
X176295438Y-56432850D01*
X176373072Y-56422576D01*
X176476957Y-56426571D01*
G37*
X176476957Y-56426571D02*
X176573232Y-56450809D01*
X176659816Y-56493641D01*
X176734627Y-56553419D01*
X176795582Y-56628494D01*
X176840601Y-56717220D01*
X176866864Y-56813530D01*
X176872714Y-56910795D01*
X176857860Y-57004654D01*
X176824160Y-57092511D01*
X176773472Y-57171770D01*
X176707655Y-57239836D01*
X176628566Y-57294112D01*
X176538066Y-57332002D01*
X176486800Y-57344426D01*
X176442302Y-57351947D01*
X176408001Y-57354919D01*
X176375040Y-57353094D01*
X176334566Y-57346225D01*
X176301469Y-57339250D01*
X176208053Y-57307741D01*
X176124381Y-57256617D01*
X176052335Y-57187429D01*
X175993800Y-57101728D01*
X175979852Y-57074489D01*
X175963414Y-57038122D01*
X175953106Y-57007582D01*
X175947540Y-56975450D01*
X175945331Y-56934307D01*
X175945052Y-56888222D01*
X175949139Y-56803865D01*
X175962554Y-56734586D01*
X175987744Y-56673961D01*
X176027154Y-56615567D01*
X176065702Y-56571302D01*
X176137594Y-56505484D01*
X176212687Y-56460053D01*
X176295438Y-56432850D01*
X176373072Y-56422576D01*
X176476957Y-56426571D01*
G36*
X184936507Y-58872245D02*
G01*
X184936526Y-59106662D01*
X184936552Y-59319603D01*
X184936625Y-59512168D01*
X184936782Y-59685459D01*
X184937064Y-59840576D01*
X184937509Y-59978620D01*
X184938156Y-60100692D01*
X184939045Y-60207894D01*
X184940213Y-60301326D01*
X184941701Y-60382090D01*
X184943546Y-60451286D01*
X184945789Y-60510015D01*
X184948469Y-60559379D01*
X184951623Y-60600478D01*
X184955292Y-60634413D01*
X184959513Y-60662286D01*
X184964327Y-60685198D01*
X184969773Y-60704249D01*
X184975888Y-60720540D01*
X184982712Y-60735173D01*
X184990285Y-60749249D01*
X184998645Y-60763868D01*
X185003839Y-60772974D01*
X185038104Y-60833689D01*
X184179955Y-60833689D01*
X184179955Y-60737733D01*
X184179224Y-60694370D01*
X184177272Y-60661205D01*
X184174463Y-60643424D01*
X184173221Y-60641778D01*
X184161799Y-60648662D01*
X184139084Y-60666505D01*
X184116385Y-60685879D01*
X184061800Y-60726614D01*
X183992321Y-60767617D01*
X183915270Y-60805123D01*
X183837965Y-60835364D01*
X183807113Y-60845012D01*
X183738616Y-60859578D01*
X183655764Y-60869539D01*
X183566371Y-60874583D01*
X183478248Y-60874396D01*
X183399207Y-60868666D01*
X183361511Y-60862858D01*
X183223414Y-60824797D01*
X183096113Y-60767073D01*
X182980292Y-60690211D01*
X182876637Y-60594739D01*
X182785833Y-60481179D01*
X182719031Y-60370381D01*
X182664164Y-60253625D01*
X182622163Y-60134276D01*
X182592167Y-60008283D01*
X182573311Y-59871594D01*
X182564732Y-59720158D01*
X182564006Y-59642711D01*
X182566100Y-59585934D01*
X183395217Y-59585934D01*
X183395424Y-59679002D01*
X183398337Y-59766692D01*
X183404000Y-59843772D01*
X183412455Y-59905009D01*
X183415038Y-59917350D01*
X183446840Y-60024633D01*
X183488498Y-60111658D01*
X183540363Y-60178642D01*
X183602781Y-60225805D01*
X183676100Y-60253365D01*
X183760669Y-60261541D01*
X183856835Y-60250551D01*
X183920311Y-60234829D01*
X183969454Y-60216639D01*
X184023583Y-60190791D01*
X184064244Y-60167089D01*
X184134800Y-60120721D01*
X184134800Y-58970530D01*
X184067392Y-58926962D01*
X183988867Y-58886040D01*
X183904681Y-58859389D01*
X183819557Y-58847465D01*
X183738216Y-58850722D01*
X183665380Y-58869615D01*
X183633426Y-58885184D01*
X183575501Y-58928181D01*
X183526544Y-58984953D01*
X183485390Y-59057575D01*
X183450874Y-59148121D01*
X183421833Y-59258666D01*
X183420552Y-59264533D01*
X183410381Y-59326788D01*
X183402739Y-59404594D01*
X183397670Y-59492720D01*
X183395217Y-59585934D01*
X182566100Y-59585934D01*
X182571857Y-59429895D01*
X182593802Y-59234059D01*
X182629786Y-59055332D01*
X182679759Y-58893845D01*
X182743668Y-58749726D01*
X182821462Y-58623106D01*
X182913089Y-58514115D01*
X183018497Y-58422883D01*
X183063662Y-58391932D01*
X183164611Y-58335785D01*
X183267901Y-58296174D01*
X183377989Y-58272014D01*
X183499330Y-58262219D01*
X183591836Y-58263265D01*
X183721490Y-58274231D01*
X183834084Y-58296046D01*
X183932875Y-58329714D01*
X184021121Y-58376236D01*
X184069986Y-58410448D01*
X184099353Y-58432362D01*
X184121043Y-58447333D01*
X184129253Y-58451733D01*
X184130868Y-58440904D01*
X184132159Y-58410251D01*
X184133138Y-58362526D01*
X184133817Y-58300479D01*
X184134210Y-58226862D01*
X184134330Y-58144427D01*
X184134188Y-58055925D01*
X184133797Y-57964107D01*
X184133171Y-57871724D01*
X184132320Y-57781528D01*
X184131260Y-57696271D01*
X184130001Y-57618703D01*
X184128556Y-57551576D01*
X184126938Y-57497641D01*
X184125161Y-57459650D01*
X184124669Y-57452667D01*
X184117092Y-57382251D01*
X184105531Y-57327102D01*
X184087792Y-57279981D01*
X184061682Y-57233647D01*
X184055415Y-57224067D01*
X184030983Y-57187378D01*
X184936311Y-57187378D01*
X184936507Y-58872245D01*
G37*
X184936507Y-58872245D02*
X184936526Y-59106662D01*
X184936552Y-59319603D01*
X184936625Y-59512168D01*
X184936782Y-59685459D01*
X184937064Y-59840576D01*
X184937509Y-59978620D01*
X184938156Y-60100692D01*
X184939045Y-60207894D01*
X184940213Y-60301326D01*
X184941701Y-60382090D01*
X184943546Y-60451286D01*
X184945789Y-60510015D01*
X184948469Y-60559379D01*
X184951623Y-60600478D01*
X184955292Y-60634413D01*
X184959513Y-60662286D01*
X184964327Y-60685198D01*
X184969773Y-60704249D01*
X184975888Y-60720540D01*
X184982712Y-60735173D01*
X184990285Y-60749249D01*
X184998645Y-60763868D01*
X185003839Y-60772974D01*
X185038104Y-60833689D01*
X184179955Y-60833689D01*
X184179955Y-60737733D01*
X184179224Y-60694370D01*
X184177272Y-60661205D01*
X184174463Y-60643424D01*
X184173221Y-60641778D01*
X184161799Y-60648662D01*
X184139084Y-60666505D01*
X184116385Y-60685879D01*
X184061800Y-60726614D01*
X183992321Y-60767617D01*
X183915270Y-60805123D01*
X183837965Y-60835364D01*
X183807113Y-60845012D01*
X183738616Y-60859578D01*
X183655764Y-60869539D01*
X183566371Y-60874583D01*
X183478248Y-60874396D01*
X183399207Y-60868666D01*
X183361511Y-60862858D01*
X183223414Y-60824797D01*
X183096113Y-60767073D01*
X182980292Y-60690211D01*
X182876637Y-60594739D01*
X182785833Y-60481179D01*
X182719031Y-60370381D01*
X182664164Y-60253625D01*
X182622163Y-60134276D01*
X182592167Y-60008283D01*
X182573311Y-59871594D01*
X182564732Y-59720158D01*
X182564006Y-59642711D01*
X182566100Y-59585934D01*
X183395217Y-59585934D01*
X183395424Y-59679002D01*
X183398337Y-59766692D01*
X183404000Y-59843772D01*
X183412455Y-59905009D01*
X183415038Y-59917350D01*
X183446840Y-60024633D01*
X183488498Y-60111658D01*
X183540363Y-60178642D01*
X183602781Y-60225805D01*
X183676100Y-60253365D01*
X183760669Y-60261541D01*
X183856835Y-60250551D01*
X183920311Y-60234829D01*
X183969454Y-60216639D01*
X184023583Y-60190791D01*
X184064244Y-60167089D01*
X184134800Y-60120721D01*
X184134800Y-58970530D01*
X184067392Y-58926962D01*
X183988867Y-58886040D01*
X183904681Y-58859389D01*
X183819557Y-58847465D01*
X183738216Y-58850722D01*
X183665380Y-58869615D01*
X183633426Y-58885184D01*
X183575501Y-58928181D01*
X183526544Y-58984953D01*
X183485390Y-59057575D01*
X183450874Y-59148121D01*
X183421833Y-59258666D01*
X183420552Y-59264533D01*
X183410381Y-59326788D01*
X183402739Y-59404594D01*
X183397670Y-59492720D01*
X183395217Y-59585934D01*
X182566100Y-59585934D01*
X182571857Y-59429895D01*
X182593802Y-59234059D01*
X182629786Y-59055332D01*
X182679759Y-58893845D01*
X182743668Y-58749726D01*
X182821462Y-58623106D01*
X182913089Y-58514115D01*
X183018497Y-58422883D01*
X183063662Y-58391932D01*
X183164611Y-58335785D01*
X183267901Y-58296174D01*
X183377989Y-58272014D01*
X183499330Y-58262219D01*
X183591836Y-58263265D01*
X183721490Y-58274231D01*
X183834084Y-58296046D01*
X183932875Y-58329714D01*
X184021121Y-58376236D01*
X184069986Y-58410448D01*
X184099353Y-58432362D01*
X184121043Y-58447333D01*
X184129253Y-58451733D01*
X184130868Y-58440904D01*
X184132159Y-58410251D01*
X184133138Y-58362526D01*
X184133817Y-58300479D01*
X184134210Y-58226862D01*
X184134330Y-58144427D01*
X184134188Y-58055925D01*
X184133797Y-57964107D01*
X184133171Y-57871724D01*
X184132320Y-57781528D01*
X184131260Y-57696271D01*
X184130001Y-57618703D01*
X184128556Y-57551576D01*
X184126938Y-57497641D01*
X184125161Y-57459650D01*
X184124669Y-57452667D01*
X184117092Y-57382251D01*
X184105531Y-57327102D01*
X184087792Y-57279981D01*
X184061682Y-57233647D01*
X184055415Y-57224067D01*
X184030983Y-57187378D01*
X184936311Y-57187378D01*
X184936507Y-58872245D01*
G36*
X181423574Y-58266552D02*
G01*
X181575492Y-58286567D01*
X181710756Y-58320202D01*
X181830239Y-58367725D01*
X181934815Y-58429405D01*
X182012424Y-58492965D01*
X182081265Y-58567099D01*
X182135006Y-58646871D01*
X182177910Y-58739091D01*
X182193384Y-58782161D01*
X182206244Y-58821142D01*
X182217446Y-58857289D01*
X182227120Y-58892434D01*
X182235396Y-58928410D01*
X182242403Y-58967050D01*
X182248272Y-59010185D01*
X182253131Y-59059649D01*
X182257110Y-59117273D01*
X182260340Y-59184891D01*
X182262949Y-59264334D01*
X182265067Y-59357436D01*
X182266824Y-59466027D01*
X182268349Y-59591942D01*
X182269772Y-59737012D01*
X182271025Y-59879778D01*
X182272351Y-60035968D01*
X182273556Y-60171239D01*
X182274766Y-60287246D01*
X182276106Y-60385645D01*
X182277700Y-60468093D01*
X182279675Y-60536246D01*
X182282156Y-60591760D01*
X182285269Y-60636292D01*
X182289138Y-60671498D01*
X182293889Y-60699034D01*
X182299648Y-60720556D01*
X182306539Y-60737722D01*
X182314689Y-60752186D01*
X182324223Y-60765606D01*
X182335266Y-60779638D01*
X182339566Y-60785071D01*
X182355386Y-60807910D01*
X182362422Y-60823463D01*
X182362444Y-60823922D01*
X182351567Y-60826121D01*
X182320582Y-60828147D01*
X182271957Y-60829942D01*
X182208163Y-60831451D01*
X182131669Y-60832616D01*
X182044944Y-60833380D01*
X181950457Y-60833686D01*
X181939550Y-60833689D01*
X181516657Y-60833689D01*
X181513395Y-60737622D01*
X181510133Y-60641556D01*
X181448044Y-60692543D01*
X181350714Y-60760057D01*
X181240813Y-60814749D01*
X181154349Y-60844978D01*
X181085278Y-60859666D01*
X181001925Y-60869659D01*
X180912159Y-60874646D01*
X180823845Y-60874313D01*
X180744851Y-60868351D01*
X180708622Y-60862638D01*
X180568603Y-60824776D01*
X180442178Y-60769932D01*
X180330260Y-60698924D01*
X180233762Y-60612568D01*
X180153600Y-60511679D01*
X180090687Y-60397076D01*
X180046312Y-60270984D01*
X180033978Y-60214401D01*
X180026368Y-60152202D01*
X180022739Y-60077363D01*
X180022245Y-60043467D01*
X180022310Y-60040282D01*
X180782248Y-60040282D01*
X180791541Y-60115333D01*
X180819728Y-60179160D01*
X180868197Y-60234798D01*
X180873254Y-60239211D01*
X180921548Y-60274037D01*
X180973257Y-60296620D01*
X181033989Y-60308540D01*
X181109352Y-60311383D01*
X181127459Y-60310978D01*
X181181278Y-60308325D01*
X181221308Y-60302909D01*
X181256324Y-60292745D01*
X181295103Y-60275850D01*
X181305745Y-60270672D01*
X181366396Y-60234844D01*
X181413215Y-60192212D01*
X181425952Y-60176973D01*
X181470622Y-60120462D01*
X181470622Y-59924586D01*
X181470086Y-59845939D01*
X181468396Y-59787988D01*
X181465428Y-59748875D01*
X181461057Y-59726741D01*
X181456972Y-59720274D01*
X181441047Y-59717111D01*
X181407264Y-59714488D01*
X181360340Y-59712655D01*
X181304993Y-59711857D01*
X181296106Y-59711842D01*
X181175330Y-59717096D01*
X181072660Y-59733263D01*
X180986106Y-59760961D01*
X180913681Y-59800808D01*
X180858751Y-59847758D01*
X180814204Y-59905645D01*
X180789480Y-59968693D01*
X180782248Y-60040282D01*
X180022310Y-60040282D01*
X180024178Y-59949712D01*
X180032522Y-59870812D01*
X180048768Y-59799590D01*
X180074405Y-59728864D01*
X180098401Y-59676493D01*
X180157020Y-59581196D01*
X180235117Y-59493170D01*
X180330315Y-59414017D01*
X180440238Y-59345340D01*
X180562510Y-59288741D01*
X180694755Y-59245821D01*
X180759422Y-59230882D01*
X180895604Y-59208777D01*
X181044049Y-59194194D01*
X181195505Y-59187813D01*
X181322064Y-59189445D01*
X181483950Y-59196224D01*
X181476530Y-59137245D01*
X181457238Y-59038092D01*
X181426104Y-58957372D01*
X181382269Y-58894466D01*
X181324871Y-58848756D01*
X181253048Y-58819622D01*
X181165941Y-58806447D01*
X181062686Y-58808611D01*
X181024711Y-58812612D01*
X180883520Y-58837780D01*
X180746707Y-58878814D01*
X180652178Y-58916815D01*
X180607018Y-58936190D01*
X180568585Y-58951760D01*
X180542234Y-58961405D01*
X180534546Y-58963452D01*
X180524802Y-58954374D01*
X180508083Y-58925405D01*
X180484232Y-58876217D01*
X180453093Y-58806484D01*
X180414507Y-58715879D01*
X180407910Y-58700089D01*
X180377853Y-58627772D01*
X180350874Y-58562425D01*
X180328136Y-58506906D01*
X180310806Y-58464072D01*
X180300048Y-58436781D01*
X180296941Y-58427942D01*
X180306940Y-58423187D01*
X180333217Y-58417910D01*
X180361489Y-58414231D01*
X180391646Y-58409474D01*
X180439433Y-58400028D01*
X180500612Y-58386820D01*
X180570946Y-58370776D01*
X180646194Y-58352820D01*
X180674755Y-58345797D01*
X180779816Y-58320209D01*
X180867480Y-58300147D01*
X180942068Y-58284969D01*
X181007903Y-58274035D01*
X181069307Y-58266704D01*
X181130602Y-58262335D01*
X181196110Y-58260287D01*
X181254128Y-58259889D01*
X181423574Y-58266552D01*
G37*
X181423574Y-58266552D02*
X181575492Y-58286567D01*
X181710756Y-58320202D01*
X181830239Y-58367725D01*
X181934815Y-58429405D01*
X182012424Y-58492965D01*
X182081265Y-58567099D01*
X182135006Y-58646871D01*
X182177910Y-58739091D01*
X182193384Y-58782161D01*
X182206244Y-58821142D01*
X182217446Y-58857289D01*
X182227120Y-58892434D01*
X182235396Y-58928410D01*
X182242403Y-58967050D01*
X182248272Y-59010185D01*
X182253131Y-59059649D01*
X182257110Y-59117273D01*
X182260340Y-59184891D01*
X182262949Y-59264334D01*
X182265067Y-59357436D01*
X182266824Y-59466027D01*
X182268349Y-59591942D01*
X182269772Y-59737012D01*
X182271025Y-59879778D01*
X182272351Y-60035968D01*
X182273556Y-60171239D01*
X182274766Y-60287246D01*
X182276106Y-60385645D01*
X182277700Y-60468093D01*
X182279675Y-60536246D01*
X182282156Y-60591760D01*
X182285269Y-60636292D01*
X182289138Y-60671498D01*
X182293889Y-60699034D01*
X182299648Y-60720556D01*
X182306539Y-60737722D01*
X182314689Y-60752186D01*
X182324223Y-60765606D01*
X182335266Y-60779638D01*
X182339566Y-60785071D01*
X182355386Y-60807910D01*
X182362422Y-60823463D01*
X182362444Y-60823922D01*
X182351567Y-60826121D01*
X182320582Y-60828147D01*
X182271957Y-60829942D01*
X182208163Y-60831451D01*
X182131669Y-60832616D01*
X182044944Y-60833380D01*
X181950457Y-60833686D01*
X181939550Y-60833689D01*
X181516657Y-60833689D01*
X181513395Y-60737622D01*
X181510133Y-60641556D01*
X181448044Y-60692543D01*
X181350714Y-60760057D01*
X181240813Y-60814749D01*
X181154349Y-60844978D01*
X181085278Y-60859666D01*
X181001925Y-60869659D01*
X180912159Y-60874646D01*
X180823845Y-60874313D01*
X180744851Y-60868351D01*
X180708622Y-60862638D01*
X180568603Y-60824776D01*
X180442178Y-60769932D01*
X180330260Y-60698924D01*
X180233762Y-60612568D01*
X180153600Y-60511679D01*
X180090687Y-60397076D01*
X180046312Y-60270984D01*
X180033978Y-60214401D01*
X180026368Y-60152202D01*
X180022739Y-60077363D01*
X180022245Y-60043467D01*
X180022310Y-60040282D01*
X180782248Y-60040282D01*
X180791541Y-60115333D01*
X180819728Y-60179160D01*
X180868197Y-60234798D01*
X180873254Y-60239211D01*
X180921548Y-60274037D01*
X180973257Y-60296620D01*
X181033989Y-60308540D01*
X181109352Y-60311383D01*
X181127459Y-60310978D01*
X181181278Y-60308325D01*
X181221308Y-60302909D01*
X181256324Y-60292745D01*
X181295103Y-60275850D01*
X181305745Y-60270672D01*
X181366396Y-60234844D01*
X181413215Y-60192212D01*
X181425952Y-60176973D01*
X181470622Y-60120462D01*
X181470622Y-59924586D01*
X181470086Y-59845939D01*
X181468396Y-59787988D01*
X181465428Y-59748875D01*
X181461057Y-59726741D01*
X181456972Y-59720274D01*
X181441047Y-59717111D01*
X181407264Y-59714488D01*
X181360340Y-59712655D01*
X181304993Y-59711857D01*
X181296106Y-59711842D01*
X181175330Y-59717096D01*
X181072660Y-59733263D01*
X180986106Y-59760961D01*
X180913681Y-59800808D01*
X180858751Y-59847758D01*
X180814204Y-59905645D01*
X180789480Y-59968693D01*
X180782248Y-60040282D01*
X180022310Y-60040282D01*
X180024178Y-59949712D01*
X180032522Y-59870812D01*
X180048768Y-59799590D01*
X180074405Y-59728864D01*
X180098401Y-59676493D01*
X180157020Y-59581196D01*
X180235117Y-59493170D01*
X180330315Y-59414017D01*
X180440238Y-59345340D01*
X180562510Y-59288741D01*
X180694755Y-59245821D01*
X180759422Y-59230882D01*
X180895604Y-59208777D01*
X181044049Y-59194194D01*
X181195505Y-59187813D01*
X181322064Y-59189445D01*
X181483950Y-59196224D01*
X181476530Y-59137245D01*
X181457238Y-59038092D01*
X181426104Y-58957372D01*
X181382269Y-58894466D01*
X181324871Y-58848756D01*
X181253048Y-58819622D01*
X181165941Y-58806447D01*
X181062686Y-58808611D01*
X181024711Y-58812612D01*
X180883520Y-58837780D01*
X180746707Y-58878814D01*
X180652178Y-58916815D01*
X180607018Y-58936190D01*
X180568585Y-58951760D01*
X180542234Y-58961405D01*
X180534546Y-58963452D01*
X180524802Y-58954374D01*
X180508083Y-58925405D01*
X180484232Y-58876217D01*
X180453093Y-58806484D01*
X180414507Y-58715879D01*
X180407910Y-58700089D01*
X180377853Y-58627772D01*
X180350874Y-58562425D01*
X180328136Y-58506906D01*
X180310806Y-58464072D01*
X180300048Y-58436781D01*
X180296941Y-58427942D01*
X180306940Y-58423187D01*
X180333217Y-58417910D01*
X180361489Y-58414231D01*
X180391646Y-58409474D01*
X180439433Y-58400028D01*
X180500612Y-58386820D01*
X180570946Y-58370776D01*
X180646194Y-58352820D01*
X180674755Y-58345797D01*
X180779816Y-58320209D01*
X180867480Y-58300147D01*
X180942068Y-58284969D01*
X181007903Y-58274035D01*
X181069307Y-58266704D01*
X181130602Y-58262335D01*
X181196110Y-58260287D01*
X181254128Y-58259889D01*
X181423574Y-58266552D01*
G36*
X179078429Y-57349071D02*
G01*
X179238570Y-57370245D01*
X179402510Y-57410385D01*
X179572313Y-57469889D01*
X179750043Y-57549154D01*
X179761310Y-57554699D01*
X179819005Y-57582725D01*
X179870552Y-57606802D01*
X179912191Y-57625249D01*
X179940162Y-57636386D01*
X179949733Y-57638933D01*
X179968950Y-57643941D01*
X179973561Y-57648147D01*
X179968458Y-57658580D01*
X179952418Y-57684868D01*
X179927288Y-57724257D01*
X179894914Y-57773991D01*
X179857143Y-57831315D01*
X179815822Y-57893476D01*
X179772798Y-57957718D01*
X179729917Y-58021285D01*
X179689026Y-58081425D01*
X179651971Y-58135380D01*
X179620600Y-58180397D01*
X179596759Y-58213721D01*
X179582294Y-58232597D01*
X179580309Y-58234787D01*
X179570191Y-58230138D01*
X179547850Y-58212962D01*
X179517280Y-58186440D01*
X179501536Y-58171964D01*
X179405047Y-58096682D01*
X179298336Y-58041241D01*
X179182832Y-58006141D01*
X179059962Y-57991880D01*
X178990561Y-57993051D01*
X178869423Y-58010212D01*
X178760205Y-58046094D01*
X178662582Y-58100959D01*
X178576228Y-58175070D01*
X178500815Y-58268688D01*
X178436018Y-58382076D01*
X178398601Y-58468667D01*
X178354748Y-58604366D01*
X178322428Y-58751850D01*
X178301557Y-58907314D01*
X178292051Y-59066956D01*
X178293827Y-59226973D01*
X178306803Y-59383561D01*
X178330894Y-59532918D01*
X178366018Y-59671240D01*
X178412092Y-59794724D01*
X178428373Y-59828978D01*
X178496620Y-59943064D01*
X178577079Y-60039557D01*
X178668570Y-60117670D01*
X178769911Y-60176617D01*
X178879920Y-60215612D01*
X178997415Y-60233868D01*
X179038883Y-60235211D01*
X179160441Y-60224290D01*
X179280878Y-60191474D01*
X179398666Y-60137439D01*
X179512277Y-60062865D01*
X179603685Y-59984539D01*
X179650215Y-59940008D01*
X179831483Y-60237271D01*
X179876580Y-60311433D01*
X179917819Y-60379646D01*
X179953735Y-60439459D01*
X179982866Y-60488420D01*
X180003750Y-60524079D01*
X180014924Y-60543984D01*
X180016375Y-60547079D01*
X180008146Y-60556718D01*
X179982567Y-60573999D01*
X179942873Y-60597283D01*
X179892297Y-60624934D01*
X179834074Y-60655315D01*
X179771437Y-60686790D01*
X179707621Y-60717722D01*
X179645860Y-60746473D01*
X179589388Y-60771408D01*
X179541438Y-60790889D01*
X179517986Y-60799318D01*
X179384221Y-60837133D01*
X179246327Y-60862136D01*
X179098622Y-60875140D01*
X178971833Y-60877468D01*
X178903878Y-60876373D01*
X178838277Y-60874275D01*
X178780847Y-60871434D01*
X178737403Y-60868106D01*
X178723298Y-60866422D01*
X178584284Y-60837587D01*
X178442757Y-60792468D01*
X178305275Y-60733750D01*
X178178394Y-60664120D01*
X178100889Y-60611441D01*
X177973481Y-60503239D01*
X177855178Y-60376671D01*
X177748172Y-60234866D01*
X177654652Y-60080951D01*
X177576810Y-59918053D01*
X177532956Y-59800756D01*
X177482708Y-59617128D01*
X177449209Y-59422581D01*
X177432449Y-59221325D01*
X177432416Y-59017568D01*
X177449101Y-58815521D01*
X177482493Y-58619392D01*
X177532580Y-58433391D01*
X177536397Y-58421803D01*
X177599281Y-58259750D01*
X177676028Y-58111832D01*
X177769242Y-57973865D01*
X177881527Y-57841661D01*
X177925392Y-57796399D01*
X178061534Y-57672457D01*
X178201491Y-57569915D01*
X178347411Y-57487656D01*
X178501442Y-57424564D01*
X178665732Y-57379523D01*
X178761289Y-57362033D01*
X178920023Y-57346466D01*
X179078429Y-57349071D01*
G37*
X179078429Y-57349071D02*
X179238570Y-57370245D01*
X179402510Y-57410385D01*
X179572313Y-57469889D01*
X179750043Y-57549154D01*
X179761310Y-57554699D01*
X179819005Y-57582725D01*
X179870552Y-57606802D01*
X179912191Y-57625249D01*
X179940162Y-57636386D01*
X179949733Y-57638933D01*
X179968950Y-57643941D01*
X179973561Y-57648147D01*
X179968458Y-57658580D01*
X179952418Y-57684868D01*
X179927288Y-57724257D01*
X179894914Y-57773991D01*
X179857143Y-57831315D01*
X179815822Y-57893476D01*
X179772798Y-57957718D01*
X179729917Y-58021285D01*
X179689026Y-58081425D01*
X179651971Y-58135380D01*
X179620600Y-58180397D01*
X179596759Y-58213721D01*
X179582294Y-58232597D01*
X179580309Y-58234787D01*
X179570191Y-58230138D01*
X179547850Y-58212962D01*
X179517280Y-58186440D01*
X179501536Y-58171964D01*
X179405047Y-58096682D01*
X179298336Y-58041241D01*
X179182832Y-58006141D01*
X179059962Y-57991880D01*
X178990561Y-57993051D01*
X178869423Y-58010212D01*
X178760205Y-58046094D01*
X178662582Y-58100959D01*
X178576228Y-58175070D01*
X178500815Y-58268688D01*
X178436018Y-58382076D01*
X178398601Y-58468667D01*
X178354748Y-58604366D01*
X178322428Y-58751850D01*
X178301557Y-58907314D01*
X178292051Y-59066956D01*
X178293827Y-59226973D01*
X178306803Y-59383561D01*
X178330894Y-59532918D01*
X178366018Y-59671240D01*
X178412092Y-59794724D01*
X178428373Y-59828978D01*
X178496620Y-59943064D01*
X178577079Y-60039557D01*
X178668570Y-60117670D01*
X178769911Y-60176617D01*
X178879920Y-60215612D01*
X178997415Y-60233868D01*
X179038883Y-60235211D01*
X179160441Y-60224290D01*
X179280878Y-60191474D01*
X179398666Y-60137439D01*
X179512277Y-60062865D01*
X179603685Y-59984539D01*
X179650215Y-59940008D01*
X179831483Y-60237271D01*
X179876580Y-60311433D01*
X179917819Y-60379646D01*
X179953735Y-60439459D01*
X179982866Y-60488420D01*
X180003750Y-60524079D01*
X180014924Y-60543984D01*
X180016375Y-60547079D01*
X180008146Y-60556718D01*
X179982567Y-60573999D01*
X179942873Y-60597283D01*
X179892297Y-60624934D01*
X179834074Y-60655315D01*
X179771437Y-60686790D01*
X179707621Y-60717722D01*
X179645860Y-60746473D01*
X179589388Y-60771408D01*
X179541438Y-60790889D01*
X179517986Y-60799318D01*
X179384221Y-60837133D01*
X179246327Y-60862136D01*
X179098622Y-60875140D01*
X178971833Y-60877468D01*
X178903878Y-60876373D01*
X178838277Y-60874275D01*
X178780847Y-60871434D01*
X178737403Y-60868106D01*
X178723298Y-60866422D01*
X178584284Y-60837587D01*
X178442757Y-60792468D01*
X178305275Y-60733750D01*
X178178394Y-60664120D01*
X178100889Y-60611441D01*
X177973481Y-60503239D01*
X177855178Y-60376671D01*
X177748172Y-60234866D01*
X177654652Y-60080951D01*
X177576810Y-59918053D01*
X177532956Y-59800756D01*
X177482708Y-59617128D01*
X177449209Y-59422581D01*
X177432449Y-59221325D01*
X177432416Y-59017568D01*
X177449101Y-58815521D01*
X177482493Y-58619392D01*
X177532580Y-58433391D01*
X177536397Y-58421803D01*
X177599281Y-58259750D01*
X177676028Y-58111832D01*
X177769242Y-57973865D01*
X177881527Y-57841661D01*
X177925392Y-57796399D01*
X178061534Y-57672457D01*
X178201491Y-57569915D01*
X178347411Y-57487656D01*
X178501442Y-57424564D01*
X178665732Y-57379523D01*
X178761289Y-57362033D01*
X178920023Y-57346466D01*
X179078429Y-57349071D01*
G36*
X175803600Y-56889054D02*
G01*
X175814465Y-57002993D01*
X175846082Y-57110616D01*
X175896985Y-57209615D01*
X175965707Y-57297684D01*
X176050781Y-57372516D01*
X176147768Y-57430384D01*
X176254036Y-57470005D01*
X176361050Y-57488573D01*
X176466700Y-57487434D01*
X176568875Y-57467930D01*
X176665466Y-57431406D01*
X176754362Y-57379205D01*
X176833454Y-57312673D01*
X176900631Y-57233152D01*
X176953783Y-57141987D01*
X176990801Y-57040523D01*
X177009573Y-56930102D01*
X177011511Y-56880206D01*
X177011511Y-56792267D01*
X177063440Y-56792267D01*
X177099747Y-56795111D01*
X177126645Y-56806911D01*
X177153751Y-56830649D01*
X177192133Y-56869031D01*
X177192133Y-59060602D01*
X177192124Y-59322739D01*
X177192092Y-59563241D01*
X177192028Y-59783048D01*
X177191924Y-59983101D01*
X177191773Y-60164344D01*
X177191566Y-60327716D01*
X177191294Y-60474160D01*
X177190950Y-60604617D01*
X177190526Y-60720029D01*
X177190013Y-60821338D01*
X177189403Y-60909484D01*
X177188688Y-60985410D01*
X177187860Y-61050057D01*
X177186911Y-61104367D01*
X177185833Y-61149280D01*
X177184617Y-61185740D01*
X177183255Y-61214687D01*
X177181739Y-61237063D01*
X177180062Y-61253809D01*
X177178214Y-61265868D01*
X177176187Y-61274180D01*
X177173975Y-61279687D01*
X177172892Y-61281537D01*
X177168729Y-61288549D01*
X177165195Y-61294996D01*
X177161365Y-61300900D01*
X177156318Y-61306286D01*
X177149129Y-61311178D01*
X177138877Y-61315598D01*
X177124636Y-61319572D01*
X177105486Y-61323121D01*
X177080501Y-61326270D01*
X177048760Y-61329042D01*
X177009338Y-61331461D01*
X176961314Y-61333551D01*
X176903763Y-61335335D01*
X176835763Y-61336837D01*
X176756390Y-61338080D01*
X176664721Y-61339089D01*
X176559834Y-61339885D01*
X176440804Y-61340494D01*
X176306710Y-61340939D01*
X176156627Y-61341243D01*
X175989633Y-61341430D01*
X175804804Y-61341524D01*
X175601217Y-61341548D01*
X175377950Y-61341525D01*
X175134078Y-61341480D01*
X174868679Y-61341437D01*
X174830296Y-61341432D01*
X174563318Y-61341389D01*
X174317998Y-61341318D01*
X174093417Y-61341213D01*
X173888655Y-61341066D01*
X173702794Y-61340869D01*
X173534912Y-61340616D01*
X173384092Y-61340300D01*
X173249413Y-61339913D01*
X173129956Y-61339447D01*
X173024801Y-61338897D01*
X172933029Y-61338253D01*
X172853721Y-61337511D01*
X172785957Y-61336661D01*
X172728818Y-61335697D01*
X172681383Y-61334611D01*
X172642734Y-61333397D01*
X172611951Y-61332047D01*
X172588115Y-61330555D01*
X172570306Y-61328911D01*
X172557605Y-61327111D01*
X172549092Y-61325145D01*
X172544734Y-61323477D01*
X172536272Y-61319906D01*
X172528503Y-61317270D01*
X172521398Y-61314634D01*
X172514927Y-61311062D01*
X172509061Y-61305621D01*
X172503771Y-61297375D01*
X172499026Y-61285390D01*
X172494798Y-61268731D01*
X172491057Y-61246463D01*
X172487773Y-61217652D01*
X172484917Y-61181363D01*
X172482460Y-61136661D01*
X172480371Y-61082611D01*
X172478622Y-61018279D01*
X172477183Y-60942730D01*
X172476024Y-60855030D01*
X172475117Y-60754243D01*
X172474431Y-60639434D01*
X172473937Y-60509670D01*
X172473605Y-60364015D01*
X172473407Y-60201535D01*
X172473313Y-60021295D01*
X172473292Y-59822360D01*
X172473315Y-59603796D01*
X172473354Y-59364668D01*
X172473378Y-59104040D01*
X172473378Y-59061889D01*
X172473364Y-58798992D01*
X172473339Y-58557732D01*
X172473329Y-58337165D01*
X172473358Y-58136352D01*
X172473452Y-57954349D01*
X172473638Y-57790216D01*
X172473941Y-57643011D01*
X172474386Y-57511792D01*
X172474966Y-57401867D01*
X172777803Y-57401867D01*
X172817593Y-57459711D01*
X172828764Y-57475479D01*
X172838834Y-57489441D01*
X172847862Y-57502784D01*
X172855903Y-57516693D01*
X172863014Y-57532356D01*
X172869253Y-57550958D01*
X172874675Y-57573686D01*
X172879338Y-57601727D01*
X172883299Y-57636267D01*
X172886615Y-57678492D01*
X172889341Y-57729589D01*
X172891536Y-57790744D01*
X172893255Y-57863144D01*
X172894556Y-57947975D01*
X172895495Y-58046422D01*
X172896130Y-58159674D01*
X172896516Y-58288916D01*
X172896712Y-58435334D01*
X172896773Y-58600116D01*
X172896757Y-58784447D01*
X172896720Y-58989513D01*
X172896711Y-59112133D01*
X172896735Y-59329082D01*
X172896769Y-59524642D01*
X172896757Y-59699999D01*
X172896642Y-59856341D01*
X172896370Y-59994857D01*
X172895882Y-60116734D01*
X172895124Y-60223160D01*
X172894038Y-60315322D01*
X172892569Y-60394409D01*
X172890660Y-60461608D01*
X172888256Y-60518107D01*
X172885299Y-60565093D01*
X172881734Y-60603755D01*
X172877505Y-60635280D01*
X172872554Y-60660855D01*
X172866827Y-60681670D01*
X172860267Y-60698911D01*
X172852817Y-60713765D01*
X172844421Y-60727422D01*
X172835024Y-60741069D01*
X172824568Y-60755893D01*
X172818477Y-60764783D01*
X172779704Y-60822400D01*
X173311268Y-60822400D01*
X173434517Y-60822365D01*
X173537013Y-60822215D01*
X173620580Y-60821878D01*
X173687044Y-60821286D01*
X173738229Y-60820367D01*
X173775959Y-60819051D01*
X173802060Y-60817269D01*
X173818356Y-60814951D01*
X173826672Y-60812026D01*
X173828832Y-60808424D01*
X173826661Y-60804075D01*
X173825465Y-60802645D01*
X173800315Y-60765573D01*
X173774417Y-60712772D01*
X173750808Y-60650770D01*
X173742539Y-60624357D01*
X173737922Y-60606416D01*
X173734021Y-60585355D01*
X173730752Y-60559089D01*
X173728034Y-60525532D01*
X173725785Y-60482599D01*
X173723923Y-60428204D01*
X173722364Y-60360262D01*
X173721028Y-60276688D01*
X173719831Y-60175395D01*
X173718692Y-60054300D01*
X173718315Y-60009600D01*
X173717298Y-59884449D01*
X173716540Y-59780082D01*
X173716097Y-59694707D01*
X173716030Y-59626533D01*
X173716395Y-59573765D01*
X173717252Y-59534614D01*
X173718659Y-59507285D01*
X173720675Y-59489986D01*
X173723357Y-59480926D01*
X173726764Y-59478312D01*
X173730956Y-59480351D01*
X173735429Y-59484667D01*
X173745784Y-59497602D01*
X173767842Y-59526676D01*
X173800043Y-59569759D01*
X173840826Y-59624718D01*
X173888630Y-59689423D01*
X173941895Y-59761742D01*
X173999060Y-59839544D01*
X174058563Y-59920698D01*
X174118845Y-60003072D01*
X174178345Y-60084536D01*
X174235502Y-60162957D01*
X174288755Y-60236204D01*
X174336543Y-60302147D01*
X174377307Y-60358654D01*
X174409484Y-60403593D01*
X174431515Y-60434834D01*
X174436083Y-60441466D01*
X174459004Y-60478369D01*
X174485812Y-60526359D01*
X174511211Y-60575897D01*
X174514432Y-60582577D01*
X174536110Y-60630772D01*
X174548696Y-60668334D01*
X174554426Y-60704160D01*
X174555544Y-60746200D01*
X174554910Y-60822400D01*
X175709349Y-60822400D01*
X175618185Y-60728669D01*
X175571388Y-60678775D01*
X175521101Y-60622295D01*
X175475056Y-60568026D01*
X175454631Y-60542673D01*
X175424193Y-60503128D01*
X175384138Y-60449916D01*
X175335639Y-60384667D01*
X175279865Y-60309011D01*
X175217989Y-60224577D01*
X175151181Y-60132994D01*
X175080613Y-60035892D01*
X175007455Y-59934901D01*
X174932879Y-59831650D01*
X174858056Y-59727768D01*
X174784157Y-59624885D01*
X174712354Y-59524631D01*
X174643816Y-59428636D01*
X174579716Y-59338527D01*
X174521225Y-59255936D01*
X174469514Y-59182492D01*
X174425753Y-59119824D01*
X174391115Y-59069561D01*
X174366770Y-59033334D01*
X174353889Y-59012771D01*
X174352131Y-59008668D01*
X174360090Y-58997342D01*
X174380885Y-58970162D01*
X174413153Y-58928829D01*
X174455530Y-58875044D01*
X174506653Y-58810506D01*
X174565159Y-58736918D01*
X174629686Y-58655978D01*
X174698869Y-58569388D01*
X174771347Y-58478848D01*
X174845754Y-58386060D01*
X174905483Y-58311702D01*
X175916489Y-58311702D01*
X175922398Y-58324659D01*
X175936728Y-58346908D01*
X175937775Y-58348391D01*
X175956562Y-58378544D01*
X175976209Y-58415375D01*
X175980108Y-58423511D01*
X175983644Y-58431940D01*
X175986770Y-58442059D01*
X175989514Y-58455260D01*
X175991908Y-58472938D01*
X175993981Y-58496484D01*
X175995765Y-58527293D01*
X175997288Y-58566757D01*
X175998581Y-58616269D01*
X175999674Y-58677223D01*
X176000597Y-58751011D01*
X176001381Y-58839028D01*
X176002055Y-58942665D01*
X176002650Y-59063316D01*
X176003195Y-59202374D01*
X176003721Y-59361232D01*
X176004255Y-59540089D01*
X176004794Y-59725207D01*
X176005228Y-59889145D01*
X176005491Y-60033303D01*
X176005516Y-60159079D01*
X176005235Y-60267871D01*
X176004581Y-60361077D01*
X176003486Y-60440097D01*
X176001882Y-60506328D01*
X175999703Y-60561170D01*
X175996881Y-60606021D01*
X175993349Y-60642278D01*
X175989039Y-60671341D01*
X175983883Y-60694609D01*
X175977815Y-60713479D01*
X175970767Y-60729351D01*
X175962671Y-60743622D01*
X175953460Y-60757691D01*
X175944960Y-60770158D01*
X175927824Y-60796452D01*
X175917678Y-60814037D01*
X175916489Y-60817257D01*
X175927396Y-60818334D01*
X175958589Y-60819335D01*
X176007777Y-60820235D01*
X176072667Y-60821010D01*
X176150970Y-60821637D01*
X176240393Y-60822091D01*
X176338644Y-60822349D01*
X176407555Y-60822400D01*
X176512548Y-60822180D01*
X176609390Y-60821548D01*
X176695893Y-60820549D01*
X176769868Y-60819227D01*
X176829126Y-60817626D01*
X176871480Y-60815791D01*
X176894740Y-60813765D01*
X176898622Y-60812493D01*
X176890924Y-60797591D01*
X176882926Y-60789560D01*
X176869754Y-60772434D01*
X176852515Y-60742183D01*
X176840593Y-60717622D01*
X176813955Y-60658711D01*
X176810880Y-59481845D01*
X176807805Y-58304978D01*
X176362147Y-58304978D01*
X176264330Y-58305142D01*
X176173936Y-58305611D01*
X176093370Y-58306347D01*
X176025038Y-58307316D01*
X175971344Y-58308480D01*
X175934695Y-58309803D01*
X175917496Y-58311249D01*
X175916489Y-58311702D01*
X174905483Y-58311702D01*
X174920730Y-58292722D01*
X174994910Y-58200537D01*
X175066931Y-58111204D01*
X175135431Y-58026424D01*
X175199045Y-57947898D01*
X175256412Y-57877326D01*
X175306167Y-57816409D01*
X175346948Y-57766847D01*
X175364112Y-57746178D01*
X175450404Y-57645516D01*
X175527003Y-57562259D01*
X175595817Y-57494438D01*
X175658752Y-57440089D01*
X175668133Y-57432722D01*
X175707644Y-57402117D01*
X174575884Y-57401867D01*
X174581173Y-57449844D01*
X174577870Y-57507188D01*
X174556339Y-57575463D01*
X174516365Y-57655212D01*
X174471057Y-57727495D01*
X174454839Y-57750140D01*
X174426786Y-57787696D01*
X174388570Y-57838021D01*
X174341863Y-57898973D01*
X174288339Y-57968411D01*
X174229669Y-58044194D01*
X174167525Y-58124180D01*
X174103579Y-58206228D01*
X174039505Y-58288196D01*
X173976973Y-58367943D01*
X173917657Y-58443327D01*
X173863229Y-58512207D01*
X173815361Y-58572442D01*
X173775725Y-58621889D01*
X173745994Y-58658408D01*
X173727839Y-58679858D01*
X173724780Y-58683156D01*
X173721921Y-58675149D01*
X173719707Y-58644855D01*
X173718143Y-58592556D01*
X173717233Y-58518531D01*
X173716980Y-58423063D01*
X173717387Y-58306434D01*
X173718296Y-58186445D01*
X173719618Y-58054333D01*
X173721143Y-57942594D01*
X173723119Y-57849025D01*
X173725794Y-57771419D01*
X173729418Y-57707574D01*
X173734239Y-57655283D01*
X173740506Y-57612344D01*
X173748468Y-57576551D01*
X173758373Y-57545700D01*
X173770469Y-57517586D01*
X173785007Y-57490005D01*
X173799689Y-57464966D01*
X173837686Y-57401867D01*
X172777803Y-57401867D01*
X172474966Y-57401867D01*
X172474999Y-57395617D01*
X172475805Y-57293544D01*
X172476830Y-57204633D01*
X172478100Y-57127941D01*
X172479640Y-57062527D01*
X172481476Y-57007449D01*
X172483633Y-56961765D01*
X172486137Y-56924534D01*
X172489013Y-56894813D01*
X172492287Y-56871662D01*
X172495985Y-56854139D01*
X172500131Y-56841301D01*
X172504753Y-56832208D01*
X172509874Y-56825918D01*
X172515522Y-56821488D01*
X172521721Y-56817978D01*
X172528496Y-56814445D01*
X172534492Y-56810876D01*
X172539725Y-56808300D01*
X172547901Y-56805972D01*
X172560114Y-56803878D01*
X172577459Y-56802007D01*
X172601031Y-56800347D01*
X172631923Y-56798884D01*
X172671232Y-56797608D01*
X172720050Y-56796504D01*
X172779473Y-56795561D01*
X172850596Y-56794767D01*
X172934512Y-56794109D01*
X173032317Y-56793575D01*
X173145106Y-56793153D01*
X173273971Y-56792829D01*
X173420009Y-56792592D01*
X173584314Y-56792430D01*
X173767980Y-56792330D01*
X173972103Y-56792280D01*
X174183247Y-56792267D01*
X175803600Y-56792267D01*
X175803600Y-56889054D01*
G37*
X175803600Y-56889054D02*
X175814465Y-57002993D01*
X175846082Y-57110616D01*
X175896985Y-57209615D01*
X175965707Y-57297684D01*
X176050781Y-57372516D01*
X176147768Y-57430384D01*
X176254036Y-57470005D01*
X176361050Y-57488573D01*
X176466700Y-57487434D01*
X176568875Y-57467930D01*
X176665466Y-57431406D01*
X176754362Y-57379205D01*
X176833454Y-57312673D01*
X176900631Y-57233152D01*
X176953783Y-57141987D01*
X176990801Y-57040523D01*
X177009573Y-56930102D01*
X177011511Y-56880206D01*
X177011511Y-56792267D01*
X177063440Y-56792267D01*
X177099747Y-56795111D01*
X177126645Y-56806911D01*
X177153751Y-56830649D01*
X177192133Y-56869031D01*
X177192133Y-59060602D01*
X177192124Y-59322739D01*
X177192092Y-59563241D01*
X177192028Y-59783048D01*
X177191924Y-59983101D01*
X177191773Y-60164344D01*
X177191566Y-60327716D01*
X177191294Y-60474160D01*
X177190950Y-60604617D01*
X177190526Y-60720029D01*
X177190013Y-60821338D01*
X177189403Y-60909484D01*
X177188688Y-60985410D01*
X177187860Y-61050057D01*
X177186911Y-61104367D01*
X177185833Y-61149280D01*
X177184617Y-61185740D01*
X177183255Y-61214687D01*
X177181739Y-61237063D01*
X177180062Y-61253809D01*
X177178214Y-61265868D01*
X177176187Y-61274180D01*
X177173975Y-61279687D01*
X177172892Y-61281537D01*
X177168729Y-61288549D01*
X177165195Y-61294996D01*
X177161365Y-61300900D01*
X177156318Y-61306286D01*
X177149129Y-61311178D01*
X177138877Y-61315598D01*
X177124636Y-61319572D01*
X177105486Y-61323121D01*
X177080501Y-61326270D01*
X177048760Y-61329042D01*
X177009338Y-61331461D01*
X176961314Y-61333551D01*
X176903763Y-61335335D01*
X176835763Y-61336837D01*
X176756390Y-61338080D01*
X176664721Y-61339089D01*
X176559834Y-61339885D01*
X176440804Y-61340494D01*
X176306710Y-61340939D01*
X176156627Y-61341243D01*
X175989633Y-61341430D01*
X175804804Y-61341524D01*
X175601217Y-61341548D01*
X175377950Y-61341525D01*
X175134078Y-61341480D01*
X174868679Y-61341437D01*
X174830296Y-61341432D01*
X174563318Y-61341389D01*
X174317998Y-61341318D01*
X174093417Y-61341213D01*
X173888655Y-61341066D01*
X173702794Y-61340869D01*
X173534912Y-61340616D01*
X173384092Y-61340300D01*
X173249413Y-61339913D01*
X173129956Y-61339447D01*
X173024801Y-61338897D01*
X172933029Y-61338253D01*
X172853721Y-61337511D01*
X172785957Y-61336661D01*
X172728818Y-61335697D01*
X172681383Y-61334611D01*
X172642734Y-61333397D01*
X172611951Y-61332047D01*
X172588115Y-61330555D01*
X172570306Y-61328911D01*
X172557605Y-61327111D01*
X172549092Y-61325145D01*
X172544734Y-61323477D01*
X172536272Y-61319906D01*
X172528503Y-61317270D01*
X172521398Y-61314634D01*
X172514927Y-61311062D01*
X172509061Y-61305621D01*
X172503771Y-61297375D01*
X172499026Y-61285390D01*
X172494798Y-61268731D01*
X172491057Y-61246463D01*
X172487773Y-61217652D01*
X172484917Y-61181363D01*
X172482460Y-61136661D01*
X172480371Y-61082611D01*
X172478622Y-61018279D01*
X172477183Y-60942730D01*
X172476024Y-60855030D01*
X172475117Y-60754243D01*
X172474431Y-60639434D01*
X172473937Y-60509670D01*
X172473605Y-60364015D01*
X172473407Y-60201535D01*
X172473313Y-60021295D01*
X172473292Y-59822360D01*
X172473315Y-59603796D01*
X172473354Y-59364668D01*
X172473378Y-59104040D01*
X172473378Y-59061889D01*
X172473364Y-58798992D01*
X172473339Y-58557732D01*
X172473329Y-58337165D01*
X172473358Y-58136352D01*
X172473452Y-57954349D01*
X172473638Y-57790216D01*
X172473941Y-57643011D01*
X172474386Y-57511792D01*
X172474966Y-57401867D01*
X172777803Y-57401867D01*
X172817593Y-57459711D01*
X172828764Y-57475479D01*
X172838834Y-57489441D01*
X172847862Y-57502784D01*
X172855903Y-57516693D01*
X172863014Y-57532356D01*
X172869253Y-57550958D01*
X172874675Y-57573686D01*
X172879338Y-57601727D01*
X172883299Y-57636267D01*
X172886615Y-57678492D01*
X172889341Y-57729589D01*
X172891536Y-57790744D01*
X172893255Y-57863144D01*
X172894556Y-57947975D01*
X172895495Y-58046422D01*
X172896130Y-58159674D01*
X172896516Y-58288916D01*
X172896712Y-58435334D01*
X172896773Y-58600116D01*
X172896757Y-58784447D01*
X172896720Y-58989513D01*
X172896711Y-59112133D01*
X172896735Y-59329082D01*
X172896769Y-59524642D01*
X172896757Y-59699999D01*
X172896642Y-59856341D01*
X172896370Y-59994857D01*
X172895882Y-60116734D01*
X172895124Y-60223160D01*
X172894038Y-60315322D01*
X172892569Y-60394409D01*
X172890660Y-60461608D01*
X172888256Y-60518107D01*
X172885299Y-60565093D01*
X172881734Y-60603755D01*
X172877505Y-60635280D01*
X172872554Y-60660855D01*
X172866827Y-60681670D01*
X172860267Y-60698911D01*
X172852817Y-60713765D01*
X172844421Y-60727422D01*
X172835024Y-60741069D01*
X172824568Y-60755893D01*
X172818477Y-60764783D01*
X172779704Y-60822400D01*
X173311268Y-60822400D01*
X173434517Y-60822365D01*
X173537013Y-60822215D01*
X173620580Y-60821878D01*
X173687044Y-60821286D01*
X173738229Y-60820367D01*
X173775959Y-60819051D01*
X173802060Y-60817269D01*
X173818356Y-60814951D01*
X173826672Y-60812026D01*
X173828832Y-60808424D01*
X173826661Y-60804075D01*
X173825465Y-60802645D01*
X173800315Y-60765573D01*
X173774417Y-60712772D01*
X173750808Y-60650770D01*
X173742539Y-60624357D01*
X173737922Y-60606416D01*
X173734021Y-60585355D01*
X173730752Y-60559089D01*
X173728034Y-60525532D01*
X173725785Y-60482599D01*
X173723923Y-60428204D01*
X173722364Y-60360262D01*
X173721028Y-60276688D01*
X173719831Y-60175395D01*
X173718692Y-60054300D01*
X173718315Y-60009600D01*
X173717298Y-59884449D01*
X173716540Y-59780082D01*
X173716097Y-59694707D01*
X173716030Y-59626533D01*
X173716395Y-59573765D01*
X173717252Y-59534614D01*
X173718659Y-59507285D01*
X173720675Y-59489986D01*
X173723357Y-59480926D01*
X173726764Y-59478312D01*
X173730956Y-59480351D01*
X173735429Y-59484667D01*
X173745784Y-59497602D01*
X173767842Y-59526676D01*
X173800043Y-59569759D01*
X173840826Y-59624718D01*
X173888630Y-59689423D01*
X173941895Y-59761742D01*
X173999060Y-59839544D01*
X174058563Y-59920698D01*
X174118845Y-60003072D01*
X174178345Y-60084536D01*
X174235502Y-60162957D01*
X174288755Y-60236204D01*
X174336543Y-60302147D01*
X174377307Y-60358654D01*
X174409484Y-60403593D01*
X174431515Y-60434834D01*
X174436083Y-60441466D01*
X174459004Y-60478369D01*
X174485812Y-60526359D01*
X174511211Y-60575897D01*
X174514432Y-60582577D01*
X174536110Y-60630772D01*
X174548696Y-60668334D01*
X174554426Y-60704160D01*
X174555544Y-60746200D01*
X174554910Y-60822400D01*
X175709349Y-60822400D01*
X175618185Y-60728669D01*
X175571388Y-60678775D01*
X175521101Y-60622295D01*
X175475056Y-60568026D01*
X175454631Y-60542673D01*
X175424193Y-60503128D01*
X175384138Y-60449916D01*
X175335639Y-60384667D01*
X175279865Y-60309011D01*
X175217989Y-60224577D01*
X175151181Y-60132994D01*
X175080613Y-60035892D01*
X175007455Y-59934901D01*
X174932879Y-59831650D01*
X174858056Y-59727768D01*
X174784157Y-59624885D01*
X174712354Y-59524631D01*
X174643816Y-59428636D01*
X174579716Y-59338527D01*
X174521225Y-59255936D01*
X174469514Y-59182492D01*
X174425753Y-59119824D01*
X174391115Y-59069561D01*
X174366770Y-59033334D01*
X174353889Y-59012771D01*
X174352131Y-59008668D01*
X174360090Y-58997342D01*
X174380885Y-58970162D01*
X174413153Y-58928829D01*
X174455530Y-58875044D01*
X174506653Y-58810506D01*
X174565159Y-58736918D01*
X174629686Y-58655978D01*
X174698869Y-58569388D01*
X174771347Y-58478848D01*
X174845754Y-58386060D01*
X174905483Y-58311702D01*
X175916489Y-58311702D01*
X175922398Y-58324659D01*
X175936728Y-58346908D01*
X175937775Y-58348391D01*
X175956562Y-58378544D01*
X175976209Y-58415375D01*
X175980108Y-58423511D01*
X175983644Y-58431940D01*
X175986770Y-58442059D01*
X175989514Y-58455260D01*
X175991908Y-58472938D01*
X175993981Y-58496484D01*
X175995765Y-58527293D01*
X175997288Y-58566757D01*
X175998581Y-58616269D01*
X175999674Y-58677223D01*
X176000597Y-58751011D01*
X176001381Y-58839028D01*
X176002055Y-58942665D01*
X176002650Y-59063316D01*
X176003195Y-59202374D01*
X176003721Y-59361232D01*
X176004255Y-59540089D01*
X176004794Y-59725207D01*
X176005228Y-59889145D01*
X176005491Y-60033303D01*
X176005516Y-60159079D01*
X176005235Y-60267871D01*
X176004581Y-60361077D01*
X176003486Y-60440097D01*
X176001882Y-60506328D01*
X175999703Y-60561170D01*
X175996881Y-60606021D01*
X175993349Y-60642278D01*
X175989039Y-60671341D01*
X175983883Y-60694609D01*
X175977815Y-60713479D01*
X175970767Y-60729351D01*
X175962671Y-60743622D01*
X175953460Y-60757691D01*
X175944960Y-60770158D01*
X175927824Y-60796452D01*
X175917678Y-60814037D01*
X175916489Y-60817257D01*
X175927396Y-60818334D01*
X175958589Y-60819335D01*
X176007777Y-60820235D01*
X176072667Y-60821010D01*
X176150970Y-60821637D01*
X176240393Y-60822091D01*
X176338644Y-60822349D01*
X176407555Y-60822400D01*
X176512548Y-60822180D01*
X176609390Y-60821548D01*
X176695893Y-60820549D01*
X176769868Y-60819227D01*
X176829126Y-60817626D01*
X176871480Y-60815791D01*
X176894740Y-60813765D01*
X176898622Y-60812493D01*
X176890924Y-60797591D01*
X176882926Y-60789560D01*
X176869754Y-60772434D01*
X176852515Y-60742183D01*
X176840593Y-60717622D01*
X176813955Y-60658711D01*
X176810880Y-59481845D01*
X176807805Y-58304978D01*
X176362147Y-58304978D01*
X176264330Y-58305142D01*
X176173936Y-58305611D01*
X176093370Y-58306347D01*
X176025038Y-58307316D01*
X175971344Y-58308480D01*
X175934695Y-58309803D01*
X175917496Y-58311249D01*
X175916489Y-58311702D01*
X174905483Y-58311702D01*
X174920730Y-58292722D01*
X174994910Y-58200537D01*
X175066931Y-58111204D01*
X175135431Y-58026424D01*
X175199045Y-57947898D01*
X175256412Y-57877326D01*
X175306167Y-57816409D01*
X175346948Y-57766847D01*
X175364112Y-57746178D01*
X175450404Y-57645516D01*
X175527003Y-57562259D01*
X175595817Y-57494438D01*
X175658752Y-57440089D01*
X175668133Y-57432722D01*
X175707644Y-57402117D01*
X174575884Y-57401867D01*
X174581173Y-57449844D01*
X174577870Y-57507188D01*
X174556339Y-57575463D01*
X174516365Y-57655212D01*
X174471057Y-57727495D01*
X174454839Y-57750140D01*
X174426786Y-57787696D01*
X174388570Y-57838021D01*
X174341863Y-57898973D01*
X174288339Y-57968411D01*
X174229669Y-58044194D01*
X174167525Y-58124180D01*
X174103579Y-58206228D01*
X174039505Y-58288196D01*
X173976973Y-58367943D01*
X173917657Y-58443327D01*
X173863229Y-58512207D01*
X173815361Y-58572442D01*
X173775725Y-58621889D01*
X173745994Y-58658408D01*
X173727839Y-58679858D01*
X173724780Y-58683156D01*
X173721921Y-58675149D01*
X173719707Y-58644855D01*
X173718143Y-58592556D01*
X173717233Y-58518531D01*
X173716980Y-58423063D01*
X173717387Y-58306434D01*
X173718296Y-58186445D01*
X173719618Y-58054333D01*
X173721143Y-57942594D01*
X173723119Y-57849025D01*
X173725794Y-57771419D01*
X173729418Y-57707574D01*
X173734239Y-57655283D01*
X173740506Y-57612344D01*
X173748468Y-57576551D01*
X173758373Y-57545700D01*
X173770469Y-57517586D01*
X173785007Y-57490005D01*
X173799689Y-57464966D01*
X173837686Y-57401867D01*
X172777803Y-57401867D01*
X172474966Y-57401867D01*
X172474999Y-57395617D01*
X172475805Y-57293544D01*
X172476830Y-57204633D01*
X172478100Y-57127941D01*
X172479640Y-57062527D01*
X172481476Y-57007449D01*
X172483633Y-56961765D01*
X172486137Y-56924534D01*
X172489013Y-56894813D01*
X172492287Y-56871662D01*
X172495985Y-56854139D01*
X172500131Y-56841301D01*
X172504753Y-56832208D01*
X172509874Y-56825918D01*
X172515522Y-56821488D01*
X172521721Y-56817978D01*
X172528496Y-56814445D01*
X172534492Y-56810876D01*
X172539725Y-56808300D01*
X172547901Y-56805972D01*
X172560114Y-56803878D01*
X172577459Y-56802007D01*
X172601031Y-56800347D01*
X172631923Y-56798884D01*
X172671232Y-56797608D01*
X172720050Y-56796504D01*
X172779473Y-56795561D01*
X172850596Y-56794767D01*
X172934512Y-56794109D01*
X173032317Y-56793575D01*
X173145106Y-56793153D01*
X173273971Y-56792829D01*
X173420009Y-56792592D01*
X173584314Y-56792430D01*
X173767980Y-56792330D01*
X173972103Y-56792280D01*
X174183247Y-56792267D01*
X175803600Y-56792267D01*
X175803600Y-56889054D01*
D12*
%TO.C,D9*%
X165120000Y-70880000D02*
X165300000Y-70880000D01*
X162780000Y-70880000D02*
X162960000Y-70880000D01*
X165120000Y-71000000D02*
X165300000Y-71000000D01*
X162780000Y-71000000D02*
X162960000Y-71000000D01*
X165135000Y-67700000D02*
X165300000Y-67700000D01*
X162780000Y-67700000D02*
X162945000Y-67700000D01*
X165120000Y-71120000D02*
X165300000Y-71120000D01*
X162780000Y-71120000D02*
X162960000Y-71120000D01*
X165300000Y-71120000D02*
X165300000Y-67700000D01*
X162780000Y-71120000D02*
X162780000Y-67700000D01*
%TO.C,J1*%
X170330000Y-102490000D02*
X170330000Y-101160000D01*
X171660000Y-102490000D02*
X170330000Y-102490000D01*
X172930000Y-102490000D02*
X172930000Y-99830000D01*
X172930000Y-99830000D02*
X185690000Y-99830000D01*
X172930000Y-102490000D02*
X185690000Y-102490000D01*
X185690000Y-102490000D02*
X185690000Y-99830000D01*
%TO.C,R7*%
X111350000Y-123100000D02*
X107510000Y-123100000D01*
X111350000Y-124940000D02*
X107510000Y-124940000D01*
%TO.C,U3*%
X118450000Y-79570000D02*
X118450000Y-77030000D01*
X121750000Y-67640000D02*
X121750000Y-69900000D01*
X119470000Y-67640000D02*
X119470000Y-69500000D01*
X142570000Y-67640000D02*
X119470000Y-67640000D01*
X142570000Y-133440000D02*
X142570000Y-67640000D01*
X119470000Y-133440000D02*
X142570000Y-133440000D01*
X119470000Y-74400000D02*
X119470000Y-133440000D01*
X121100000Y-71950000D02*
G75*
G03*
X121100000Y-71950000I-900000J0D01*
G01*
X122750000Y-71950000D02*
G75*
G03*
X122750000Y-71950000I-2550000J0D01*
G01*
%TO.C,D2*%
X166820000Y-111970000D02*
X166820000Y-108130000D01*
X166580000Y-111970000D02*
X166580000Y-108130000D01*
X166700000Y-111970000D02*
X166700000Y-108130000D01*
X160120000Y-108130000D02*
X160120000Y-108610000D01*
X167960000Y-108130000D02*
X160120000Y-108130000D01*
X167960000Y-108610000D02*
X167960000Y-108130000D01*
X160120000Y-111970000D02*
X160120000Y-111490000D01*
X167960000Y-111970000D02*
X160120000Y-111970000D01*
X167960000Y-111490000D02*
X167960000Y-111970000D01*
%TO.C,U2*%
X153191000Y-128370000D02*
X153191000Y-129880000D01*
X149490000Y-128370000D02*
X149490000Y-129880000D01*
X146220000Y-129880000D02*
X156460000Y-129880000D01*
X156460000Y-128370000D02*
X156460000Y-133011000D01*
X146220000Y-128370000D02*
X146220000Y-133011000D01*
X146220000Y-133011000D02*
X156460000Y-133011000D01*
X146220000Y-128370000D02*
X156460000Y-128370000D01*
%TO.C,U1*%
X183150000Y-108660000D02*
X172870000Y-108660000D01*
X183150000Y-134300000D02*
X183150000Y-108660000D01*
X172870000Y-134300000D02*
X183150000Y-134300000D01*
X172870000Y-108660000D02*
X172870000Y-134300000D01*
X180660000Y-108720000D02*
X179010000Y-108720000D01*
X180660000Y-134240000D02*
X180660000Y-108720000D01*
X175360000Y-134240000D02*
X180660000Y-134240000D01*
X175360000Y-108720000D02*
X175360000Y-134240000D01*
X177010000Y-108720000D02*
X175360000Y-108720000D01*
X179010000Y-108720000D02*
G75*
G02*
X177010000Y-108720000I-1000000J0D01*
G01*
%TO.C,SW1*%
X147130000Y-105780000D02*
X147130000Y-107280000D01*
X148380000Y-109780000D02*
X152880000Y-109780000D01*
X154130000Y-107280000D02*
X154130000Y-105780000D01*
X152880000Y-103280000D02*
X148380000Y-103280000D01*
%TO.C,R31*%
X154800000Y-78950000D02*
X154800000Y-75110000D01*
X152960000Y-78950000D02*
X152960000Y-75110000D01*
%TO.C,R30*%
X164960000Y-78950000D02*
X164960000Y-75110000D01*
X163120000Y-78950000D02*
X163120000Y-75110000D01*
%TO.C,R29*%
X175120000Y-78950000D02*
X175120000Y-75110000D01*
X173280000Y-78950000D02*
X173280000Y-75110000D01*
%TO.C,R28*%
X185280000Y-78950000D02*
X185280000Y-75110000D01*
X183440000Y-78950000D02*
X183440000Y-75110000D01*
%TO.C,R27*%
X154800000Y-92920000D02*
X154800000Y-89080000D01*
X152960000Y-92920000D02*
X152960000Y-89080000D01*
%TO.C,R26*%
X164960000Y-92920000D02*
X164960000Y-89080000D01*
X163120000Y-92920000D02*
X163120000Y-89080000D01*
%TO.C,R25*%
X175120000Y-92920000D02*
X175120000Y-89080000D01*
X173280000Y-92920000D02*
X173280000Y-89080000D01*
%TO.C,R24*%
X185280000Y-92920000D02*
X185280000Y-89080000D01*
X183440000Y-92920000D02*
X183440000Y-89080000D01*
%TO.C,R23*%
X149720000Y-78950000D02*
X149720000Y-75110000D01*
X147880000Y-78950000D02*
X147880000Y-75110000D01*
%TO.C,R22*%
X159880000Y-78950000D02*
X159880000Y-75110000D01*
X158040000Y-78950000D02*
X158040000Y-75110000D01*
%TO.C,R21*%
X170040000Y-78950000D02*
X170040000Y-75110000D01*
X168200000Y-78950000D02*
X168200000Y-75110000D01*
%TO.C,R20*%
X180200000Y-78950000D02*
X180200000Y-75110000D01*
X178360000Y-78950000D02*
X178360000Y-75110000D01*
%TO.C,R19*%
X149720000Y-92920000D02*
X149720000Y-89080000D01*
X147880000Y-92920000D02*
X147880000Y-89080000D01*
%TO.C,R18*%
X159880000Y-92920000D02*
X159880000Y-89080000D01*
X158040000Y-92920000D02*
X158040000Y-89080000D01*
%TO.C,R17*%
X170040000Y-92920000D02*
X170040000Y-89080000D01*
X168200000Y-92920000D02*
X168200000Y-89080000D01*
%TO.C,R16*%
X180200000Y-92920000D02*
X180200000Y-89080000D01*
X178360000Y-92920000D02*
X178360000Y-89080000D01*
%TO.C,R15*%
X107510000Y-116050000D02*
X111350000Y-116050000D01*
X107510000Y-114210000D02*
X111350000Y-114210000D01*
%TO.C,R14*%
X107510000Y-119860000D02*
X111350000Y-119860000D01*
X107510000Y-118020000D02*
X111350000Y-118020000D01*
%TO.C,R13*%
X107510000Y-107160000D02*
X111350000Y-107160000D01*
X107510000Y-105320000D02*
X111350000Y-105320000D01*
%TO.C,R12*%
X107510000Y-94460000D02*
X111350000Y-94460000D01*
X107510000Y-92620000D02*
X111350000Y-92620000D01*
%TO.C,R11*%
X107510000Y-90650000D02*
X111350000Y-90650000D01*
X107510000Y-88810000D02*
X111350000Y-88810000D01*
%TO.C,R10*%
X107510000Y-98270000D02*
X111350000Y-98270000D01*
X107510000Y-96430000D02*
X111350000Y-96430000D01*
%TO.C,R9*%
X107510000Y-102080000D02*
X111350000Y-102080000D01*
X107510000Y-100240000D02*
X111350000Y-100240000D01*
%TO.C,R8*%
X107510000Y-110970000D02*
X111350000Y-110970000D01*
X107510000Y-109130000D02*
X111350000Y-109130000D01*
%TO.C,R6*%
X111350000Y-126910000D02*
X107510000Y-126910000D01*
X111350000Y-128750000D02*
X107510000Y-128750000D01*
%TO.C,R5*%
X148150000Y-114780000D02*
X151990000Y-114780000D01*
X148150000Y-112940000D02*
X151990000Y-112940000D01*
%TO.C,R4*%
X107510000Y-83030000D02*
X111350000Y-83030000D01*
X107510000Y-81190000D02*
X111350000Y-81190000D01*
%TO.C,R3*%
X148150000Y-122400000D02*
X151990000Y-122400000D01*
X148150000Y-120560000D02*
X151990000Y-120560000D01*
%TO.C,R2*%
X148150000Y-126210000D02*
X151990000Y-126210000D01*
X148150000Y-124370000D02*
X151990000Y-124370000D01*
%TO.C,R1*%
X148150000Y-118590000D02*
X151990000Y-118590000D01*
X148150000Y-116750000D02*
X151990000Y-116750000D01*
%TO.C,J2*%
X163040000Y-121450000D02*
X165040000Y-121450000D01*
X158930000Y-134860000D02*
X158930000Y-131800000D01*
X169150000Y-134860000D02*
X158930000Y-134860000D01*
X169150000Y-131800000D02*
X169150000Y-134860000D01*
X169150000Y-121640000D02*
X169150000Y-127700000D01*
X166340000Y-121640000D02*
X169150000Y-121640000D01*
X158930000Y-121640000D02*
X161740000Y-121640000D01*
X158930000Y-127700000D02*
X158930000Y-121640000D01*
%TO.C,D18*%
X149880000Y-70880000D02*
X150060000Y-70880000D01*
X147540000Y-70880000D02*
X147720000Y-70880000D01*
X149880000Y-71000000D02*
X150060000Y-71000000D01*
X147540000Y-71000000D02*
X147720000Y-71000000D01*
X149895000Y-67700000D02*
X150060000Y-67700000D01*
X147540000Y-67700000D02*
X147705000Y-67700000D01*
X149880000Y-71120000D02*
X150060000Y-71120000D01*
X147540000Y-71120000D02*
X147720000Y-71120000D01*
X150060000Y-71120000D02*
X150060000Y-67700000D01*
X147540000Y-71120000D02*
X147540000Y-67700000D01*
%TO.C,D17*%
X160040000Y-70880000D02*
X160220000Y-70880000D01*
X157700000Y-70880000D02*
X157880000Y-70880000D01*
X160040000Y-71000000D02*
X160220000Y-71000000D01*
X157700000Y-71000000D02*
X157880000Y-71000000D01*
X160055000Y-67700000D02*
X160220000Y-67700000D01*
X157700000Y-67700000D02*
X157865000Y-67700000D01*
X160040000Y-71120000D02*
X160220000Y-71120000D01*
X157700000Y-71120000D02*
X157880000Y-71120000D01*
X160220000Y-71120000D02*
X160220000Y-67700000D01*
X157700000Y-71120000D02*
X157700000Y-67700000D01*
%TO.C,D16*%
X170200000Y-70880000D02*
X170380000Y-70880000D01*
X167860000Y-70880000D02*
X168040000Y-70880000D01*
X170200000Y-71000000D02*
X170380000Y-71000000D01*
X167860000Y-71000000D02*
X168040000Y-71000000D01*
X170215000Y-67700000D02*
X170380000Y-67700000D01*
X167860000Y-67700000D02*
X168025000Y-67700000D01*
X170200000Y-71120000D02*
X170380000Y-71120000D01*
X167860000Y-71120000D02*
X168040000Y-71120000D01*
X170380000Y-71120000D02*
X170380000Y-67700000D01*
X167860000Y-71120000D02*
X167860000Y-67700000D01*
%TO.C,D15*%
X180360000Y-70880000D02*
X180540000Y-70880000D01*
X178020000Y-70880000D02*
X178200000Y-70880000D01*
X180360000Y-71000000D02*
X180540000Y-71000000D01*
X178020000Y-71000000D02*
X178200000Y-71000000D01*
X180375000Y-67700000D02*
X180540000Y-67700000D01*
X178020000Y-67700000D02*
X178185000Y-67700000D01*
X180360000Y-71120000D02*
X180540000Y-71120000D01*
X178020000Y-71120000D02*
X178200000Y-71120000D01*
X180540000Y-71120000D02*
X180540000Y-67700000D01*
X178020000Y-71120000D02*
X178020000Y-67700000D01*
%TO.C,D14*%
X149880000Y-86120000D02*
X150060000Y-86120000D01*
X147540000Y-86120000D02*
X147720000Y-86120000D01*
X149880000Y-86240000D02*
X150060000Y-86240000D01*
X147540000Y-86240000D02*
X147720000Y-86240000D01*
X149895000Y-82940000D02*
X150060000Y-82940000D01*
X147540000Y-82940000D02*
X147705000Y-82940000D01*
X149880000Y-86360000D02*
X150060000Y-86360000D01*
X147540000Y-86360000D02*
X147720000Y-86360000D01*
X150060000Y-86360000D02*
X150060000Y-82940000D01*
X147540000Y-86360000D02*
X147540000Y-82940000D01*
%TO.C,D13*%
X160040000Y-86120000D02*
X160220000Y-86120000D01*
X157700000Y-86120000D02*
X157880000Y-86120000D01*
X160040000Y-86240000D02*
X160220000Y-86240000D01*
X157700000Y-86240000D02*
X157880000Y-86240000D01*
X160055000Y-82940000D02*
X160220000Y-82940000D01*
X157700000Y-82940000D02*
X157865000Y-82940000D01*
X160040000Y-86360000D02*
X160220000Y-86360000D01*
X157700000Y-86360000D02*
X157880000Y-86360000D01*
X160220000Y-86360000D02*
X160220000Y-82940000D01*
X157700000Y-86360000D02*
X157700000Y-82940000D01*
%TO.C,D12*%
X170200000Y-86120000D02*
X170380000Y-86120000D01*
X167860000Y-86120000D02*
X168040000Y-86120000D01*
X170200000Y-86240000D02*
X170380000Y-86240000D01*
X167860000Y-86240000D02*
X168040000Y-86240000D01*
X170215000Y-82940000D02*
X170380000Y-82940000D01*
X167860000Y-82940000D02*
X168025000Y-82940000D01*
X170200000Y-86360000D02*
X170380000Y-86360000D01*
X167860000Y-86360000D02*
X168040000Y-86360000D01*
X170380000Y-86360000D02*
X170380000Y-82940000D01*
X167860000Y-86360000D02*
X167860000Y-82940000D01*
%TO.C,D11*%
X180360000Y-86120000D02*
X180540000Y-86120000D01*
X178020000Y-86120000D02*
X178200000Y-86120000D01*
X180360000Y-86240000D02*
X180540000Y-86240000D01*
X178020000Y-86240000D02*
X178200000Y-86240000D01*
X180375000Y-82940000D02*
X180540000Y-82940000D01*
X178020000Y-82940000D02*
X178185000Y-82940000D01*
X180360000Y-86360000D02*
X180540000Y-86360000D01*
X178020000Y-86360000D02*
X178200000Y-86360000D01*
X180540000Y-86360000D02*
X180540000Y-82940000D01*
X178020000Y-86360000D02*
X178020000Y-82940000D01*
%TO.C,D10*%
X154960000Y-70880000D02*
X155140000Y-70880000D01*
X152620000Y-70880000D02*
X152800000Y-70880000D01*
X154960000Y-71000000D02*
X155140000Y-71000000D01*
X152620000Y-71000000D02*
X152800000Y-71000000D01*
X154975000Y-67700000D02*
X155140000Y-67700000D01*
X152620000Y-67700000D02*
X152785000Y-67700000D01*
X154960000Y-71120000D02*
X155140000Y-71120000D01*
X152620000Y-71120000D02*
X152800000Y-71120000D01*
X155140000Y-71120000D02*
X155140000Y-67700000D01*
X152620000Y-71120000D02*
X152620000Y-67700000D01*
%TO.C,D8*%
X175280000Y-70880000D02*
X175460000Y-70880000D01*
X172940000Y-70880000D02*
X173120000Y-70880000D01*
X175280000Y-71000000D02*
X175460000Y-71000000D01*
X172940000Y-71000000D02*
X173120000Y-71000000D01*
X175295000Y-67700000D02*
X175460000Y-67700000D01*
X172940000Y-67700000D02*
X173105000Y-67700000D01*
X175280000Y-71120000D02*
X175460000Y-71120000D01*
X172940000Y-71120000D02*
X173120000Y-71120000D01*
X175460000Y-71120000D02*
X175460000Y-67700000D01*
X172940000Y-71120000D02*
X172940000Y-67700000D01*
%TO.C,D7*%
X185440000Y-70880000D02*
X185620000Y-70880000D01*
X183100000Y-70880000D02*
X183280000Y-70880000D01*
X185440000Y-71000000D02*
X185620000Y-71000000D01*
X183100000Y-71000000D02*
X183280000Y-71000000D01*
X185455000Y-67700000D02*
X185620000Y-67700000D01*
X183100000Y-67700000D02*
X183265000Y-67700000D01*
X185440000Y-71120000D02*
X185620000Y-71120000D01*
X183100000Y-71120000D02*
X183280000Y-71120000D01*
X185620000Y-71120000D02*
X185620000Y-67700000D01*
X183100000Y-71120000D02*
X183100000Y-67700000D01*
%TO.C,D6*%
X154960000Y-86120000D02*
X155140000Y-86120000D01*
X152620000Y-86120000D02*
X152800000Y-86120000D01*
X154960000Y-86240000D02*
X155140000Y-86240000D01*
X152620000Y-86240000D02*
X152800000Y-86240000D01*
X154975000Y-82940000D02*
X155140000Y-82940000D01*
X152620000Y-82940000D02*
X152785000Y-82940000D01*
X154960000Y-86360000D02*
X155140000Y-86360000D01*
X152620000Y-86360000D02*
X152800000Y-86360000D01*
X155140000Y-86360000D02*
X155140000Y-82940000D01*
X152620000Y-86360000D02*
X152620000Y-82940000D01*
%TO.C,D5*%
X165120000Y-86120000D02*
X165300000Y-86120000D01*
X162780000Y-86120000D02*
X162960000Y-86120000D01*
X165120000Y-86240000D02*
X165300000Y-86240000D01*
X162780000Y-86240000D02*
X162960000Y-86240000D01*
X165135000Y-82940000D02*
X165300000Y-82940000D01*
X162780000Y-82940000D02*
X162945000Y-82940000D01*
X165120000Y-86360000D02*
X165300000Y-86360000D01*
X162780000Y-86360000D02*
X162960000Y-86360000D01*
X165300000Y-86360000D02*
X165300000Y-82940000D01*
X162780000Y-86360000D02*
X162780000Y-82940000D01*
%TO.C,D4*%
X175280000Y-86120000D02*
X175460000Y-86120000D01*
X172940000Y-86120000D02*
X173120000Y-86120000D01*
X175280000Y-86240000D02*
X175460000Y-86240000D01*
X172940000Y-86240000D02*
X173120000Y-86240000D01*
X175295000Y-82940000D02*
X175460000Y-82940000D01*
X172940000Y-82940000D02*
X173105000Y-82940000D01*
X175280000Y-86360000D02*
X175460000Y-86360000D01*
X172940000Y-86360000D02*
X173120000Y-86360000D01*
X175460000Y-86360000D02*
X175460000Y-82940000D01*
X172940000Y-86360000D02*
X172940000Y-82940000D01*
%TO.C,D3*%
X185440000Y-86120000D02*
X185620000Y-86120000D01*
X183100000Y-86120000D02*
X183280000Y-86120000D01*
X185440000Y-86240000D02*
X185620000Y-86240000D01*
X183100000Y-86240000D02*
X183280000Y-86240000D01*
X185455000Y-82940000D02*
X185620000Y-82940000D01*
X183100000Y-82940000D02*
X183265000Y-82940000D01*
X185440000Y-86360000D02*
X185620000Y-86360000D01*
X183100000Y-86360000D02*
X183280000Y-86360000D01*
X185620000Y-86360000D02*
X185620000Y-82940000D01*
X183100000Y-86360000D02*
X183100000Y-82940000D01*
%TO.C,D1*%
X114700000Y-80640000D02*
X114520000Y-80640000D01*
X117040000Y-80640000D02*
X116860000Y-80640000D01*
X114700000Y-80520000D02*
X114520000Y-80520000D01*
X117040000Y-80520000D02*
X116860000Y-80520000D01*
X114685000Y-83820000D02*
X114520000Y-83820000D01*
X117040000Y-83820000D02*
X116875000Y-83820000D01*
X114700000Y-80400000D02*
X114520000Y-80400000D01*
X117040000Y-80400000D02*
X116860000Y-80400000D01*
X114520000Y-80400000D02*
X114520000Y-83820000D01*
X117040000Y-80400000D02*
X117040000Y-83820000D01*
%TO.C,C1*%
X163839801Y-102555000D02*
X163839801Y-102155000D01*
X164039801Y-102355000D02*
X163639801Y-102355000D01*
X159689000Y-101530000D02*
X159689000Y-100790000D01*
X159729000Y-101697000D02*
X159729000Y-100623000D01*
X159769000Y-101824000D02*
X159769000Y-100496000D01*
X159809000Y-101928000D02*
X159809000Y-100392000D01*
X159849000Y-102019000D02*
X159849000Y-100301000D01*
X159889000Y-102100000D02*
X159889000Y-100220000D01*
X159929000Y-102173000D02*
X159929000Y-100147000D01*
X159969000Y-100320000D02*
X159969000Y-100080000D01*
X159969000Y-102240000D02*
X159969000Y-102000000D01*
X160009000Y-100320000D02*
X160009000Y-100018000D01*
X160009000Y-102302000D02*
X160009000Y-102000000D01*
X160049000Y-100320000D02*
X160049000Y-99960000D01*
X160049000Y-102360000D02*
X160049000Y-102000000D01*
X160089000Y-100320000D02*
X160089000Y-99906000D01*
X160089000Y-102414000D02*
X160089000Y-102000000D01*
X160129000Y-100320000D02*
X160129000Y-99856000D01*
X160129000Y-102464000D02*
X160129000Y-102000000D01*
X160169000Y-100320000D02*
X160169000Y-99809000D01*
X160169000Y-102511000D02*
X160169000Y-102000000D01*
X160209000Y-100320000D02*
X160209000Y-99764000D01*
X160209000Y-102556000D02*
X160209000Y-102000000D01*
X160249000Y-100320000D02*
X160249000Y-99722000D01*
X160249000Y-102598000D02*
X160249000Y-102000000D01*
X160289000Y-100320000D02*
X160289000Y-99682000D01*
X160289000Y-102638000D02*
X160289000Y-102000000D01*
X160329000Y-100320000D02*
X160329000Y-99644000D01*
X160329000Y-102676000D02*
X160329000Y-102000000D01*
X160369000Y-100320000D02*
X160369000Y-99608000D01*
X160369000Y-102712000D02*
X160369000Y-102000000D01*
X160409000Y-100320000D02*
X160409000Y-99573000D01*
X160409000Y-102747000D02*
X160409000Y-102000000D01*
X160449000Y-100320000D02*
X160449000Y-99541000D01*
X160449000Y-102779000D02*
X160449000Y-102000000D01*
X160489000Y-100320000D02*
X160489000Y-99510000D01*
X160489000Y-102810000D02*
X160489000Y-102000000D01*
X160529000Y-100320000D02*
X160529000Y-99480000D01*
X160529000Y-102840000D02*
X160529000Y-102000000D01*
X160569000Y-100320000D02*
X160569000Y-99452000D01*
X160569000Y-102868000D02*
X160569000Y-102000000D01*
X160609000Y-100320000D02*
X160609000Y-99425000D01*
X160609000Y-102895000D02*
X160609000Y-102000000D01*
X160649000Y-100320000D02*
X160649000Y-99400000D01*
X160649000Y-102920000D02*
X160649000Y-102000000D01*
X160689000Y-100320000D02*
X160689000Y-99375000D01*
X160689000Y-102945000D02*
X160689000Y-102000000D01*
X160729000Y-100320000D02*
X160729000Y-99352000D01*
X160729000Y-102968000D02*
X160729000Y-102000000D01*
X160769000Y-100320000D02*
X160769000Y-99330000D01*
X160769000Y-102990000D02*
X160769000Y-102000000D01*
X160809000Y-100320000D02*
X160809000Y-99309000D01*
X160809000Y-103011000D02*
X160809000Y-102000000D01*
X160849000Y-100320000D02*
X160849000Y-99290000D01*
X160849000Y-103030000D02*
X160849000Y-102000000D01*
X160889000Y-100320000D02*
X160889000Y-99271000D01*
X160889000Y-103049000D02*
X160889000Y-102000000D01*
X160929000Y-100320000D02*
X160929000Y-99253000D01*
X160929000Y-103067000D02*
X160929000Y-102000000D01*
X160969000Y-100320000D02*
X160969000Y-99236000D01*
X160969000Y-103084000D02*
X160969000Y-102000000D01*
X161009000Y-100320000D02*
X161009000Y-99220000D01*
X161009000Y-103100000D02*
X161009000Y-102000000D01*
X161049000Y-100320000D02*
X161049000Y-99206000D01*
X161049000Y-103114000D02*
X161049000Y-102000000D01*
X161090000Y-100320000D02*
X161090000Y-99192000D01*
X161090000Y-103128000D02*
X161090000Y-102000000D01*
X161130000Y-100320000D02*
X161130000Y-99178000D01*
X161130000Y-103142000D02*
X161130000Y-102000000D01*
X161170000Y-100320000D02*
X161170000Y-99166000D01*
X161170000Y-103154000D02*
X161170000Y-102000000D01*
X161210000Y-100320000D02*
X161210000Y-99155000D01*
X161210000Y-103165000D02*
X161210000Y-102000000D01*
X161250000Y-100320000D02*
X161250000Y-99144000D01*
X161250000Y-103176000D02*
X161250000Y-102000000D01*
X161290000Y-100320000D02*
X161290000Y-99135000D01*
X161290000Y-103185000D02*
X161290000Y-102000000D01*
X161330000Y-100320000D02*
X161330000Y-99126000D01*
X161330000Y-103194000D02*
X161330000Y-102000000D01*
X161370000Y-100320000D02*
X161370000Y-99118000D01*
X161370000Y-103202000D02*
X161370000Y-102000000D01*
X161410000Y-100320000D02*
X161410000Y-99110000D01*
X161410000Y-103210000D02*
X161410000Y-102000000D01*
X161450000Y-100320000D02*
X161450000Y-99104000D01*
X161450000Y-103216000D02*
X161450000Y-102000000D01*
X161490000Y-100320000D02*
X161490000Y-99098000D01*
X161490000Y-103222000D02*
X161490000Y-102000000D01*
X161530000Y-100320000D02*
X161530000Y-99093000D01*
X161530000Y-103227000D02*
X161530000Y-102000000D01*
X161570000Y-100320000D02*
X161570000Y-99089000D01*
X161570000Y-103231000D02*
X161570000Y-102000000D01*
X161610000Y-103234000D02*
X161610000Y-99086000D01*
X161650000Y-103237000D02*
X161650000Y-99083000D01*
X161690000Y-103239000D02*
X161690000Y-99081000D01*
X161730000Y-103240000D02*
X161730000Y-99080000D01*
X161770000Y-103240000D02*
X161770000Y-99080000D01*
X163890000Y-101160000D02*
G75*
G03*
X163890000Y-101160000I-2120000J0D01*
G01*
%TO.C,D9*%
D10*
X162232380Y-70148095D02*
X161232380Y-70148095D01*
X161232380Y-69910000D01*
X161280000Y-69767142D01*
X161375238Y-69671904D01*
X161470476Y-69624285D01*
X161660952Y-69576666D01*
X161803809Y-69576666D01*
X161994285Y-69624285D01*
X162089523Y-69671904D01*
X162184761Y-69767142D01*
X162232380Y-69910000D01*
X162232380Y-70148095D01*
X162232380Y-69100476D02*
X162232380Y-68910000D01*
X162184761Y-68814761D01*
X162137142Y-68767142D01*
X161994285Y-68671904D01*
X161803809Y-68624285D01*
X161422857Y-68624285D01*
X161327619Y-68671904D01*
X161280000Y-68719523D01*
X161232380Y-68814761D01*
X161232380Y-69005238D01*
X161280000Y-69100476D01*
X161327619Y-69148095D01*
X161422857Y-69195714D01*
X161660952Y-69195714D01*
X161756190Y-69148095D01*
X161803809Y-69100476D01*
X161851428Y-69005238D01*
X161851428Y-68814761D01*
X161803809Y-68719523D01*
X161756190Y-68671904D01*
X161660952Y-68624285D01*
%TO.C,J1*%
X168782380Y-101493333D02*
X169496666Y-101493333D01*
X169639523Y-101540952D01*
X169734761Y-101636190D01*
X169782380Y-101779047D01*
X169782380Y-101874285D01*
X169782380Y-100493333D02*
X169782380Y-101064761D01*
X169782380Y-100779047D02*
X168782380Y-100779047D01*
X168925238Y-100874285D01*
X169020476Y-100969523D01*
X169068095Y-101064761D01*
%TO.C,R7*%
X109263333Y-122552380D02*
X108930000Y-122076190D01*
X108691904Y-122552380D02*
X108691904Y-121552380D01*
X109072857Y-121552380D01*
X109168095Y-121600000D01*
X109215714Y-121647619D01*
X109263333Y-121742857D01*
X109263333Y-121885714D01*
X109215714Y-121980952D01*
X109168095Y-122028571D01*
X109072857Y-122076190D01*
X108691904Y-122076190D01*
X109596666Y-121552380D02*
X110263333Y-121552380D01*
X109834761Y-122552380D01*
%TO.C,U3*%
X130258095Y-66192380D02*
X130258095Y-67001904D01*
X130305714Y-67097142D01*
X130353333Y-67144761D01*
X130448571Y-67192380D01*
X130639047Y-67192380D01*
X130734285Y-67144761D01*
X130781904Y-67097142D01*
X130829523Y-67001904D01*
X130829523Y-66192380D01*
X131210476Y-66192380D02*
X131829523Y-66192380D01*
X131496190Y-66573333D01*
X131639047Y-66573333D01*
X131734285Y-66620952D01*
X131781904Y-66668571D01*
X131829523Y-66763809D01*
X131829523Y-67001904D01*
X131781904Y-67097142D01*
X131734285Y-67144761D01*
X131639047Y-67192380D01*
X131353333Y-67192380D01*
X131258095Y-67144761D01*
X131210476Y-67097142D01*
%TO.C,D2*%
X163301904Y-113422380D02*
X163301904Y-112422380D01*
X163540000Y-112422380D01*
X163682857Y-112470000D01*
X163778095Y-112565238D01*
X163825714Y-112660476D01*
X163873333Y-112850952D01*
X163873333Y-112993809D01*
X163825714Y-113184285D01*
X163778095Y-113279523D01*
X163682857Y-113374761D01*
X163540000Y-113422380D01*
X163301904Y-113422380D01*
X164254285Y-112517619D02*
X164301904Y-112470000D01*
X164397142Y-112422380D01*
X164635238Y-112422380D01*
X164730476Y-112470000D01*
X164778095Y-112517619D01*
X164825714Y-112612857D01*
X164825714Y-112708095D01*
X164778095Y-112850952D01*
X164206666Y-113422380D01*
X164825714Y-113422380D01*
X168858095Y-112702380D02*
X168858095Y-111702380D01*
X169429523Y-112702380D02*
X169000952Y-112130952D01*
X169429523Y-111702380D02*
X168858095Y-112273809D01*
%TO.C,U2*%
X150578095Y-126822380D02*
X150578095Y-127631904D01*
X150625714Y-127727142D01*
X150673333Y-127774761D01*
X150768571Y-127822380D01*
X150959047Y-127822380D01*
X151054285Y-127774761D01*
X151101904Y-127727142D01*
X151149523Y-127631904D01*
X151149523Y-126822380D01*
X151578095Y-126917619D02*
X151625714Y-126870000D01*
X151720952Y-126822380D01*
X151959047Y-126822380D01*
X152054285Y-126870000D01*
X152101904Y-126917619D01*
X152149523Y-127012857D01*
X152149523Y-127108095D01*
X152101904Y-127250952D01*
X151530476Y-127822380D01*
X152149523Y-127822380D01*
%TO.C,U1*%
X177248095Y-107172380D02*
X177248095Y-107981904D01*
X177295714Y-108077142D01*
X177343333Y-108124761D01*
X177438571Y-108172380D01*
X177629047Y-108172380D01*
X177724285Y-108124761D01*
X177771904Y-108077142D01*
X177819523Y-107981904D01*
X177819523Y-107172380D01*
X178819523Y-108172380D02*
X178248095Y-108172380D01*
X178533809Y-108172380D02*
X178533809Y-107172380D01*
X178438571Y-107315238D01*
X178343333Y-107410476D01*
X178248095Y-107458095D01*
%TO.C,SW1*%
X149316666Y-106804761D02*
X149459523Y-106852380D01*
X149697619Y-106852380D01*
X149792857Y-106804761D01*
X149840476Y-106757142D01*
X149888095Y-106661904D01*
X149888095Y-106566666D01*
X149840476Y-106471428D01*
X149792857Y-106423809D01*
X149697619Y-106376190D01*
X149507142Y-106328571D01*
X149411904Y-106280952D01*
X149364285Y-106233333D01*
X149316666Y-106138095D01*
X149316666Y-106042857D01*
X149364285Y-105947619D01*
X149411904Y-105900000D01*
X149507142Y-105852380D01*
X149745238Y-105852380D01*
X149888095Y-105900000D01*
X150221428Y-105852380D02*
X150459523Y-106852380D01*
X150650000Y-106138095D01*
X150840476Y-106852380D01*
X151078571Y-105852380D01*
X151983333Y-106852380D02*
X151411904Y-106852380D01*
X151697619Y-106852380D02*
X151697619Y-105852380D01*
X151602380Y-105995238D01*
X151507142Y-106090476D01*
X151411904Y-106138095D01*
%TO.C,R31*%
X152412380Y-77672857D02*
X151936190Y-78006190D01*
X152412380Y-78244285D02*
X151412380Y-78244285D01*
X151412380Y-77863333D01*
X151460000Y-77768095D01*
X151507619Y-77720476D01*
X151602857Y-77672857D01*
X151745714Y-77672857D01*
X151840952Y-77720476D01*
X151888571Y-77768095D01*
X151936190Y-77863333D01*
X151936190Y-78244285D01*
X151412380Y-77339523D02*
X151412380Y-76720476D01*
X151793333Y-77053809D01*
X151793333Y-76910952D01*
X151840952Y-76815714D01*
X151888571Y-76768095D01*
X151983809Y-76720476D01*
X152221904Y-76720476D01*
X152317142Y-76768095D01*
X152364761Y-76815714D01*
X152412380Y-76910952D01*
X152412380Y-77196666D01*
X152364761Y-77291904D01*
X152317142Y-77339523D01*
X152412380Y-75768095D02*
X152412380Y-76339523D01*
X152412380Y-76053809D02*
X151412380Y-76053809D01*
X151555238Y-76149047D01*
X151650476Y-76244285D01*
X151698095Y-76339523D01*
%TO.C,R30*%
X162572380Y-77672857D02*
X162096190Y-78006190D01*
X162572380Y-78244285D02*
X161572380Y-78244285D01*
X161572380Y-77863333D01*
X161620000Y-77768095D01*
X161667619Y-77720476D01*
X161762857Y-77672857D01*
X161905714Y-77672857D01*
X162000952Y-77720476D01*
X162048571Y-77768095D01*
X162096190Y-77863333D01*
X162096190Y-78244285D01*
X161572380Y-77339523D02*
X161572380Y-76720476D01*
X161953333Y-77053809D01*
X161953333Y-76910952D01*
X162000952Y-76815714D01*
X162048571Y-76768095D01*
X162143809Y-76720476D01*
X162381904Y-76720476D01*
X162477142Y-76768095D01*
X162524761Y-76815714D01*
X162572380Y-76910952D01*
X162572380Y-77196666D01*
X162524761Y-77291904D01*
X162477142Y-77339523D01*
X161572380Y-76101428D02*
X161572380Y-76006190D01*
X161620000Y-75910952D01*
X161667619Y-75863333D01*
X161762857Y-75815714D01*
X161953333Y-75768095D01*
X162191428Y-75768095D01*
X162381904Y-75815714D01*
X162477142Y-75863333D01*
X162524761Y-75910952D01*
X162572380Y-76006190D01*
X162572380Y-76101428D01*
X162524761Y-76196666D01*
X162477142Y-76244285D01*
X162381904Y-76291904D01*
X162191428Y-76339523D01*
X161953333Y-76339523D01*
X161762857Y-76291904D01*
X161667619Y-76244285D01*
X161620000Y-76196666D01*
X161572380Y-76101428D01*
%TO.C,R29*%
X172732380Y-77672857D02*
X172256190Y-78006190D01*
X172732380Y-78244285D02*
X171732380Y-78244285D01*
X171732380Y-77863333D01*
X171780000Y-77768095D01*
X171827619Y-77720476D01*
X171922857Y-77672857D01*
X172065714Y-77672857D01*
X172160952Y-77720476D01*
X172208571Y-77768095D01*
X172256190Y-77863333D01*
X172256190Y-78244285D01*
X171827619Y-77291904D02*
X171780000Y-77244285D01*
X171732380Y-77149047D01*
X171732380Y-76910952D01*
X171780000Y-76815714D01*
X171827619Y-76768095D01*
X171922857Y-76720476D01*
X172018095Y-76720476D01*
X172160952Y-76768095D01*
X172732380Y-77339523D01*
X172732380Y-76720476D01*
X172732380Y-76244285D02*
X172732380Y-76053809D01*
X172684761Y-75958571D01*
X172637142Y-75910952D01*
X172494285Y-75815714D01*
X172303809Y-75768095D01*
X171922857Y-75768095D01*
X171827619Y-75815714D01*
X171780000Y-75863333D01*
X171732380Y-75958571D01*
X171732380Y-76149047D01*
X171780000Y-76244285D01*
X171827619Y-76291904D01*
X171922857Y-76339523D01*
X172160952Y-76339523D01*
X172256190Y-76291904D01*
X172303809Y-76244285D01*
X172351428Y-76149047D01*
X172351428Y-75958571D01*
X172303809Y-75863333D01*
X172256190Y-75815714D01*
X172160952Y-75768095D01*
%TO.C,R28*%
X182892380Y-77672857D02*
X182416190Y-78006190D01*
X182892380Y-78244285D02*
X181892380Y-78244285D01*
X181892380Y-77863333D01*
X181940000Y-77768095D01*
X181987619Y-77720476D01*
X182082857Y-77672857D01*
X182225714Y-77672857D01*
X182320952Y-77720476D01*
X182368571Y-77768095D01*
X182416190Y-77863333D01*
X182416190Y-78244285D01*
X181987619Y-77291904D02*
X181940000Y-77244285D01*
X181892380Y-77149047D01*
X181892380Y-76910952D01*
X181940000Y-76815714D01*
X181987619Y-76768095D01*
X182082857Y-76720476D01*
X182178095Y-76720476D01*
X182320952Y-76768095D01*
X182892380Y-77339523D01*
X182892380Y-76720476D01*
X182320952Y-76149047D02*
X182273333Y-76244285D01*
X182225714Y-76291904D01*
X182130476Y-76339523D01*
X182082857Y-76339523D01*
X181987619Y-76291904D01*
X181940000Y-76244285D01*
X181892380Y-76149047D01*
X181892380Y-75958571D01*
X181940000Y-75863333D01*
X181987619Y-75815714D01*
X182082857Y-75768095D01*
X182130476Y-75768095D01*
X182225714Y-75815714D01*
X182273333Y-75863333D01*
X182320952Y-75958571D01*
X182320952Y-76149047D01*
X182368571Y-76244285D01*
X182416190Y-76291904D01*
X182511428Y-76339523D01*
X182701904Y-76339523D01*
X182797142Y-76291904D01*
X182844761Y-76244285D01*
X182892380Y-76149047D01*
X182892380Y-75958571D01*
X182844761Y-75863333D01*
X182797142Y-75815714D01*
X182701904Y-75768095D01*
X182511428Y-75768095D01*
X182416190Y-75815714D01*
X182368571Y-75863333D01*
X182320952Y-75958571D01*
%TO.C,R27*%
X152412380Y-91642857D02*
X151936190Y-91976190D01*
X152412380Y-92214285D02*
X151412380Y-92214285D01*
X151412380Y-91833333D01*
X151460000Y-91738095D01*
X151507619Y-91690476D01*
X151602857Y-91642857D01*
X151745714Y-91642857D01*
X151840952Y-91690476D01*
X151888571Y-91738095D01*
X151936190Y-91833333D01*
X151936190Y-92214285D01*
X151507619Y-91261904D02*
X151460000Y-91214285D01*
X151412380Y-91119047D01*
X151412380Y-90880952D01*
X151460000Y-90785714D01*
X151507619Y-90738095D01*
X151602857Y-90690476D01*
X151698095Y-90690476D01*
X151840952Y-90738095D01*
X152412380Y-91309523D01*
X152412380Y-90690476D01*
X151412380Y-90357142D02*
X151412380Y-89690476D01*
X152412380Y-90119047D01*
%TO.C,R26*%
X162572380Y-91642857D02*
X162096190Y-91976190D01*
X162572380Y-92214285D02*
X161572380Y-92214285D01*
X161572380Y-91833333D01*
X161620000Y-91738095D01*
X161667619Y-91690476D01*
X161762857Y-91642857D01*
X161905714Y-91642857D01*
X162000952Y-91690476D01*
X162048571Y-91738095D01*
X162096190Y-91833333D01*
X162096190Y-92214285D01*
X161667619Y-91261904D02*
X161620000Y-91214285D01*
X161572380Y-91119047D01*
X161572380Y-90880952D01*
X161620000Y-90785714D01*
X161667619Y-90738095D01*
X161762857Y-90690476D01*
X161858095Y-90690476D01*
X162000952Y-90738095D01*
X162572380Y-91309523D01*
X162572380Y-90690476D01*
X161572380Y-89833333D02*
X161572380Y-90023809D01*
X161620000Y-90119047D01*
X161667619Y-90166666D01*
X161810476Y-90261904D01*
X162000952Y-90309523D01*
X162381904Y-90309523D01*
X162477142Y-90261904D01*
X162524761Y-90214285D01*
X162572380Y-90119047D01*
X162572380Y-89928571D01*
X162524761Y-89833333D01*
X162477142Y-89785714D01*
X162381904Y-89738095D01*
X162143809Y-89738095D01*
X162048571Y-89785714D01*
X162000952Y-89833333D01*
X161953333Y-89928571D01*
X161953333Y-90119047D01*
X162000952Y-90214285D01*
X162048571Y-90261904D01*
X162143809Y-90309523D01*
%TO.C,R25*%
X172732380Y-91642857D02*
X172256190Y-91976190D01*
X172732380Y-92214285D02*
X171732380Y-92214285D01*
X171732380Y-91833333D01*
X171780000Y-91738095D01*
X171827619Y-91690476D01*
X171922857Y-91642857D01*
X172065714Y-91642857D01*
X172160952Y-91690476D01*
X172208571Y-91738095D01*
X172256190Y-91833333D01*
X172256190Y-92214285D01*
X171827619Y-91261904D02*
X171780000Y-91214285D01*
X171732380Y-91119047D01*
X171732380Y-90880952D01*
X171780000Y-90785714D01*
X171827619Y-90738095D01*
X171922857Y-90690476D01*
X172018095Y-90690476D01*
X172160952Y-90738095D01*
X172732380Y-91309523D01*
X172732380Y-90690476D01*
X171732380Y-89785714D02*
X171732380Y-90261904D01*
X172208571Y-90309523D01*
X172160952Y-90261904D01*
X172113333Y-90166666D01*
X172113333Y-89928571D01*
X172160952Y-89833333D01*
X172208571Y-89785714D01*
X172303809Y-89738095D01*
X172541904Y-89738095D01*
X172637142Y-89785714D01*
X172684761Y-89833333D01*
X172732380Y-89928571D01*
X172732380Y-90166666D01*
X172684761Y-90261904D01*
X172637142Y-90309523D01*
%TO.C,R24*%
X182892380Y-91642857D02*
X182416190Y-91976190D01*
X182892380Y-92214285D02*
X181892380Y-92214285D01*
X181892380Y-91833333D01*
X181940000Y-91738095D01*
X181987619Y-91690476D01*
X182082857Y-91642857D01*
X182225714Y-91642857D01*
X182320952Y-91690476D01*
X182368571Y-91738095D01*
X182416190Y-91833333D01*
X182416190Y-92214285D01*
X181987619Y-91261904D02*
X181940000Y-91214285D01*
X181892380Y-91119047D01*
X181892380Y-90880952D01*
X181940000Y-90785714D01*
X181987619Y-90738095D01*
X182082857Y-90690476D01*
X182178095Y-90690476D01*
X182320952Y-90738095D01*
X182892380Y-91309523D01*
X182892380Y-90690476D01*
X182225714Y-89833333D02*
X182892380Y-89833333D01*
X181844761Y-90071428D02*
X182559047Y-90309523D01*
X182559047Y-89690476D01*
%TO.C,R23*%
X147332380Y-77672857D02*
X146856190Y-78006190D01*
X147332380Y-78244285D02*
X146332380Y-78244285D01*
X146332380Y-77863333D01*
X146380000Y-77768095D01*
X146427619Y-77720476D01*
X146522857Y-77672857D01*
X146665714Y-77672857D01*
X146760952Y-77720476D01*
X146808571Y-77768095D01*
X146856190Y-77863333D01*
X146856190Y-78244285D01*
X146427619Y-77291904D02*
X146380000Y-77244285D01*
X146332380Y-77149047D01*
X146332380Y-76910952D01*
X146380000Y-76815714D01*
X146427619Y-76768095D01*
X146522857Y-76720476D01*
X146618095Y-76720476D01*
X146760952Y-76768095D01*
X147332380Y-77339523D01*
X147332380Y-76720476D01*
X146332380Y-76387142D02*
X146332380Y-75768095D01*
X146713333Y-76101428D01*
X146713333Y-75958571D01*
X146760952Y-75863333D01*
X146808571Y-75815714D01*
X146903809Y-75768095D01*
X147141904Y-75768095D01*
X147237142Y-75815714D01*
X147284761Y-75863333D01*
X147332380Y-75958571D01*
X147332380Y-76244285D01*
X147284761Y-76339523D01*
X147237142Y-76387142D01*
%TO.C,R22*%
X157492380Y-77672857D02*
X157016190Y-78006190D01*
X157492380Y-78244285D02*
X156492380Y-78244285D01*
X156492380Y-77863333D01*
X156540000Y-77768095D01*
X156587619Y-77720476D01*
X156682857Y-77672857D01*
X156825714Y-77672857D01*
X156920952Y-77720476D01*
X156968571Y-77768095D01*
X157016190Y-77863333D01*
X157016190Y-78244285D01*
X156587619Y-77291904D02*
X156540000Y-77244285D01*
X156492380Y-77149047D01*
X156492380Y-76910952D01*
X156540000Y-76815714D01*
X156587619Y-76768095D01*
X156682857Y-76720476D01*
X156778095Y-76720476D01*
X156920952Y-76768095D01*
X157492380Y-77339523D01*
X157492380Y-76720476D01*
X156587619Y-76339523D02*
X156540000Y-76291904D01*
X156492380Y-76196666D01*
X156492380Y-75958571D01*
X156540000Y-75863333D01*
X156587619Y-75815714D01*
X156682857Y-75768095D01*
X156778095Y-75768095D01*
X156920952Y-75815714D01*
X157492380Y-76387142D01*
X157492380Y-75768095D01*
%TO.C,R21*%
X167652380Y-77672857D02*
X167176190Y-78006190D01*
X167652380Y-78244285D02*
X166652380Y-78244285D01*
X166652380Y-77863333D01*
X166700000Y-77768095D01*
X166747619Y-77720476D01*
X166842857Y-77672857D01*
X166985714Y-77672857D01*
X167080952Y-77720476D01*
X167128571Y-77768095D01*
X167176190Y-77863333D01*
X167176190Y-78244285D01*
X166747619Y-77291904D02*
X166700000Y-77244285D01*
X166652380Y-77149047D01*
X166652380Y-76910952D01*
X166700000Y-76815714D01*
X166747619Y-76768095D01*
X166842857Y-76720476D01*
X166938095Y-76720476D01*
X167080952Y-76768095D01*
X167652380Y-77339523D01*
X167652380Y-76720476D01*
X167652380Y-75768095D02*
X167652380Y-76339523D01*
X167652380Y-76053809D02*
X166652380Y-76053809D01*
X166795238Y-76149047D01*
X166890476Y-76244285D01*
X166938095Y-76339523D01*
%TO.C,R20*%
X177812380Y-77672857D02*
X177336190Y-78006190D01*
X177812380Y-78244285D02*
X176812380Y-78244285D01*
X176812380Y-77863333D01*
X176860000Y-77768095D01*
X176907619Y-77720476D01*
X177002857Y-77672857D01*
X177145714Y-77672857D01*
X177240952Y-77720476D01*
X177288571Y-77768095D01*
X177336190Y-77863333D01*
X177336190Y-78244285D01*
X176907619Y-77291904D02*
X176860000Y-77244285D01*
X176812380Y-77149047D01*
X176812380Y-76910952D01*
X176860000Y-76815714D01*
X176907619Y-76768095D01*
X177002857Y-76720476D01*
X177098095Y-76720476D01*
X177240952Y-76768095D01*
X177812380Y-77339523D01*
X177812380Y-76720476D01*
X176812380Y-76101428D02*
X176812380Y-76006190D01*
X176860000Y-75910952D01*
X176907619Y-75863333D01*
X177002857Y-75815714D01*
X177193333Y-75768095D01*
X177431428Y-75768095D01*
X177621904Y-75815714D01*
X177717142Y-75863333D01*
X177764761Y-75910952D01*
X177812380Y-76006190D01*
X177812380Y-76101428D01*
X177764761Y-76196666D01*
X177717142Y-76244285D01*
X177621904Y-76291904D01*
X177431428Y-76339523D01*
X177193333Y-76339523D01*
X177002857Y-76291904D01*
X176907619Y-76244285D01*
X176860000Y-76196666D01*
X176812380Y-76101428D01*
%TO.C,R19*%
X147332380Y-91642857D02*
X146856190Y-91976190D01*
X147332380Y-92214285D02*
X146332380Y-92214285D01*
X146332380Y-91833333D01*
X146380000Y-91738095D01*
X146427619Y-91690476D01*
X146522857Y-91642857D01*
X146665714Y-91642857D01*
X146760952Y-91690476D01*
X146808571Y-91738095D01*
X146856190Y-91833333D01*
X146856190Y-92214285D01*
X147332380Y-90690476D02*
X147332380Y-91261904D01*
X147332380Y-90976190D02*
X146332380Y-90976190D01*
X146475238Y-91071428D01*
X146570476Y-91166666D01*
X146618095Y-91261904D01*
X147332380Y-90214285D02*
X147332380Y-90023809D01*
X147284761Y-89928571D01*
X147237142Y-89880952D01*
X147094285Y-89785714D01*
X146903809Y-89738095D01*
X146522857Y-89738095D01*
X146427619Y-89785714D01*
X146380000Y-89833333D01*
X146332380Y-89928571D01*
X146332380Y-90119047D01*
X146380000Y-90214285D01*
X146427619Y-90261904D01*
X146522857Y-90309523D01*
X146760952Y-90309523D01*
X146856190Y-90261904D01*
X146903809Y-90214285D01*
X146951428Y-90119047D01*
X146951428Y-89928571D01*
X146903809Y-89833333D01*
X146856190Y-89785714D01*
X146760952Y-89738095D01*
%TO.C,R18*%
X157492380Y-91642857D02*
X157016190Y-91976190D01*
X157492380Y-92214285D02*
X156492380Y-92214285D01*
X156492380Y-91833333D01*
X156540000Y-91738095D01*
X156587619Y-91690476D01*
X156682857Y-91642857D01*
X156825714Y-91642857D01*
X156920952Y-91690476D01*
X156968571Y-91738095D01*
X157016190Y-91833333D01*
X157016190Y-92214285D01*
X157492380Y-90690476D02*
X157492380Y-91261904D01*
X157492380Y-90976190D02*
X156492380Y-90976190D01*
X156635238Y-91071428D01*
X156730476Y-91166666D01*
X156778095Y-91261904D01*
X156920952Y-90119047D02*
X156873333Y-90214285D01*
X156825714Y-90261904D01*
X156730476Y-90309523D01*
X156682857Y-90309523D01*
X156587619Y-90261904D01*
X156540000Y-90214285D01*
X156492380Y-90119047D01*
X156492380Y-89928571D01*
X156540000Y-89833333D01*
X156587619Y-89785714D01*
X156682857Y-89738095D01*
X156730476Y-89738095D01*
X156825714Y-89785714D01*
X156873333Y-89833333D01*
X156920952Y-89928571D01*
X156920952Y-90119047D01*
X156968571Y-90214285D01*
X157016190Y-90261904D01*
X157111428Y-90309523D01*
X157301904Y-90309523D01*
X157397142Y-90261904D01*
X157444761Y-90214285D01*
X157492380Y-90119047D01*
X157492380Y-89928571D01*
X157444761Y-89833333D01*
X157397142Y-89785714D01*
X157301904Y-89738095D01*
X157111428Y-89738095D01*
X157016190Y-89785714D01*
X156968571Y-89833333D01*
X156920952Y-89928571D01*
%TO.C,R17*%
X167652380Y-91642857D02*
X167176190Y-91976190D01*
X167652380Y-92214285D02*
X166652380Y-92214285D01*
X166652380Y-91833333D01*
X166700000Y-91738095D01*
X166747619Y-91690476D01*
X166842857Y-91642857D01*
X166985714Y-91642857D01*
X167080952Y-91690476D01*
X167128571Y-91738095D01*
X167176190Y-91833333D01*
X167176190Y-92214285D01*
X167652380Y-90690476D02*
X167652380Y-91261904D01*
X167652380Y-90976190D02*
X166652380Y-90976190D01*
X166795238Y-91071428D01*
X166890476Y-91166666D01*
X166938095Y-91261904D01*
X166652380Y-90357142D02*
X166652380Y-89690476D01*
X167652380Y-90119047D01*
%TO.C,R16*%
X177812380Y-91642857D02*
X177336190Y-91976190D01*
X177812380Y-92214285D02*
X176812380Y-92214285D01*
X176812380Y-91833333D01*
X176860000Y-91738095D01*
X176907619Y-91690476D01*
X177002857Y-91642857D01*
X177145714Y-91642857D01*
X177240952Y-91690476D01*
X177288571Y-91738095D01*
X177336190Y-91833333D01*
X177336190Y-92214285D01*
X177812380Y-90690476D02*
X177812380Y-91261904D01*
X177812380Y-90976190D02*
X176812380Y-90976190D01*
X176955238Y-91071428D01*
X177050476Y-91166666D01*
X177098095Y-91261904D01*
X176812380Y-89833333D02*
X176812380Y-90023809D01*
X176860000Y-90119047D01*
X176907619Y-90166666D01*
X177050476Y-90261904D01*
X177240952Y-90309523D01*
X177621904Y-90309523D01*
X177717142Y-90261904D01*
X177764761Y-90214285D01*
X177812380Y-90119047D01*
X177812380Y-89928571D01*
X177764761Y-89833333D01*
X177717142Y-89785714D01*
X177621904Y-89738095D01*
X177383809Y-89738095D01*
X177288571Y-89785714D01*
X177240952Y-89833333D01*
X177193333Y-89928571D01*
X177193333Y-90119047D01*
X177240952Y-90214285D01*
X177288571Y-90261904D01*
X177383809Y-90309523D01*
%TO.C,R15*%
X108787142Y-113662380D02*
X108453809Y-113186190D01*
X108215714Y-113662380D02*
X108215714Y-112662380D01*
X108596666Y-112662380D01*
X108691904Y-112710000D01*
X108739523Y-112757619D01*
X108787142Y-112852857D01*
X108787142Y-112995714D01*
X108739523Y-113090952D01*
X108691904Y-113138571D01*
X108596666Y-113186190D01*
X108215714Y-113186190D01*
X109739523Y-113662380D02*
X109168095Y-113662380D01*
X109453809Y-113662380D02*
X109453809Y-112662380D01*
X109358571Y-112805238D01*
X109263333Y-112900476D01*
X109168095Y-112948095D01*
X110644285Y-112662380D02*
X110168095Y-112662380D01*
X110120476Y-113138571D01*
X110168095Y-113090952D01*
X110263333Y-113043333D01*
X110501428Y-113043333D01*
X110596666Y-113090952D01*
X110644285Y-113138571D01*
X110691904Y-113233809D01*
X110691904Y-113471904D01*
X110644285Y-113567142D01*
X110596666Y-113614761D01*
X110501428Y-113662380D01*
X110263333Y-113662380D01*
X110168095Y-113614761D01*
X110120476Y-113567142D01*
%TO.C,R14*%
X108787142Y-117472380D02*
X108453809Y-116996190D01*
X108215714Y-117472380D02*
X108215714Y-116472380D01*
X108596666Y-116472380D01*
X108691904Y-116520000D01*
X108739523Y-116567619D01*
X108787142Y-116662857D01*
X108787142Y-116805714D01*
X108739523Y-116900952D01*
X108691904Y-116948571D01*
X108596666Y-116996190D01*
X108215714Y-116996190D01*
X109739523Y-117472380D02*
X109168095Y-117472380D01*
X109453809Y-117472380D02*
X109453809Y-116472380D01*
X109358571Y-116615238D01*
X109263333Y-116710476D01*
X109168095Y-116758095D01*
X110596666Y-116805714D02*
X110596666Y-117472380D01*
X110358571Y-116424761D02*
X110120476Y-117139047D01*
X110739523Y-117139047D01*
%TO.C,R13*%
X108787142Y-104772380D02*
X108453809Y-104296190D01*
X108215714Y-104772380D02*
X108215714Y-103772380D01*
X108596666Y-103772380D01*
X108691904Y-103820000D01*
X108739523Y-103867619D01*
X108787142Y-103962857D01*
X108787142Y-104105714D01*
X108739523Y-104200952D01*
X108691904Y-104248571D01*
X108596666Y-104296190D01*
X108215714Y-104296190D01*
X109739523Y-104772380D02*
X109168095Y-104772380D01*
X109453809Y-104772380D02*
X109453809Y-103772380D01*
X109358571Y-103915238D01*
X109263333Y-104010476D01*
X109168095Y-104058095D01*
X110072857Y-103772380D02*
X110691904Y-103772380D01*
X110358571Y-104153333D01*
X110501428Y-104153333D01*
X110596666Y-104200952D01*
X110644285Y-104248571D01*
X110691904Y-104343809D01*
X110691904Y-104581904D01*
X110644285Y-104677142D01*
X110596666Y-104724761D01*
X110501428Y-104772380D01*
X110215714Y-104772380D01*
X110120476Y-104724761D01*
X110072857Y-104677142D01*
%TO.C,R12*%
X108787142Y-92072380D02*
X108453809Y-91596190D01*
X108215714Y-92072380D02*
X108215714Y-91072380D01*
X108596666Y-91072380D01*
X108691904Y-91120000D01*
X108739523Y-91167619D01*
X108787142Y-91262857D01*
X108787142Y-91405714D01*
X108739523Y-91500952D01*
X108691904Y-91548571D01*
X108596666Y-91596190D01*
X108215714Y-91596190D01*
X109739523Y-92072380D02*
X109168095Y-92072380D01*
X109453809Y-92072380D02*
X109453809Y-91072380D01*
X109358571Y-91215238D01*
X109263333Y-91310476D01*
X109168095Y-91358095D01*
X110120476Y-91167619D02*
X110168095Y-91120000D01*
X110263333Y-91072380D01*
X110501428Y-91072380D01*
X110596666Y-91120000D01*
X110644285Y-91167619D01*
X110691904Y-91262857D01*
X110691904Y-91358095D01*
X110644285Y-91500952D01*
X110072857Y-92072380D01*
X110691904Y-92072380D01*
%TO.C,R11*%
X108787142Y-88262380D02*
X108453809Y-87786190D01*
X108215714Y-88262380D02*
X108215714Y-87262380D01*
X108596666Y-87262380D01*
X108691904Y-87310000D01*
X108739523Y-87357619D01*
X108787142Y-87452857D01*
X108787142Y-87595714D01*
X108739523Y-87690952D01*
X108691904Y-87738571D01*
X108596666Y-87786190D01*
X108215714Y-87786190D01*
X109739523Y-88262380D02*
X109168095Y-88262380D01*
X109453809Y-88262380D02*
X109453809Y-87262380D01*
X109358571Y-87405238D01*
X109263333Y-87500476D01*
X109168095Y-87548095D01*
X110691904Y-88262380D02*
X110120476Y-88262380D01*
X110406190Y-88262380D02*
X110406190Y-87262380D01*
X110310952Y-87405238D01*
X110215714Y-87500476D01*
X110120476Y-87548095D01*
%TO.C,R10*%
X108787142Y-95882380D02*
X108453809Y-95406190D01*
X108215714Y-95882380D02*
X108215714Y-94882380D01*
X108596666Y-94882380D01*
X108691904Y-94930000D01*
X108739523Y-94977619D01*
X108787142Y-95072857D01*
X108787142Y-95215714D01*
X108739523Y-95310952D01*
X108691904Y-95358571D01*
X108596666Y-95406190D01*
X108215714Y-95406190D01*
X109739523Y-95882380D02*
X109168095Y-95882380D01*
X109453809Y-95882380D02*
X109453809Y-94882380D01*
X109358571Y-95025238D01*
X109263333Y-95120476D01*
X109168095Y-95168095D01*
X110358571Y-94882380D02*
X110453809Y-94882380D01*
X110549047Y-94930000D01*
X110596666Y-94977619D01*
X110644285Y-95072857D01*
X110691904Y-95263333D01*
X110691904Y-95501428D01*
X110644285Y-95691904D01*
X110596666Y-95787142D01*
X110549047Y-95834761D01*
X110453809Y-95882380D01*
X110358571Y-95882380D01*
X110263333Y-95834761D01*
X110215714Y-95787142D01*
X110168095Y-95691904D01*
X110120476Y-95501428D01*
X110120476Y-95263333D01*
X110168095Y-95072857D01*
X110215714Y-94977619D01*
X110263333Y-94930000D01*
X110358571Y-94882380D01*
%TO.C,R9*%
X109263333Y-99692380D02*
X108930000Y-99216190D01*
X108691904Y-99692380D02*
X108691904Y-98692380D01*
X109072857Y-98692380D01*
X109168095Y-98740000D01*
X109215714Y-98787619D01*
X109263333Y-98882857D01*
X109263333Y-99025714D01*
X109215714Y-99120952D01*
X109168095Y-99168571D01*
X109072857Y-99216190D01*
X108691904Y-99216190D01*
X109739523Y-99692380D02*
X109930000Y-99692380D01*
X110025238Y-99644761D01*
X110072857Y-99597142D01*
X110168095Y-99454285D01*
X110215714Y-99263809D01*
X110215714Y-98882857D01*
X110168095Y-98787619D01*
X110120476Y-98740000D01*
X110025238Y-98692380D01*
X109834761Y-98692380D01*
X109739523Y-98740000D01*
X109691904Y-98787619D01*
X109644285Y-98882857D01*
X109644285Y-99120952D01*
X109691904Y-99216190D01*
X109739523Y-99263809D01*
X109834761Y-99311428D01*
X110025238Y-99311428D01*
X110120476Y-99263809D01*
X110168095Y-99216190D01*
X110215714Y-99120952D01*
%TO.C,R8*%
X109263333Y-108582380D02*
X108930000Y-108106190D01*
X108691904Y-108582380D02*
X108691904Y-107582380D01*
X109072857Y-107582380D01*
X109168095Y-107630000D01*
X109215714Y-107677619D01*
X109263333Y-107772857D01*
X109263333Y-107915714D01*
X109215714Y-108010952D01*
X109168095Y-108058571D01*
X109072857Y-108106190D01*
X108691904Y-108106190D01*
X109834761Y-108010952D02*
X109739523Y-107963333D01*
X109691904Y-107915714D01*
X109644285Y-107820476D01*
X109644285Y-107772857D01*
X109691904Y-107677619D01*
X109739523Y-107630000D01*
X109834761Y-107582380D01*
X110025238Y-107582380D01*
X110120476Y-107630000D01*
X110168095Y-107677619D01*
X110215714Y-107772857D01*
X110215714Y-107820476D01*
X110168095Y-107915714D01*
X110120476Y-107963333D01*
X110025238Y-108010952D01*
X109834761Y-108010952D01*
X109739523Y-108058571D01*
X109691904Y-108106190D01*
X109644285Y-108201428D01*
X109644285Y-108391904D01*
X109691904Y-108487142D01*
X109739523Y-108534761D01*
X109834761Y-108582380D01*
X110025238Y-108582380D01*
X110120476Y-108534761D01*
X110168095Y-108487142D01*
X110215714Y-108391904D01*
X110215714Y-108201428D01*
X110168095Y-108106190D01*
X110120476Y-108058571D01*
X110025238Y-108010952D01*
%TO.C,R6*%
X109263333Y-126552380D02*
X108930000Y-126076190D01*
X108691904Y-126552380D02*
X108691904Y-125552380D01*
X109072857Y-125552380D01*
X109168095Y-125600000D01*
X109215714Y-125647619D01*
X109263333Y-125742857D01*
X109263333Y-125885714D01*
X109215714Y-125980952D01*
X109168095Y-126028571D01*
X109072857Y-126076190D01*
X108691904Y-126076190D01*
X110120476Y-125552380D02*
X109930000Y-125552380D01*
X109834761Y-125600000D01*
X109787142Y-125647619D01*
X109691904Y-125790476D01*
X109644285Y-125980952D01*
X109644285Y-126361904D01*
X109691904Y-126457142D01*
X109739523Y-126504761D01*
X109834761Y-126552380D01*
X110025238Y-126552380D01*
X110120476Y-126504761D01*
X110168095Y-126457142D01*
X110215714Y-126361904D01*
X110215714Y-126123809D01*
X110168095Y-126028571D01*
X110120476Y-125980952D01*
X110025238Y-125933333D01*
X109834761Y-125933333D01*
X109739523Y-125980952D01*
X109691904Y-126028571D01*
X109644285Y-126123809D01*
%TO.C,R5*%
X149903333Y-112392380D02*
X149570000Y-111916190D01*
X149331904Y-112392380D02*
X149331904Y-111392380D01*
X149712857Y-111392380D01*
X149808095Y-111440000D01*
X149855714Y-111487619D01*
X149903333Y-111582857D01*
X149903333Y-111725714D01*
X149855714Y-111820952D01*
X149808095Y-111868571D01*
X149712857Y-111916190D01*
X149331904Y-111916190D01*
X150808095Y-111392380D02*
X150331904Y-111392380D01*
X150284285Y-111868571D01*
X150331904Y-111820952D01*
X150427142Y-111773333D01*
X150665238Y-111773333D01*
X150760476Y-111820952D01*
X150808095Y-111868571D01*
X150855714Y-111963809D01*
X150855714Y-112201904D01*
X150808095Y-112297142D01*
X150760476Y-112344761D01*
X150665238Y-112392380D01*
X150427142Y-112392380D01*
X150331904Y-112344761D01*
X150284285Y-112297142D01*
%TO.C,R4*%
X109263333Y-80642380D02*
X108930000Y-80166190D01*
X108691904Y-80642380D02*
X108691904Y-79642380D01*
X109072857Y-79642380D01*
X109168095Y-79690000D01*
X109215714Y-79737619D01*
X109263333Y-79832857D01*
X109263333Y-79975714D01*
X109215714Y-80070952D01*
X109168095Y-80118571D01*
X109072857Y-80166190D01*
X108691904Y-80166190D01*
X110120476Y-79975714D02*
X110120476Y-80642380D01*
X109882380Y-79594761D02*
X109644285Y-80309047D01*
X110263333Y-80309047D01*
%TO.C,R3*%
X149903333Y-120012380D02*
X149570000Y-119536190D01*
X149331904Y-120012380D02*
X149331904Y-119012380D01*
X149712857Y-119012380D01*
X149808095Y-119060000D01*
X149855714Y-119107619D01*
X149903333Y-119202857D01*
X149903333Y-119345714D01*
X149855714Y-119440952D01*
X149808095Y-119488571D01*
X149712857Y-119536190D01*
X149331904Y-119536190D01*
X150236666Y-119012380D02*
X150855714Y-119012380D01*
X150522380Y-119393333D01*
X150665238Y-119393333D01*
X150760476Y-119440952D01*
X150808095Y-119488571D01*
X150855714Y-119583809D01*
X150855714Y-119821904D01*
X150808095Y-119917142D01*
X150760476Y-119964761D01*
X150665238Y-120012380D01*
X150379523Y-120012380D01*
X150284285Y-119964761D01*
X150236666Y-119917142D01*
%TO.C,R2*%
X149903333Y-123822380D02*
X149570000Y-123346190D01*
X149331904Y-123822380D02*
X149331904Y-122822380D01*
X149712857Y-122822380D01*
X149808095Y-122870000D01*
X149855714Y-122917619D01*
X149903333Y-123012857D01*
X149903333Y-123155714D01*
X149855714Y-123250952D01*
X149808095Y-123298571D01*
X149712857Y-123346190D01*
X149331904Y-123346190D01*
X150284285Y-122917619D02*
X150331904Y-122870000D01*
X150427142Y-122822380D01*
X150665238Y-122822380D01*
X150760476Y-122870000D01*
X150808095Y-122917619D01*
X150855714Y-123012857D01*
X150855714Y-123108095D01*
X150808095Y-123250952D01*
X150236666Y-123822380D01*
X150855714Y-123822380D01*
%TO.C,R1*%
X149903333Y-116202380D02*
X149570000Y-115726190D01*
X149331904Y-116202380D02*
X149331904Y-115202380D01*
X149712857Y-115202380D01*
X149808095Y-115250000D01*
X149855714Y-115297619D01*
X149903333Y-115392857D01*
X149903333Y-115535714D01*
X149855714Y-115630952D01*
X149808095Y-115678571D01*
X149712857Y-115726190D01*
X149331904Y-115726190D01*
X150855714Y-116202380D02*
X150284285Y-116202380D01*
X150570000Y-116202380D02*
X150570000Y-115202380D01*
X150474761Y-115345238D01*
X150379523Y-115440476D01*
X150284285Y-115488095D01*
%TO.C,J2*%
X163706666Y-119902380D02*
X163706666Y-120616666D01*
X163659047Y-120759523D01*
X163563809Y-120854761D01*
X163420952Y-120902380D01*
X163325714Y-120902380D01*
X164135238Y-119997619D02*
X164182857Y-119950000D01*
X164278095Y-119902380D01*
X164516190Y-119902380D01*
X164611428Y-119950000D01*
X164659047Y-119997619D01*
X164706666Y-120092857D01*
X164706666Y-120188095D01*
X164659047Y-120330952D01*
X164087619Y-120902380D01*
X164706666Y-120902380D01*
%TO.C,D18*%
X146992380Y-70624285D02*
X145992380Y-70624285D01*
X145992380Y-70386190D01*
X146040000Y-70243333D01*
X146135238Y-70148095D01*
X146230476Y-70100476D01*
X146420952Y-70052857D01*
X146563809Y-70052857D01*
X146754285Y-70100476D01*
X146849523Y-70148095D01*
X146944761Y-70243333D01*
X146992380Y-70386190D01*
X146992380Y-70624285D01*
X146992380Y-69100476D02*
X146992380Y-69671904D01*
X146992380Y-69386190D02*
X145992380Y-69386190D01*
X146135238Y-69481428D01*
X146230476Y-69576666D01*
X146278095Y-69671904D01*
X146420952Y-68529047D02*
X146373333Y-68624285D01*
X146325714Y-68671904D01*
X146230476Y-68719523D01*
X146182857Y-68719523D01*
X146087619Y-68671904D01*
X146040000Y-68624285D01*
X145992380Y-68529047D01*
X145992380Y-68338571D01*
X146040000Y-68243333D01*
X146087619Y-68195714D01*
X146182857Y-68148095D01*
X146230476Y-68148095D01*
X146325714Y-68195714D01*
X146373333Y-68243333D01*
X146420952Y-68338571D01*
X146420952Y-68529047D01*
X146468571Y-68624285D01*
X146516190Y-68671904D01*
X146611428Y-68719523D01*
X146801904Y-68719523D01*
X146897142Y-68671904D01*
X146944761Y-68624285D01*
X146992380Y-68529047D01*
X146992380Y-68338571D01*
X146944761Y-68243333D01*
X146897142Y-68195714D01*
X146801904Y-68148095D01*
X146611428Y-68148095D01*
X146516190Y-68195714D01*
X146468571Y-68243333D01*
X146420952Y-68338571D01*
%TO.C,D17*%
X157152380Y-70624285D02*
X156152380Y-70624285D01*
X156152380Y-70386190D01*
X156200000Y-70243333D01*
X156295238Y-70148095D01*
X156390476Y-70100476D01*
X156580952Y-70052857D01*
X156723809Y-70052857D01*
X156914285Y-70100476D01*
X157009523Y-70148095D01*
X157104761Y-70243333D01*
X157152380Y-70386190D01*
X157152380Y-70624285D01*
X157152380Y-69100476D02*
X157152380Y-69671904D01*
X157152380Y-69386190D02*
X156152380Y-69386190D01*
X156295238Y-69481428D01*
X156390476Y-69576666D01*
X156438095Y-69671904D01*
X156152380Y-68767142D02*
X156152380Y-68100476D01*
X157152380Y-68529047D01*
%TO.C,D16*%
X167312380Y-70624285D02*
X166312380Y-70624285D01*
X166312380Y-70386190D01*
X166360000Y-70243333D01*
X166455238Y-70148095D01*
X166550476Y-70100476D01*
X166740952Y-70052857D01*
X166883809Y-70052857D01*
X167074285Y-70100476D01*
X167169523Y-70148095D01*
X167264761Y-70243333D01*
X167312380Y-70386190D01*
X167312380Y-70624285D01*
X167312380Y-69100476D02*
X167312380Y-69671904D01*
X167312380Y-69386190D02*
X166312380Y-69386190D01*
X166455238Y-69481428D01*
X166550476Y-69576666D01*
X166598095Y-69671904D01*
X166312380Y-68243333D02*
X166312380Y-68433809D01*
X166360000Y-68529047D01*
X166407619Y-68576666D01*
X166550476Y-68671904D01*
X166740952Y-68719523D01*
X167121904Y-68719523D01*
X167217142Y-68671904D01*
X167264761Y-68624285D01*
X167312380Y-68529047D01*
X167312380Y-68338571D01*
X167264761Y-68243333D01*
X167217142Y-68195714D01*
X167121904Y-68148095D01*
X166883809Y-68148095D01*
X166788571Y-68195714D01*
X166740952Y-68243333D01*
X166693333Y-68338571D01*
X166693333Y-68529047D01*
X166740952Y-68624285D01*
X166788571Y-68671904D01*
X166883809Y-68719523D01*
%TO.C,D15*%
X177472380Y-70624285D02*
X176472380Y-70624285D01*
X176472380Y-70386190D01*
X176520000Y-70243333D01*
X176615238Y-70148095D01*
X176710476Y-70100476D01*
X176900952Y-70052857D01*
X177043809Y-70052857D01*
X177234285Y-70100476D01*
X177329523Y-70148095D01*
X177424761Y-70243333D01*
X177472380Y-70386190D01*
X177472380Y-70624285D01*
X177472380Y-69100476D02*
X177472380Y-69671904D01*
X177472380Y-69386190D02*
X176472380Y-69386190D01*
X176615238Y-69481428D01*
X176710476Y-69576666D01*
X176758095Y-69671904D01*
X176472380Y-68195714D02*
X176472380Y-68671904D01*
X176948571Y-68719523D01*
X176900952Y-68671904D01*
X176853333Y-68576666D01*
X176853333Y-68338571D01*
X176900952Y-68243333D01*
X176948571Y-68195714D01*
X177043809Y-68148095D01*
X177281904Y-68148095D01*
X177377142Y-68195714D01*
X177424761Y-68243333D01*
X177472380Y-68338571D01*
X177472380Y-68576666D01*
X177424761Y-68671904D01*
X177377142Y-68719523D01*
%TO.C,D14*%
X146992380Y-85864285D02*
X145992380Y-85864285D01*
X145992380Y-85626190D01*
X146040000Y-85483333D01*
X146135238Y-85388095D01*
X146230476Y-85340476D01*
X146420952Y-85292857D01*
X146563809Y-85292857D01*
X146754285Y-85340476D01*
X146849523Y-85388095D01*
X146944761Y-85483333D01*
X146992380Y-85626190D01*
X146992380Y-85864285D01*
X146992380Y-84340476D02*
X146992380Y-84911904D01*
X146992380Y-84626190D02*
X145992380Y-84626190D01*
X146135238Y-84721428D01*
X146230476Y-84816666D01*
X146278095Y-84911904D01*
X146325714Y-83483333D02*
X146992380Y-83483333D01*
X145944761Y-83721428D02*
X146659047Y-83959523D01*
X146659047Y-83340476D01*
%TO.C,D13*%
X157152380Y-85864285D02*
X156152380Y-85864285D01*
X156152380Y-85626190D01*
X156200000Y-85483333D01*
X156295238Y-85388095D01*
X156390476Y-85340476D01*
X156580952Y-85292857D01*
X156723809Y-85292857D01*
X156914285Y-85340476D01*
X157009523Y-85388095D01*
X157104761Y-85483333D01*
X157152380Y-85626190D01*
X157152380Y-85864285D01*
X157152380Y-84340476D02*
X157152380Y-84911904D01*
X157152380Y-84626190D02*
X156152380Y-84626190D01*
X156295238Y-84721428D01*
X156390476Y-84816666D01*
X156438095Y-84911904D01*
X156152380Y-84007142D02*
X156152380Y-83388095D01*
X156533333Y-83721428D01*
X156533333Y-83578571D01*
X156580952Y-83483333D01*
X156628571Y-83435714D01*
X156723809Y-83388095D01*
X156961904Y-83388095D01*
X157057142Y-83435714D01*
X157104761Y-83483333D01*
X157152380Y-83578571D01*
X157152380Y-83864285D01*
X157104761Y-83959523D01*
X157057142Y-84007142D01*
%TO.C,D12*%
X167312380Y-85864285D02*
X166312380Y-85864285D01*
X166312380Y-85626190D01*
X166360000Y-85483333D01*
X166455238Y-85388095D01*
X166550476Y-85340476D01*
X166740952Y-85292857D01*
X166883809Y-85292857D01*
X167074285Y-85340476D01*
X167169523Y-85388095D01*
X167264761Y-85483333D01*
X167312380Y-85626190D01*
X167312380Y-85864285D01*
X167312380Y-84340476D02*
X167312380Y-84911904D01*
X167312380Y-84626190D02*
X166312380Y-84626190D01*
X166455238Y-84721428D01*
X166550476Y-84816666D01*
X166598095Y-84911904D01*
X166407619Y-83959523D02*
X166360000Y-83911904D01*
X166312380Y-83816666D01*
X166312380Y-83578571D01*
X166360000Y-83483333D01*
X166407619Y-83435714D01*
X166502857Y-83388095D01*
X166598095Y-83388095D01*
X166740952Y-83435714D01*
X167312380Y-84007142D01*
X167312380Y-83388095D01*
%TO.C,D11*%
X177472380Y-85864285D02*
X176472380Y-85864285D01*
X176472380Y-85626190D01*
X176520000Y-85483333D01*
X176615238Y-85388095D01*
X176710476Y-85340476D01*
X176900952Y-85292857D01*
X177043809Y-85292857D01*
X177234285Y-85340476D01*
X177329523Y-85388095D01*
X177424761Y-85483333D01*
X177472380Y-85626190D01*
X177472380Y-85864285D01*
X177472380Y-84340476D02*
X177472380Y-84911904D01*
X177472380Y-84626190D02*
X176472380Y-84626190D01*
X176615238Y-84721428D01*
X176710476Y-84816666D01*
X176758095Y-84911904D01*
X177472380Y-83388095D02*
X177472380Y-83959523D01*
X177472380Y-83673809D02*
X176472380Y-83673809D01*
X176615238Y-83769047D01*
X176710476Y-83864285D01*
X176758095Y-83959523D01*
%TO.C,D10*%
X152072380Y-70624285D02*
X151072380Y-70624285D01*
X151072380Y-70386190D01*
X151120000Y-70243333D01*
X151215238Y-70148095D01*
X151310476Y-70100476D01*
X151500952Y-70052857D01*
X151643809Y-70052857D01*
X151834285Y-70100476D01*
X151929523Y-70148095D01*
X152024761Y-70243333D01*
X152072380Y-70386190D01*
X152072380Y-70624285D01*
X152072380Y-69100476D02*
X152072380Y-69671904D01*
X152072380Y-69386190D02*
X151072380Y-69386190D01*
X151215238Y-69481428D01*
X151310476Y-69576666D01*
X151358095Y-69671904D01*
X151072380Y-68481428D02*
X151072380Y-68386190D01*
X151120000Y-68290952D01*
X151167619Y-68243333D01*
X151262857Y-68195714D01*
X151453333Y-68148095D01*
X151691428Y-68148095D01*
X151881904Y-68195714D01*
X151977142Y-68243333D01*
X152024761Y-68290952D01*
X152072380Y-68386190D01*
X152072380Y-68481428D01*
X152024761Y-68576666D01*
X151977142Y-68624285D01*
X151881904Y-68671904D01*
X151691428Y-68719523D01*
X151453333Y-68719523D01*
X151262857Y-68671904D01*
X151167619Y-68624285D01*
X151120000Y-68576666D01*
X151072380Y-68481428D01*
%TO.C,D8*%
X172392380Y-70148095D02*
X171392380Y-70148095D01*
X171392380Y-69910000D01*
X171440000Y-69767142D01*
X171535238Y-69671904D01*
X171630476Y-69624285D01*
X171820952Y-69576666D01*
X171963809Y-69576666D01*
X172154285Y-69624285D01*
X172249523Y-69671904D01*
X172344761Y-69767142D01*
X172392380Y-69910000D01*
X172392380Y-70148095D01*
X171820952Y-69005238D02*
X171773333Y-69100476D01*
X171725714Y-69148095D01*
X171630476Y-69195714D01*
X171582857Y-69195714D01*
X171487619Y-69148095D01*
X171440000Y-69100476D01*
X171392380Y-69005238D01*
X171392380Y-68814761D01*
X171440000Y-68719523D01*
X171487619Y-68671904D01*
X171582857Y-68624285D01*
X171630476Y-68624285D01*
X171725714Y-68671904D01*
X171773333Y-68719523D01*
X171820952Y-68814761D01*
X171820952Y-69005238D01*
X171868571Y-69100476D01*
X171916190Y-69148095D01*
X172011428Y-69195714D01*
X172201904Y-69195714D01*
X172297142Y-69148095D01*
X172344761Y-69100476D01*
X172392380Y-69005238D01*
X172392380Y-68814761D01*
X172344761Y-68719523D01*
X172297142Y-68671904D01*
X172201904Y-68624285D01*
X172011428Y-68624285D01*
X171916190Y-68671904D01*
X171868571Y-68719523D01*
X171820952Y-68814761D01*
%TO.C,D7*%
X182552380Y-70148095D02*
X181552380Y-70148095D01*
X181552380Y-69910000D01*
X181600000Y-69767142D01*
X181695238Y-69671904D01*
X181790476Y-69624285D01*
X181980952Y-69576666D01*
X182123809Y-69576666D01*
X182314285Y-69624285D01*
X182409523Y-69671904D01*
X182504761Y-69767142D01*
X182552380Y-69910000D01*
X182552380Y-70148095D01*
X181552380Y-69243333D02*
X181552380Y-68576666D01*
X182552380Y-69005238D01*
%TO.C,D6*%
X152072380Y-85388095D02*
X151072380Y-85388095D01*
X151072380Y-85150000D01*
X151120000Y-85007142D01*
X151215238Y-84911904D01*
X151310476Y-84864285D01*
X151500952Y-84816666D01*
X151643809Y-84816666D01*
X151834285Y-84864285D01*
X151929523Y-84911904D01*
X152024761Y-85007142D01*
X152072380Y-85150000D01*
X152072380Y-85388095D01*
X151072380Y-83959523D02*
X151072380Y-84150000D01*
X151120000Y-84245238D01*
X151167619Y-84292857D01*
X151310476Y-84388095D01*
X151500952Y-84435714D01*
X151881904Y-84435714D01*
X151977142Y-84388095D01*
X152024761Y-84340476D01*
X152072380Y-84245238D01*
X152072380Y-84054761D01*
X152024761Y-83959523D01*
X151977142Y-83911904D01*
X151881904Y-83864285D01*
X151643809Y-83864285D01*
X151548571Y-83911904D01*
X151500952Y-83959523D01*
X151453333Y-84054761D01*
X151453333Y-84245238D01*
X151500952Y-84340476D01*
X151548571Y-84388095D01*
X151643809Y-84435714D01*
%TO.C,D5*%
X162232380Y-85388095D02*
X161232380Y-85388095D01*
X161232380Y-85150000D01*
X161280000Y-85007142D01*
X161375238Y-84911904D01*
X161470476Y-84864285D01*
X161660952Y-84816666D01*
X161803809Y-84816666D01*
X161994285Y-84864285D01*
X162089523Y-84911904D01*
X162184761Y-85007142D01*
X162232380Y-85150000D01*
X162232380Y-85388095D01*
X161232380Y-83911904D02*
X161232380Y-84388095D01*
X161708571Y-84435714D01*
X161660952Y-84388095D01*
X161613333Y-84292857D01*
X161613333Y-84054761D01*
X161660952Y-83959523D01*
X161708571Y-83911904D01*
X161803809Y-83864285D01*
X162041904Y-83864285D01*
X162137142Y-83911904D01*
X162184761Y-83959523D01*
X162232380Y-84054761D01*
X162232380Y-84292857D01*
X162184761Y-84388095D01*
X162137142Y-84435714D01*
%TO.C,D4*%
X172392380Y-85388095D02*
X171392380Y-85388095D01*
X171392380Y-85150000D01*
X171440000Y-85007142D01*
X171535238Y-84911904D01*
X171630476Y-84864285D01*
X171820952Y-84816666D01*
X171963809Y-84816666D01*
X172154285Y-84864285D01*
X172249523Y-84911904D01*
X172344761Y-85007142D01*
X172392380Y-85150000D01*
X172392380Y-85388095D01*
X171725714Y-83959523D02*
X172392380Y-83959523D01*
X171344761Y-84197619D02*
X172059047Y-84435714D01*
X172059047Y-83816666D01*
%TO.C,D3*%
X182552380Y-85388095D02*
X181552380Y-85388095D01*
X181552380Y-85150000D01*
X181600000Y-85007142D01*
X181695238Y-84911904D01*
X181790476Y-84864285D01*
X181980952Y-84816666D01*
X182123809Y-84816666D01*
X182314285Y-84864285D01*
X182409523Y-84911904D01*
X182504761Y-85007142D01*
X182552380Y-85150000D01*
X182552380Y-85388095D01*
X181552380Y-84483333D02*
X181552380Y-83864285D01*
X181933333Y-84197619D01*
X181933333Y-84054761D01*
X181980952Y-83959523D01*
X182028571Y-83911904D01*
X182123809Y-83864285D01*
X182361904Y-83864285D01*
X182457142Y-83911904D01*
X182504761Y-83959523D01*
X182552380Y-84054761D01*
X182552380Y-84340476D01*
X182504761Y-84435714D01*
X182457142Y-84483333D01*
%TO.C,D1*%
X118492380Y-82848095D02*
X117492380Y-82848095D01*
X117492380Y-82610000D01*
X117540000Y-82467142D01*
X117635238Y-82371904D01*
X117730476Y-82324285D01*
X117920952Y-82276666D01*
X118063809Y-82276666D01*
X118254285Y-82324285D01*
X118349523Y-82371904D01*
X118444761Y-82467142D01*
X118492380Y-82610000D01*
X118492380Y-82848095D01*
X118492380Y-81324285D02*
X118492380Y-81895714D01*
X118492380Y-81610000D02*
X117492380Y-81610000D01*
X117635238Y-81705238D01*
X117730476Y-81800476D01*
X117778095Y-81895714D01*
%TO.C,C1*%
X161603333Y-104767142D02*
X161555714Y-104814761D01*
X161412857Y-104862380D01*
X161317619Y-104862380D01*
X161174761Y-104814761D01*
X161079523Y-104719523D01*
X161031904Y-104624285D01*
X160984285Y-104433809D01*
X160984285Y-104290952D01*
X161031904Y-104100476D01*
X161079523Y-104005238D01*
X161174761Y-103910000D01*
X161317619Y-103862380D01*
X161412857Y-103862380D01*
X161555714Y-103910000D01*
X161603333Y-103957619D01*
X162555714Y-104862380D02*
X161984285Y-104862380D01*
X162270000Y-104862380D02*
X162270000Y-103862380D01*
X162174761Y-104005238D01*
X162079523Y-104100476D01*
X161984285Y-104148095D01*
%TD*%
M02*
