%FSLAX45Y45*%
G04 Gerber Fmt 4.5, Leading zero omitted, Abs format (unit mm)*
G04 Created by KiCad (PCBNEW (5.1.6)-1) date 2021-01-18 21:57:29*
%MOMM*%
%LPD*%
G01*
G04 APERTURE LIST*
%TA.AperFunction,Profile*%
%ADD10C,0.050000*%
%TD*%
%ADD11C,0.200000*%
%ADD12C,0.300000*%
G04 APERTURE END LIST*
D10*
X16565000Y-5245000D02*
X18910000Y-5245000D01*
X9810000Y-5245000D02*
X9810000Y-6229800D01*
X16565000Y-5245000D02*
X9810000Y-5245000D01*
X18910000Y-5745000D02*
X18910000Y-5245000D01*
X18910000Y-5745000D02*
X18910000Y-13745000D01*
X9810000Y-6229800D02*
X9810000Y-13730000D01*
X9810000Y-13730000D02*
X18910000Y-13745000D01*
D11*
X16324000Y-13095000D02*
X16484000Y-13255000D01*
X16484000Y-13095000D02*
X16324000Y-13255000D01*
D12*
X10093928Y-14213214D02*
X10093928Y-13913214D01*
X10165357Y-13913214D01*
X10208214Y-13927500D01*
X10236786Y-13956071D01*
X10251071Y-13984643D01*
X10265357Y-14041786D01*
X10265357Y-14084643D01*
X10251071Y-14141786D01*
X10236786Y-14170357D01*
X10208214Y-14198929D01*
X10165357Y-14213214D01*
X10093928Y-14213214D01*
X10393928Y-14213214D02*
X10393928Y-14013214D01*
X10393928Y-14070357D02*
X10408214Y-14041786D01*
X10422500Y-14027500D01*
X10451071Y-14013214D01*
X10479643Y-14013214D01*
X10579643Y-14213214D02*
X10579643Y-14013214D01*
X10579643Y-13913214D02*
X10565357Y-13927500D01*
X10579643Y-13941786D01*
X10593928Y-13927500D01*
X10579643Y-13913214D01*
X10579643Y-13941786D01*
X10765357Y-14213214D02*
X10736786Y-14198929D01*
X10722500Y-14170357D01*
X10722500Y-13913214D01*
X10922500Y-14213214D02*
X10893928Y-14198929D01*
X10879643Y-14170357D01*
X10879643Y-13913214D01*
X11265357Y-14213214D02*
X11265357Y-13913214D01*
X11365357Y-14127500D01*
X11465357Y-13913214D01*
X11465357Y-14213214D01*
X11736786Y-14213214D02*
X11736786Y-14056071D01*
X11722500Y-14027500D01*
X11693928Y-14013214D01*
X11636786Y-14013214D01*
X11608214Y-14027500D01*
X11736786Y-14198929D02*
X11708214Y-14213214D01*
X11636786Y-14213214D01*
X11608214Y-14198929D01*
X11593928Y-14170357D01*
X11593928Y-14141786D01*
X11608214Y-14113214D01*
X11636786Y-14098929D01*
X11708214Y-14098929D01*
X11736786Y-14084643D01*
X11879643Y-14013214D02*
X11879643Y-14313214D01*
X11879643Y-14027500D02*
X11908214Y-14013214D01*
X11965357Y-14013214D01*
X11993928Y-14027500D01*
X12008214Y-14041786D01*
X12022500Y-14070357D01*
X12022500Y-14156071D01*
X12008214Y-14184643D01*
X11993928Y-14198929D01*
X11965357Y-14213214D01*
X11908214Y-14213214D01*
X11879643Y-14198929D01*
X12151071Y-14184643D02*
X12165357Y-14198929D01*
X12151071Y-14213214D01*
X12136786Y-14198929D01*
X12151071Y-14184643D01*
X12151071Y-14213214D01*
X12151071Y-14027500D02*
X12165357Y-14041786D01*
X12151071Y-14056071D01*
X12136786Y-14041786D01*
X12151071Y-14027500D01*
X12151071Y-14056071D01*
X9647500Y-14627500D02*
X9807500Y-14787500D01*
X9807500Y-14627500D02*
X9647500Y-14787500D01*
X10251071Y-14843214D02*
X10079643Y-14843214D01*
X10165357Y-14843214D02*
X10165357Y-14543214D01*
X10136786Y-14586071D01*
X10108214Y-14614643D01*
X10079643Y-14628929D01*
X10379643Y-14814643D02*
X10393928Y-14828929D01*
X10379643Y-14843214D01*
X10365357Y-14828929D01*
X10379643Y-14814643D01*
X10379643Y-14843214D01*
X10651071Y-14543214D02*
X10593928Y-14543214D01*
X10565357Y-14557500D01*
X10551071Y-14571786D01*
X10522500Y-14614643D01*
X10508214Y-14671786D01*
X10508214Y-14786071D01*
X10522500Y-14814643D01*
X10536786Y-14828929D01*
X10565357Y-14843214D01*
X10622500Y-14843214D01*
X10651071Y-14828929D01*
X10665357Y-14814643D01*
X10679643Y-14786071D01*
X10679643Y-14714643D01*
X10665357Y-14686071D01*
X10651071Y-14671786D01*
X10622500Y-14657500D01*
X10565357Y-14657500D01*
X10536786Y-14671786D01*
X10522500Y-14686071D01*
X10508214Y-14714643D01*
X10865357Y-14543214D02*
X10893928Y-14543214D01*
X10922500Y-14557500D01*
X10936786Y-14571786D01*
X10951071Y-14600357D01*
X10965357Y-14657500D01*
X10965357Y-14728929D01*
X10951071Y-14786071D01*
X10936786Y-14814643D01*
X10922500Y-14828929D01*
X10893928Y-14843214D01*
X10865357Y-14843214D01*
X10836786Y-14828929D01*
X10822500Y-14814643D01*
X10808214Y-14786071D01*
X10793928Y-14728929D01*
X10793928Y-14657500D01*
X10808214Y-14600357D01*
X10822500Y-14571786D01*
X10836786Y-14557500D01*
X10865357Y-14543214D01*
X11093928Y-14843214D02*
X11093928Y-14643214D01*
X11093928Y-14671786D02*
X11108214Y-14657500D01*
X11136786Y-14643214D01*
X11179643Y-14643214D01*
X11208214Y-14657500D01*
X11222500Y-14686071D01*
X11222500Y-14843214D01*
X11222500Y-14686071D02*
X11236786Y-14657500D01*
X11265357Y-14643214D01*
X11308214Y-14643214D01*
X11336786Y-14657500D01*
X11351071Y-14686071D01*
X11351071Y-14843214D01*
X11493928Y-14843214D02*
X11493928Y-14643214D01*
X11493928Y-14671786D02*
X11508214Y-14657500D01*
X11536786Y-14643214D01*
X11579643Y-14643214D01*
X11608214Y-14657500D01*
X11622500Y-14686071D01*
X11622500Y-14843214D01*
X11622500Y-14686071D02*
X11636786Y-14657500D01*
X11665357Y-14643214D01*
X11708214Y-14643214D01*
X11736786Y-14657500D01*
X11751071Y-14686071D01*
X11751071Y-14843214D01*
X12336786Y-14528929D02*
X12079643Y-14914643D01*
X12722500Y-14543214D02*
X12751071Y-14543214D01*
X12779643Y-14557500D01*
X12793928Y-14571786D01*
X12808214Y-14600357D01*
X12822500Y-14657500D01*
X12822500Y-14728929D01*
X12808214Y-14786071D01*
X12793928Y-14814643D01*
X12779643Y-14828929D01*
X12751071Y-14843214D01*
X12722500Y-14843214D01*
X12693928Y-14828929D01*
X12679643Y-14814643D01*
X12665357Y-14786071D01*
X12651071Y-14728929D01*
X12651071Y-14657500D01*
X12665357Y-14600357D01*
X12679643Y-14571786D01*
X12693928Y-14557500D01*
X12722500Y-14543214D01*
X12951071Y-14814643D02*
X12965357Y-14828929D01*
X12951071Y-14843214D01*
X12936786Y-14828929D01*
X12951071Y-14814643D01*
X12951071Y-14843214D01*
X13151071Y-14543214D02*
X13179643Y-14543214D01*
X13208214Y-14557500D01*
X13222500Y-14571786D01*
X13236786Y-14600357D01*
X13251071Y-14657500D01*
X13251071Y-14728929D01*
X13236786Y-14786071D01*
X13222500Y-14814643D01*
X13208214Y-14828929D01*
X13179643Y-14843214D01*
X13151071Y-14843214D01*
X13122500Y-14828929D01*
X13108214Y-14814643D01*
X13093928Y-14786071D01*
X13079643Y-14728929D01*
X13079643Y-14657500D01*
X13093928Y-14600357D01*
X13108214Y-14571786D01*
X13122500Y-14557500D01*
X13151071Y-14543214D01*
X13508214Y-14543214D02*
X13451071Y-14543214D01*
X13422500Y-14557500D01*
X13408214Y-14571786D01*
X13379643Y-14614643D01*
X13365357Y-14671786D01*
X13365357Y-14786071D01*
X13379643Y-14814643D01*
X13393928Y-14828929D01*
X13422500Y-14843214D01*
X13479643Y-14843214D01*
X13508214Y-14828929D01*
X13522500Y-14814643D01*
X13536786Y-14786071D01*
X13536786Y-14714643D01*
X13522500Y-14686071D01*
X13508214Y-14671786D01*
X13479643Y-14657500D01*
X13422500Y-14657500D01*
X13393928Y-14671786D01*
X13379643Y-14686071D01*
X13365357Y-14714643D01*
X13636786Y-14543214D02*
X13822500Y-14543214D01*
X13722500Y-14657500D01*
X13765357Y-14657500D01*
X13793928Y-14671786D01*
X13808214Y-14686071D01*
X13822500Y-14714643D01*
X13822500Y-14786071D01*
X13808214Y-14814643D01*
X13793928Y-14828929D01*
X13765357Y-14843214D01*
X13679643Y-14843214D01*
X13651071Y-14828929D01*
X13636786Y-14814643D01*
X13936786Y-14543214D02*
X13936786Y-14600357D01*
X14051071Y-14543214D02*
X14051071Y-14600357D01*
X14493928Y-14957500D02*
X14479643Y-14943214D01*
X14451071Y-14900357D01*
X14436786Y-14871786D01*
X14422500Y-14828929D01*
X14408214Y-14757500D01*
X14408214Y-14700357D01*
X14422500Y-14628929D01*
X14436786Y-14586071D01*
X14451071Y-14557500D01*
X14479643Y-14514643D01*
X14493928Y-14500357D01*
X14765357Y-14843214D02*
X14593928Y-14843214D01*
X14679643Y-14843214D02*
X14679643Y-14543214D01*
X14651071Y-14586071D01*
X14622500Y-14614643D01*
X14593928Y-14628929D01*
X15122500Y-14843214D02*
X15122500Y-14543214D01*
X15251071Y-14843214D02*
X15251071Y-14686071D01*
X15236786Y-14657500D01*
X15208214Y-14643214D01*
X15165357Y-14643214D01*
X15136786Y-14657500D01*
X15122500Y-14671786D01*
X15436786Y-14843214D02*
X15408214Y-14828929D01*
X15393928Y-14814643D01*
X15379643Y-14786071D01*
X15379643Y-14700357D01*
X15393928Y-14671786D01*
X15408214Y-14657500D01*
X15436786Y-14643214D01*
X15479643Y-14643214D01*
X15508214Y-14657500D01*
X15522500Y-14671786D01*
X15536786Y-14700357D01*
X15536786Y-14786071D01*
X15522500Y-14814643D01*
X15508214Y-14828929D01*
X15479643Y-14843214D01*
X15436786Y-14843214D01*
X15708214Y-14843214D02*
X15679643Y-14828929D01*
X15665357Y-14800357D01*
X15665357Y-14543214D01*
X15936786Y-14828929D02*
X15908214Y-14843214D01*
X15851071Y-14843214D01*
X15822500Y-14828929D01*
X15808214Y-14800357D01*
X15808214Y-14686071D01*
X15822500Y-14657500D01*
X15851071Y-14643214D01*
X15908214Y-14643214D01*
X15936786Y-14657500D01*
X15951071Y-14686071D01*
X15951071Y-14714643D01*
X15808214Y-14743214D01*
X16051071Y-14957500D02*
X16065357Y-14943214D01*
X16093928Y-14900357D01*
X16108214Y-14871786D01*
X16122500Y-14828929D01*
X16136786Y-14757500D01*
X16136786Y-14700357D01*
X16122500Y-14628929D01*
X16108214Y-14586071D01*
X16093928Y-14557500D01*
X16065357Y-14514643D01*
X16051071Y-14500357D01*
X16593928Y-14957500D02*
X16579643Y-14943214D01*
X16551071Y-14900357D01*
X16536786Y-14871786D01*
X16522500Y-14828929D01*
X16508214Y-14757500D01*
X16508214Y-14700357D01*
X16522500Y-14628929D01*
X16536786Y-14586071D01*
X16551071Y-14557500D01*
X16579643Y-14514643D01*
X16593928Y-14500357D01*
X16708214Y-14643214D02*
X16708214Y-14843214D01*
X16708214Y-14671786D02*
X16722500Y-14657500D01*
X16751071Y-14643214D01*
X16793928Y-14643214D01*
X16822500Y-14657500D01*
X16836786Y-14686071D01*
X16836786Y-14843214D01*
X17022500Y-14843214D02*
X16993928Y-14828929D01*
X16979643Y-14814643D01*
X16965357Y-14786071D01*
X16965357Y-14700357D01*
X16979643Y-14671786D01*
X16993928Y-14657500D01*
X17022500Y-14643214D01*
X17065357Y-14643214D01*
X17093928Y-14657500D01*
X17108214Y-14671786D01*
X17122500Y-14700357D01*
X17122500Y-14786071D01*
X17108214Y-14814643D01*
X17093928Y-14828929D01*
X17065357Y-14843214D01*
X17022500Y-14843214D01*
X17208214Y-14643214D02*
X17322500Y-14643214D01*
X17251071Y-14543214D02*
X17251071Y-14800357D01*
X17265357Y-14828929D01*
X17293928Y-14843214D01*
X17322500Y-14843214D01*
X17651071Y-14643214D02*
X17651071Y-14943214D01*
X17651071Y-14657500D02*
X17679643Y-14643214D01*
X17736786Y-14643214D01*
X17765357Y-14657500D01*
X17779643Y-14671786D01*
X17793928Y-14700357D01*
X17793928Y-14786071D01*
X17779643Y-14814643D01*
X17765357Y-14828929D01*
X17736786Y-14843214D01*
X17679643Y-14843214D01*
X17651071Y-14828929D01*
X17965357Y-14843214D02*
X17936786Y-14828929D01*
X17922500Y-14800357D01*
X17922500Y-14543214D01*
X18208214Y-14843214D02*
X18208214Y-14686071D01*
X18193928Y-14657500D01*
X18165357Y-14643214D01*
X18108214Y-14643214D01*
X18079643Y-14657500D01*
X18208214Y-14828929D02*
X18179643Y-14843214D01*
X18108214Y-14843214D01*
X18079643Y-14828929D01*
X18065357Y-14800357D01*
X18065357Y-14771786D01*
X18079643Y-14743214D01*
X18108214Y-14728929D01*
X18179643Y-14728929D01*
X18208214Y-14714643D01*
X18308214Y-14643214D02*
X18422500Y-14643214D01*
X18351071Y-14543214D02*
X18351071Y-14800357D01*
X18365357Y-14828929D01*
X18393928Y-14843214D01*
X18422500Y-14843214D01*
X18636786Y-14828929D02*
X18608214Y-14843214D01*
X18551071Y-14843214D01*
X18522500Y-14828929D01*
X18508214Y-14800357D01*
X18508214Y-14686071D01*
X18522500Y-14657500D01*
X18551071Y-14643214D01*
X18608214Y-14643214D01*
X18636786Y-14657500D01*
X18651071Y-14686071D01*
X18651071Y-14714643D01*
X18508214Y-14743214D01*
X18908214Y-14843214D02*
X18908214Y-14543214D01*
X18908214Y-14828929D02*
X18879643Y-14843214D01*
X18822500Y-14843214D01*
X18793928Y-14828929D01*
X18779643Y-14814643D01*
X18765357Y-14786071D01*
X18765357Y-14700357D01*
X18779643Y-14671786D01*
X18793928Y-14657500D01*
X18822500Y-14643214D01*
X18879643Y-14643214D01*
X18908214Y-14657500D01*
X19022500Y-14957500D02*
X19036786Y-14943214D01*
X19065357Y-14900357D01*
X19079643Y-14871786D01*
X19093928Y-14828929D01*
X19108214Y-14757500D01*
X19108214Y-14700357D01*
X19093928Y-14628929D01*
X19079643Y-14586071D01*
X19065357Y-14557500D01*
X19036786Y-14514643D01*
X19022500Y-14500357D01*
M02*
